<svg width="901" height="697" viewBox="0 0 901 697" fill="none" xmlns="http://www.w3.org/2000/svg">
<g opacity="0.8">
<path opacity="0.8" d="M821.17 661.47H46.57V160.47C46.57 156.28 48.2346 152.261 51.1977 149.298C54.1608 146.335 58.1796 144.67 62.37 144.67H805.37C809.56 144.67 813.579 146.335 816.542 149.298C819.505 152.261 821.17 156.28 821.17 160.47V661.47Z" fill="url(#paint0_linear)"/>
</g>
<path d="M73 153.77H794.69C798.88 153.77 802.899 155.435 805.862 158.398C808.825 161.361 810.49 165.38 810.49 169.57V661.47H57.24V169.58C57.2373 165.395 58.8953 161.379 61.85 158.415C64.8047 155.451 68.8148 153.781 73 153.77Z" fill="white"/>
<path d="M786.24 183.31H81.49V645.56H786.24V183.31Z" fill="#F5F5F5"/>
<path opacity="0.8" d="M785.95 205.75H84.19V621.63H785.95V205.75Z" fill="#E0E0E0"/>
<path d="M785.95 183.65H84.19V205.75H785.95V183.65Z" fill="#F5F5F5"/>
<path d="M99.24 199.73C102.2 199.73 104.6 197.33 104.6 194.37C104.6 191.41 102.2 189.01 99.24 189.01C96.2798 189.01 93.88 191.41 93.88 194.37C93.88 197.33 96.2798 199.73 99.24 199.73Z" fill="#FF5252"/>
<path d="M113.97 199.73C116.93 199.73 119.33 197.33 119.33 194.37C119.33 191.41 116.93 189.01 113.97 189.01C111.01 189.01 108.61 191.41 108.61 194.37C108.61 197.33 111.01 199.73 113.97 199.73Z" fill="#FFFF00"/>
<path d="M128.71 199.73C131.67 199.73 134.07 197.33 134.07 194.37C134.07 191.41 131.67 189.01 128.71 189.01C125.75 189.01 123.35 191.41 123.35 194.37C123.35 197.33 125.75 199.73 128.71 199.73Z" fill="#69F0AE"/>
<g opacity="0.8">
<path opacity="0.8" d="M842.84 694.69C799.72 697.96 59.22 696.69 33.35 694.69C-0.57 678.34 0.049996 614.9 0.049996 614.9L339.65 612.63L340.79 631.94H486.11L491.79 614.94H868.13C868.13 614.94 875.61 673.1 842.84 694.69Z" fill="url(#paint1_linear)"/>
</g>
<path d="M862.62 620.01H493.62C495.041 621.654 495.96 623.672 496.266 625.824C496.572 627.976 496.253 630.17 495.347 632.145C494.44 634.121 492.984 635.794 491.154 636.965C489.323 638.136 487.193 638.755 485.02 638.75H344.14C341.967 638.755 339.837 638.136 338.006 636.965C336.175 635.794 334.72 634.121 333.813 632.145C332.907 630.17 332.588 627.976 332.894 625.824C333.2 623.672 334.119 621.654 335.54 620.01H5.10999C5.10999 620.01 4.54 675.1 38.05 689.34C63.6 691.04 795.05 692.18 837.64 689.34C870.05 670.55 862.62 620.01 862.62 620.01Z" fill="#F5F5F5"/>
<path d="M81.78 636.48C84.2874 636.48 86.32 634.448 86.32 631.94C86.32 629.433 84.2874 627.4 81.78 627.4C79.2726 627.4 77.24 629.433 77.24 631.94C77.24 634.448 79.2726 636.48 81.78 636.48Z" fill="#E0E0E0"/>
<path d="M95.41 636.48C97.9174 636.48 99.95 634.448 99.95 631.94C99.95 629.433 97.9174 627.4 95.41 627.4C92.9026 627.4 90.87 629.433 90.87 631.94C90.87 634.448 92.9026 636.48 95.41 636.48Z" fill="#E0E0E0"/>
<path d="M109.03 636.48C111.537 636.48 113.57 634.448 113.57 631.94C113.57 629.433 111.537 627.4 109.03 627.4C106.523 627.4 104.49 629.433 104.49 631.94C104.49 634.448 106.523 636.48 109.03 636.48Z" fill="#E0E0E0"/>
<path d="M419.88 375.85H452.07C489.068 375.85 524.55 390.547 550.711 416.709C576.873 442.87 591.57 478.352 591.57 515.35V616.76H280.38V515.35C280.38 478.352 295.077 442.87 321.239 416.709C347.4 390.547 382.882 375.85 419.88 375.85Z" fill="#B661B4"/>
<path d="M436.28 321.61C514.826 321.61 578.5 257.936 578.5 179.39C578.5 100.844 514.826 37.1699 436.28 37.1699C357.734 37.1699 294.06 100.844 294.06 179.39C294.06 257.936 357.734 321.61 436.28 321.61Z" fill="#333333"/>
<path opacity="0.1" d="M415.34 334.43H456.47C464.161 334.43 471.538 337.486 476.976 342.924C482.415 348.363 485.47 355.739 485.47 363.43V391.69C485.47 403.45 480.798 414.728 472.483 423.043C464.168 431.359 452.89 436.03 441.13 436.03H430.64C418.88 436.03 407.602 431.359 399.287 423.043C390.972 414.728 386.3 403.45 386.3 391.69V363.47C386.3 355.779 389.355 348.403 394.794 342.964C400.232 337.526 407.609 334.47 415.3 334.47L415.34 334.43Z" fill="black"/>
<path d="M386.3 331.53H485.52V388.83C485.52 400.589 480.848 411.868 472.533 420.183C464.218 428.498 452.94 433.17 441.18 433.17H430.64C418.88 433.17 407.602 428.498 399.287 420.183C390.972 411.868 386.3 400.589 386.3 388.83V331.53Z" fill="#FDB797"/>
<path opacity="0.1" d="M386.48 345.84C418.458 357.787 453.658 357.882 485.7 346.11V333.93H386.48V345.84Z" fill="black"/>
<path d="M436.28 352.48C514.826 352.48 578.5 288.806 578.5 210.26C578.5 131.714 514.826 68.04 436.28 68.04C357.734 68.04 294.06 131.714 294.06 210.26C294.06 288.806 357.734 352.48 436.28 352.48Z" fill="#FDB797"/>
<path opacity="0.1" d="M300.31 159.92H571.51C571.51 159.92 548.36 50.41 445.83 57.34C343.3 64.27 300.31 159.92 300.31 159.92Z" fill="black"/>
<path d="M300.31 156.24H571.51C571.51 156.24 548.36 46.7302 445.83 53.7102C343.3 60.6902 300.31 156.24 300.31 156.24Z" fill="#333333"/>
<path d="M297 229.01C304.307 229.01 310.23 217.902 310.23 204.2C310.23 190.498 304.307 179.39 297 179.39C289.693 179.39 283.77 190.498 283.77 204.2C283.77 217.902 289.693 229.01 297 229.01Z" fill="#FDB797"/>
<path d="M574.82 229.01C582.127 229.01 588.05 217.902 588.05 204.2C588.05 190.498 582.127 179.39 574.82 179.39C567.513 179.39 561.59 190.498 561.59 204.2C561.59 217.902 567.513 229.01 574.82 229.01Z" fill="#FDB797"/>
<path d="M321.36 83.68C324.61 73.06 330.52 62.91 339.64 56.58C346.57 51.77 354.86 49.46 362.81 46.64C374.573 42.4718 385.862 37.0718 396.49 30.53C408.55 23.1 419.88 14.15 433.16 9.23998C456.01 0.789975 481.46 5.35998 505.05 11.42C510.86 12.91 516.74 14.53 521.86 17.67C527.79 21.3 532.34 26.76 536.78 32.11L574.22 77.27C577.65 81.4 581.1 85.58 583.52 90.38C585.777 95.0294 587.218 100.032 587.78 105.17C588.78 113.45 588 122.23 583.78 129.44C577.45 140.25 564.4 145.68 551.89 146.18C539.38 146.68 527.1 143.05 515.08 139.53C476.32 128.18 437.08 117.6 396.88 112.89C376.93 110.428 356.798 109.775 336.73 110.94C330.43 111.35 322.11 114.24 318.28 107.82C314.97 102.25 319.65 89.26 321.36 83.68Z" fill="#333333"/>
<path opacity="0.05" d="M341.3 506.34V616.76" stroke="black" stroke-width="4" stroke-miterlimit="10"/>
<path opacity="0.05" d="M533.14 506.34V616.76" stroke="black" stroke-width="4" stroke-miterlimit="10"/>
<g opacity="0.8">
<path opacity="0.8" d="M900.1 198.47H721.64L661.41 248.69V198.47H621.26V0H900.1V198.47Z" fill="url(#paint2_linear)"/>
</g>
<path d="M896.32 2.35986H625.04V192.15H896.32V2.35986Z" fill="white"/>
<path d="M870.54 30.2598H655.59V35.8998H870.54V30.2598Z" fill="#E0E0E0"/>
<path d="M803.37 55.6602H655.59V61.3002H803.37V55.6602Z" fill="#E0E0E0"/>
<path d="M832.93 81.0498H655.59V86.6898H832.93V81.0498Z" fill="#E0E0E0"/>
<path d="M798 106.45H655.59V112.09H798V106.45Z" fill="#B661B4"/>
<path d="M870.54 131.84H655.59V137.48H870.54V131.84Z" fill="#B661B4"/>
<path d="M870.54 157.24H655.59V162.88H870.54V157.24Z" fill="#E0E0E0"/>
<path d="M671.45 188.46V238.66L726.66 183.44L671.45 188.46Z" fill="white"/>
<defs>
<linearGradient id="paint0_linear" x1="433.87" y1="661.47" x2="433.87" y2="144.69" gradientUnits="userSpaceOnUse">
<stop stop-color="#808080" stop-opacity="0.25"/>
<stop offset="0.54" stop-color="#808080" stop-opacity="0.12"/>
<stop offset="1" stop-color="#808080" stop-opacity="0.1"/>
</linearGradient>
<linearGradient id="paint1_linear" x1="507719" y1="67724.4" x2="507719" y2="60658.8" gradientUnits="userSpaceOnUse">
<stop stop-color="#808080" stop-opacity="0.25"/>
<stop offset="0.54" stop-color="#808080" stop-opacity="0.12"/>
<stop offset="1" stop-color="#808080" stop-opacity="0.1"/>
</linearGradient>
<linearGradient id="paint2_linear" x1="212729" y1="61846.7" x2="212729" y2="0" gradientUnits="userSpaceOnUse">
<stop stop-color="#808080" stop-opacity="0.25"/>
<stop offset="0.54" stop-color="#808080" stop-opacity="0.12"/>
<stop offset="1" stop-color="#808080" stop-opacity="0.1"/>
</linearGradient>
</defs>
</svg>
