<svg width="836" height="661" viewBox="0 0 836 661" fill="none" xmlns="http://www.w3.org/2000/svg">
<g clip-path="url(#clip0)">
<path d="M835.61 0H35.61V529H835.61V0Z" fill="url(#paint0_linear)"/>
<path d="M826.61 62.5H42.61V513H826.61V62.5Z" fill="white"/>
<path d="M826.61 11H42.61V62.5H826.61V11Z" fill="#F59B66"/>
<path d="M817.61 95H53.61V488H817.61V95Z" fill="url(#paint1_linear)"/>
<path opacity="0.5" d="M155.11 102H63.11V175.5H155.11V102Z" fill="#F59B66"/>
<path d="M248.11 102H156.11V175.5H248.11V102Z" fill="white"/>
<path opacity="0.2" d="M341.11 102H249.11V175.5H341.11V102Z" fill="#F59B66"/>
<path d="M434.11 102H342.11V175.5H434.11V102Z" fill="white"/>
<path d="M527.11 102H435.11V175.5H527.11V102Z" fill="white"/>
<path opacity="0.5" d="M620.11 102H528.11V175.5H620.11V102Z" fill="#F59B66"/>
<path d="M713.11 102H621.11V175.5H713.11V102Z" fill="white"/>
<path opacity="0.2" d="M806.11 102H714.11V175.5H806.11V102Z" fill="#F59B66"/>
<path opacity="0.2" d="M155.11 177H63.11V250.5H155.11V177Z" fill="#F59B66"/>
<path opacity="0.2" d="M248.11 177H156.11V250.5H248.11V177Z" fill="#F59B66"/>
<path d="M341.11 177H249.11V250.5H341.11V177Z" fill="white"/>
<path opacity="0.5" d="M434.11 177H342.11V250.5H434.11V177Z" fill="#F59B66"/>
<path d="M527.11 177H435.11V250.5H527.11V177Z" fill="white"/>
<path opacity="0.2" d="M620.11 177H528.11V250.5H620.11V177Z" fill="#F59B66"/>
<path opacity="0.5" d="M713.11 177H621.11V250.5H713.11V177Z" fill="#F59B66"/>
<path d="M806.11 177H714.11V250.5H806.11V177Z" fill="white"/>
<path d="M155.11 251H63.11V324.5H155.11V251Z" fill="white"/>
<path d="M248.11 251H156.11V324.5H248.11V251Z" fill="white"/>
<path opacity="0.2" d="M341.11 251H249.11V324.5H341.11V251Z" fill="#F59B66"/>
<path d="M434.11 251H342.11V324.5H434.11V251Z" fill="white"/>
<path opacity="0.2" d="M527.11 251H435.11V324.5H527.11V251Z" fill="#F59B66"/>
<path d="M620.11 251H528.11V324.5H620.11V251Z" fill="white"/>
<path d="M713.11 251H621.11V324.5H713.11V251Z" fill="white"/>
<path opacity="0.2" d="M806.11 251H714.11V324.5H806.11V251Z" fill="#F59B66"/>
<path d="M155.11 325H63.11V398.5H155.11V325Z" fill="white"/>
<path opacity="0.5" d="M248.11 325H156.11V398.5H248.11V325Z" fill="#F59B66"/>
<path opacity="0.5" d="M341.11 325H249.11V398.5H341.11V325Z" fill="#F59B66"/>
<path d="M434.11 325H342.11V398.5H434.11V325Z" fill="white"/>
<path d="M527.11 325H435.11V398.5H527.11V325Z" fill="white"/>
<path opacity="0.5" d="M620.11 325H528.11V398.5H620.11V325Z" fill="#F59B66"/>
<path d="M713.11 325H621.11V398.5H713.11V325Z" fill="white"/>
<path opacity="0.5" d="M806.11 325H714.11V398.5H806.11V325Z" fill="#F59B66"/>
<path opacity="0.5" d="M155.11 400H63.11V473.5H155.11V400Z" fill="#F59B66"/>
<path opacity="0.2" d="M248.11 400H156.11V473.5H248.11V400Z" fill="#F59B66"/>
<path d="M341.11 400H249.11V473.5H341.11V400Z" fill="white"/>
<path opacity="0.5" d="M434.11 400H342.11V473.5H434.11V400Z" fill="#F59B66"/>
<path opacity="0.2" d="M527.11 400H435.11V473.5H527.11V400Z" fill="#F59B66"/>
<path d="M620.11 400H528.11V473.5H620.11V400Z" fill="white"/>
<path opacity="0.2" d="M713.11 400H621.11V473.5H713.11V400Z" fill="#F59B66"/>
<path d="M806.11 400H714.11V473.5H806.11V400Z" fill="white"/>
<path d="M98.61 258H70.61V286H98.61V258Z" fill="#B661B4"/>
<path d="M376.61 110H348.61V138H376.61V110Z" fill="#B661B4"/>
<path d="M373.61 258H345.61V286H373.61V258Z" fill="#B661B4"/>
<path d="M468.61 329H440.61V357H468.61V329Z" fill="#B661B4"/>
<path d="M653.61 258H625.61V286H653.61V258Z" fill="#B661B4"/>
<path d="M171.55 660.05C266.294 660.05 343.1 583.245 343.1 488.5C343.1 393.756 266.294 316.95 171.55 316.95C76.8056 316.95 0 393.756 0 488.5C0 583.245 76.8056 660.05 171.55 660.05Z" fill="url(#paint2_linear)"/>
<path d="M171.55 655.42C263.737 655.42 338.47 580.687 338.47 488.5C338.47 396.313 263.737 321.58 171.55 321.58C79.3626 321.58 4.63 396.313 4.63 488.5C4.63 580.687 79.3626 655.42 171.55 655.42Z" fill="#F59B66"/>
<path d="M171.55 624.12C246.451 624.12 307.17 563.401 307.17 488.5C307.17 413.599 246.451 352.88 171.55 352.88C96.6491 352.88 35.93 413.599 35.93 488.5C35.93 563.401 96.6491 624.12 171.55 624.12Z" fill="white"/>
<path d="M171.55 496.61C176.029 496.61 179.66 492.979 179.66 488.5C179.66 484.021 176.029 480.39 171.55 480.39C167.071 480.39 163.44 484.021 163.44 488.5C163.44 492.979 167.071 496.61 171.55 496.61Z" fill="url(#paint3_linear)"/>
<path d="M174.61 489.5L169.61 487.82L214.61 382.5L219.61 384.85L174.61 489.5Z" fill="url(#paint4_linear)"/>
<path d="M215.144 383.468L171.098 487.791L174.304 489.145L218.35 384.822L215.144 383.468Z" fill="#BEBEBE"/>
<path d="M199.61 544.5L170.61 490.5L174.61 488.5L204.61 541.5L199.61 544.5Z" fill="url(#paint5_linear)"/>
<path d="M174.223 488.862L171.165 490.523L200.142 543.849L203.2 542.187L174.223 488.862Z" fill="#BEBEBE"/>
<path d="M297.9 495.46C299.822 495.46 301.38 493.902 301.38 491.98C301.38 490.058 299.822 488.5 297.9 488.5C295.978 488.5 294.42 490.058 294.42 491.98C294.42 493.902 295.978 495.46 297.9 495.46Z" fill="#F59B66"/>
<path d="M66.6307 428.276C67.8788 426.115 67.1381 423.35 64.9762 422.102C62.8143 420.854 60.0499 421.595 58.8018 423.756C57.5536 425.918 58.2943 428.683 60.4562 429.931C62.6181 431.179 65.3825 430.438 66.6307 428.276Z" fill="url(#paint6_linear)"/>
<path d="M66.1329 558.592C68.2948 557.344 69.0355 554.58 67.7873 552.418C66.5391 550.256 63.7748 549.515 61.6129 550.763C59.451 552.012 58.7103 554.776 59.9584 556.938C61.2066 559.1 63.971 559.84 66.1329 558.592Z" fill="url(#paint7_linear)"/>
<path d="M45.21 496.5C47.7063 496.5 49.73 494.476 49.73 491.98C49.73 489.484 47.7063 487.46 45.21 487.46C42.7137 487.46 40.69 489.484 40.69 491.98C40.69 494.476 42.7137 496.5 45.21 496.5Z" fill="url(#paint8_linear)"/>
<path d="M111.103 383.567C113.265 382.319 114.006 379.554 112.757 377.392C111.509 375.231 108.745 374.49 106.583 375.738C104.421 376.986 103.68 379.751 104.929 381.912C106.177 384.074 108.941 384.815 111.103 383.567Z" fill="url(#paint9_linear)"/>
<path d="M173.698 367.345C175.859 366.097 176.6 363.333 175.352 361.171C174.104 359.009 171.339 358.268 169.178 359.516C167.016 360.765 166.275 363.529 167.523 365.691C168.771 367.853 171.536 368.593 173.698 367.345Z" fill="url(#paint10_linear)"/>
<path d="M236.291 383.572C238.453 382.324 239.193 379.559 237.945 377.397C236.697 375.235 233.933 374.495 231.771 375.743C229.609 376.991 228.868 379.755 230.116 381.917C231.364 384.079 234.129 384.82 236.291 383.572Z" fill="url(#paint11_linear)"/>
<path d="M282.655 429.939C284.817 428.691 285.557 425.926 284.309 423.765C283.061 421.603 280.297 420.862 278.135 422.11C275.973 423.358 275.232 426.123 276.48 428.285C277.728 430.446 280.493 431.187 282.655 429.939Z" fill="url(#paint12_linear)"/>
<path d="M281.5 558.602C283.662 557.354 284.403 554.589 283.155 552.428C281.906 550.266 279.142 549.525 276.98 550.773C274.818 552.021 274.077 554.786 275.326 556.948C276.574 559.109 279.338 559.85 281.5 558.602Z" fill="url(#paint13_linear)"/>
<path d="M233.972 603.805C236.133 602.557 236.874 599.793 235.626 597.631C234.378 595.469 231.613 594.728 229.452 595.976C227.29 597.224 226.549 599.989 227.797 602.151C229.045 604.313 231.81 605.053 233.972 603.805Z" fill="url(#paint14_linear)"/>
<path d="M173.693 617.721C175.854 616.473 176.595 613.709 175.347 611.547C174.099 609.385 171.334 608.644 169.173 609.892C167.011 611.14 166.27 613.905 167.518 616.067C168.766 618.229 171.531 618.969 173.693 617.721Z" fill="url(#paint15_linear)"/>
<path d="M113.422 603.81C115.584 602.562 116.325 599.798 115.077 597.636C113.828 595.474 111.064 594.733 108.902 595.981C106.74 597.229 106 599.994 107.248 602.156C108.496 604.318 111.26 605.058 113.422 603.81Z" fill="url(#paint16_linear)"/>
<path d="M171.55 366.79C173.472 366.79 175.03 365.232 175.03 363.31C175.03 361.388 173.472 359.83 171.55 359.83C169.628 359.83 168.07 361.388 168.07 363.31C168.07 365.232 169.628 366.79 171.55 366.79Z" fill="#B661B4"/>
<path d="M237.158 381.819C238.119 380.154 237.549 378.026 235.885 377.065C234.22 376.104 232.092 376.674 231.131 378.339C230.17 380.003 230.74 382.132 232.405 383.093C234.069 384.054 236.197 383.483 237.158 381.819Z" fill="#B661B4"/>
<path d="M281.702 428.919C283.367 427.958 283.937 425.83 282.976 424.166C282.015 422.501 279.887 421.931 278.222 422.892C276.558 423.853 275.988 425.981 276.949 427.646C277.909 429.31 280.038 429.88 281.702 428.919Z" fill="#B661B4"/>
<path d="M282.251 556.42C283.212 554.756 282.642 552.628 280.978 551.667C279.313 550.706 277.185 551.276 276.224 552.94C275.263 554.605 275.833 556.733 277.498 557.694C279.162 558.655 281.29 558.085 282.251 556.42Z" fill="#B661B4"/>
<path d="M233.452 602.666C235.116 601.705 235.686 599.577 234.725 597.913C233.764 596.248 231.636 595.678 229.972 596.639C228.307 597.6 227.737 599.728 228.698 601.393C229.659 603.057 231.787 603.627 233.452 602.666Z" fill="#B661B4"/>
<path d="M110.693 383.103C112.358 382.142 112.928 380.014 111.967 378.349C111.006 376.685 108.878 376.114 107.213 377.075C105.549 378.036 104.979 380.165 105.94 381.829C106.901 383.494 109.029 384.064 110.693 383.103Z" fill="#B661B4"/>
<path d="M66.1547 427.648C67.1157 425.983 66.5454 423.855 64.881 422.894C63.2165 421.933 61.0882 422.503 60.1272 424.168C59.1662 425.832 59.7365 427.961 61.401 428.922C63.0654 429.883 65.1937 429.312 66.1547 427.648Z" fill="#B661B4"/>
<path d="M300.05 496.012C302.212 494.764 302.952 492 301.704 489.838C300.456 487.676 297.692 486.935 295.53 488.183C293.368 489.432 292.627 492.196 293.875 494.358C295.124 496.52 297.888 497.26 300.05 496.012Z" fill="#B661B4"/>
<path d="M65.6129 557.692C67.2773 556.731 67.8476 554.603 66.8866 552.938C65.9256 551.274 63.7973 550.703 62.1329 551.664C60.4684 552.625 59.8981 554.754 60.8591 556.418C61.82 558.083 63.9484 558.653 65.6129 557.692Z" fill="#B661B4"/>
<path d="M114.402 601.397C115.363 599.732 114.792 597.604 113.128 596.643C111.463 595.682 109.335 596.252 108.374 597.917C107.413 599.581 107.983 601.71 109.648 602.671C111.312 603.632 113.441 603.061 114.402 601.397Z" fill="#B661B4"/>
<path d="M45.21 495.46C47.132 495.46 48.69 493.902 48.69 491.98C48.69 490.058 47.132 488.5 45.21 488.5C43.2881 488.5 41.73 490.058 41.73 491.98C41.73 493.902 43.2881 495.46 45.21 495.46Z" fill="#B661B4"/>
<path d="M171.55 617.16C173.472 617.16 175.03 615.602 175.03 613.68C175.03 611.758 173.472 610.2 171.55 610.2C169.628 610.2 168.07 611.758 168.07 613.68C168.07 615.602 169.628 617.16 171.55 617.16Z" fill="#B661B4"/>
<path opacity="0.2" d="M42.89 501.25C42.899 471.365 52.7774 442.319 70.9907 418.625C89.204 394.932 114.733 377.916 143.61 370.222C172.488 362.529 203.098 364.587 230.686 376.079C258.273 387.57 281.293 407.851 296.17 433.77C288.87 416.813 278.185 401.524 264.77 388.841C251.355 376.157 235.492 366.346 218.152 360.008C200.812 353.67 182.361 350.938 163.929 351.98C145.497 353.022 127.471 357.816 110.956 366.068C94.4414 374.32 79.785 385.856 67.8846 399.97C55.9842 414.085 47.0903 430.48 41.7478 448.152C36.4053 465.824 34.7266 484.4 36.8144 502.743C38.9023 521.087 44.7128 538.811 53.89 554.83C46.6101 537.906 42.8667 519.673 42.89 501.25V501.25Z" fill="#F59B66"/>
<path d="M171.55 494.3C174.753 494.3 177.35 491.703 177.35 488.5C177.35 485.297 174.753 482.7 171.55 482.7C168.347 482.7 165.75 485.297 165.75 488.5C165.75 491.703 168.347 494.3 171.55 494.3Z" fill="#B661B4"/>
</g>
<defs>
<linearGradient id="paint0_linear" x1="435.61" y1="529" x2="435.61" y2="0" gradientUnits="userSpaceOnUse">
<stop stop-color="#808080" stop-opacity="0.25"/>
<stop offset="0.54" stop-color="#808080" stop-opacity="0.12"/>
<stop offset="1" stop-color="#808080" stop-opacity="0.1"/>
</linearGradient>
<linearGradient id="paint1_linear" x1="332860" y1="191879" x2="332860" y2="37430" gradientUnits="userSpaceOnUse">
<stop stop-color="#808080" stop-opacity="0.25"/>
<stop offset="0.54" stop-color="#808080" stop-opacity="0.12"/>
<stop offset="1" stop-color="#808080" stop-opacity="0.1"/>
</linearGradient>
<linearGradient id="paint2_linear" x1="58858.8" y1="226780" x2="58858.8" y2="109062" gradientUnits="userSpaceOnUse">
<stop stop-color="#808080" stop-opacity="0.25"/>
<stop offset="0.54" stop-color="#808080" stop-opacity="0.12"/>
<stop offset="1" stop-color="#808080" stop-opacity="0.1"/>
</linearGradient>
<linearGradient id="paint3_linear" x1="2945.98" y1="8535.39" x2="2945.98" y2="8272.14" gradientUnits="userSpaceOnUse">
<stop stop-color="#808080" stop-opacity="0.25"/>
<stop offset="0.54" stop-color="#808080" stop-opacity="0.12"/>
<stop offset="1" stop-color="#808080" stop-opacity="0.1"/>
</linearGradient>
<linearGradient id="paint4_linear" x1="9900.11" y1="52759" x2="9900.11" y2="41310" gradientUnits="userSpaceOnUse">
<stop stop-color="#808080" stop-opacity="0.25"/>
<stop offset="0.54" stop-color="#808080" stop-opacity="0.12"/>
<stop offset="1" stop-color="#808080" stop-opacity="0.1"/>
</linearGradient>
<linearGradient id="paint5_linear" x1="6549.35" y1="30980.5" x2="6549.35" y2="27844.5" gradientUnits="userSpaceOnUse">
<stop stop-color="#808080" stop-opacity="0.25"/>
<stop offset="0.54" stop-color="#808080" stop-opacity="0.12"/>
<stop offset="1" stop-color="#808080" stop-opacity="0.1"/>
</linearGradient>
<linearGradient id="paint6_linear" x1="-3664.79" y1="7586.13" x2="-3594.09" y2="7545.32" gradientUnits="userSpaceOnUse">
<stop stop-color="#808080" stop-opacity="0.25"/>
<stop offset="0.54" stop-color="#808080" stop-opacity="0.12"/>
<stop offset="1" stop-color="#808080" stop-opacity="0.1"/>
</linearGradient>
<linearGradient id="paint7_linear" x1="2283.82" y1="6689.84" x2="2283.82" y2="6608.21" gradientUnits="userSpaceOnUse">
<stop stop-color="#808080" stop-opacity="0.25"/>
<stop offset="0.54" stop-color="#808080" stop-opacity="0.12"/>
<stop offset="1" stop-color="#808080" stop-opacity="0.1"/>
</linearGradient>
<linearGradient id="paint8_linear" x1="-707.454" y1="7737.19" x2="-666.593" y2="7666.42" gradientUnits="userSpaceOnUse">
<stop stop-color="#808080" stop-opacity="0.25"/>
<stop offset="0.54" stop-color="#808080" stop-opacity="0.12"/>
<stop offset="1" stop-color="#808080" stop-opacity="0.1"/>
</linearGradient>
<linearGradient id="paint9_linear" x1="-6175.41" y1="5840.96" x2="-6093.69" y2="5840.96" gradientUnits="userSpaceOnUse">
<stop stop-color="#808080" stop-opacity="0.25"/>
<stop offset="0.54" stop-color="#808080" stop-opacity="0.12"/>
<stop offset="1" stop-color="#808080" stop-opacity="0.1"/>
</linearGradient>
<linearGradient id="paint10_linear" x1="-5593.38" y1="5756.92" x2="-5511.66" y2="5756.92" gradientUnits="userSpaceOnUse">
<stop stop-color="#808080" stop-opacity="0.25"/>
<stop offset="0.54" stop-color="#808080" stop-opacity="0.12"/>
<stop offset="1" stop-color="#808080" stop-opacity="0.1"/>
</linearGradient>
<linearGradient id="paint11_linear" x1="-5043.69" y1="5966.16" x2="-4962.06" y2="5966.16" gradientUnits="userSpaceOnUse">
<stop stop-color="#808080" stop-opacity="0.25"/>
<stop offset="0.54" stop-color="#808080" stop-opacity="0.12"/>
<stop offset="1" stop-color="#808080" stop-opacity="0.1"/>
</linearGradient>
<linearGradient id="paint12_linear" x1="-4670.94" y1="6431.7" x2="-4589.22" y2="6431.7" gradientUnits="userSpaceOnUse">
<stop stop-color="#808080" stop-opacity="0.25"/>
<stop offset="0.54" stop-color="#808080" stop-opacity="0.12"/>
<stop offset="1" stop-color="#808080" stop-opacity="0.1"/>
</linearGradient>
<linearGradient id="paint13_linear" x1="-4810.12" y1="7593.62" x2="-4728.4" y2="7593.62" gradientUnits="userSpaceOnUse">
<stop stop-color="#808080" stop-opacity="0.25"/>
<stop offset="0.54" stop-color="#808080" stop-opacity="0.12"/>
<stop offset="1" stop-color="#808080" stop-opacity="0.1"/>
</linearGradient>
<linearGradient id="paint14_linear" x1="-5284.88" y1="7954.8" x2="-5203.25" y2="7954.8" gradientUnits="userSpaceOnUse">
<stop stop-color="#808080" stop-opacity="0.25"/>
<stop offset="0.54" stop-color="#808080" stop-opacity="0.12"/>
<stop offset="1" stop-color="#808080" stop-opacity="0.1"/>
</linearGradient>
<linearGradient id="paint15_linear" x1="-5843.76" y1="8020.26" x2="-5762.03" y2="8020.26" gradientUnits="userSpaceOnUse">
<stop stop-color="#808080" stop-opacity="0.25"/>
<stop offset="0.54" stop-color="#808080" stop-opacity="0.12"/>
<stop offset="1" stop-color="#808080" stop-opacity="0.1"/>
</linearGradient>
<linearGradient id="paint16_linear" x1="-6374.67" y1="7834.27" x2="-6293.04" y2="7834.27" gradientUnits="userSpaceOnUse">
<stop stop-color="#808080" stop-opacity="0.25"/>
<stop offset="0.54" stop-color="#808080" stop-opacity="0.12"/>
<stop offset="1" stop-color="#808080" stop-opacity="0.1"/>
</linearGradient>
<clipPath id="clip0">
<rect width="835.61" height="660.05" fill="white"/>
</clipPath>
</defs>
</svg>
