<svg width="202" height="170" viewBox="0 0 202 170" fill="none" xmlns="http://www.w3.org/2000/svg">
<g clip-path="url(#clip0)">
<path d="M146.641 133.338H118.383L70.2511 138.022L21.747 133.338V18.5814L70.05 22.0943L119.396 18.5814L167.669 25.2169L166.43 113.342L146.641 133.338Z" fill="url(#paint0_linear)"/>
<path d="M145.72 131.743H118.08L71.001 136.3L23.558 131.743V20.0878L70.8043 23.5057L119.071 20.0878L166.288 26.5441L165.076 112.288L145.72 131.743Z" fill="white"/>
<path d="M145.876 128.703H116.765L72.3591 133.001L27.6094 128.703V23.3864L72.1736 26.6103L117.7 23.3864L162.237 29.4762V112.225L145.876 128.703Z" fill="#F59B66"/>
<path d="M143.815 131.568L144.157 109.829L165.076 110.674L143.815 131.568Z" fill="url(#paint1_linear)"/>
<path d="M27.6094 68.8994L91.7708 97.3473L96.0347 106.198L91.7897 110.626L27.6094 80.1459V68.8994Z" fill="white"/>
<path d="M145.72 131.568L146.032 111.508L165.076 112.288L145.72 131.568Z" fill="white"/>
<path d="M114.784 114.7L141.555 26.6483L152.205 28.1044L122.212 119.305L114.784 114.7Z" fill="white"/>
<path d="M202 160.321L99.7736 103.631L125.739 17.2397L116.903 13.7305L104.319 55.5975L4.0623 0L0 9.67903L101.245 65.8247L78.1305 142.73L86.9672 146.239L96.6997 113.858L197.938 170L202 160.321Z" fill="white"/>
<path opacity="0.1" d="M72.1736 133.001L116.738 128.703V23.3864L72.1736 26.6103" fill="black"/>
<path d="M112.988 61.7158C112.988 70.2228 97.6059 94.3137 97.6059 94.3137C97.6059 94.3137 82.224 70.2228 82.224 61.7158C82.2233 59.6925 82.6207 57.689 83.3934 55.8196C84.1661 53.9501 85.299 52.2514 86.7274 50.8206C88.1558 49.3897 89.8518 48.2546 91.7183 47.4802C93.5849 46.7058 95.5855 46.3072 97.6059 46.3072C99.6264 46.3072 101.627 46.7058 103.494 47.4802C105.36 48.2546 107.056 49.3897 108.484 50.8206C109.913 52.2514 111.046 53.9501 111.819 55.8196C112.591 57.689 112.989 59.6925 112.988 61.7158Z" fill="#B661B4"/>
<path d="M97.6059 65.298C100.174 65.298 102.256 63.213 102.256 60.6411C102.256 58.0692 100.174 55.9843 97.6059 55.9843C95.0376 55.9843 92.9556 58.0692 92.9556 60.6411C92.9556 63.213 95.0376 65.298 97.6059 65.298Z" fill="white"/>
<path d="M138.789 68.8994L162.237 74.9243V86.1709L133.532 75.9104L138.789 68.8994Z" fill="white"/>
<path d="M49.425 90.5065L43.5027 131.527L50.224 132.944L59.0782 95.091L59.0678 89.726L49.425 90.5065Z" fill="white"/>
<path d="M49.1863 36.9553L42.541 75.5198L47.6864 78.3015L59.9521 36.9435L49.1863 36.9553Z" fill="white"/>
<path d="M61.8977 30.7441C62.6792 30.7441 63.3127 30.1097 63.3127 29.3271C63.3127 28.5446 62.6792 27.9102 61.8977 27.9102C61.1162 27.9102 60.4827 28.5446 60.4827 29.3271C60.4827 30.1097 61.1162 30.7441 61.8977 30.7441Z" fill="#B661B4"/>
<path d="M44.9177 104.073C45.6992 104.073 46.3327 103.438 46.3327 102.656C46.3327 101.873 45.6992 101.239 44.9177 101.239C44.1362 101.239 43.5027 101.873 43.5027 102.656C43.5027 103.438 44.1362 104.073 44.9177 104.073Z" fill="#B661B4"/>
<path d="M43.5027 114.523C44.2841 114.523 44.9177 113.889 44.9177 113.106C44.9177 112.323 44.2841 111.689 43.5027 111.689C42.7212 111.689 42.0876 112.323 42.0876 113.106C42.0876 113.889 42.7212 114.523 43.5027 114.523Z" fill="#B661B4"/>
<path d="M58.5371 112.043C59.3186 112.043 59.9521 111.409 59.9521 110.626C59.9521 109.844 59.3186 109.209 58.5371 109.209C57.7556 109.209 57.1221 109.844 57.1221 110.626C57.1221 111.409 57.7556 112.043 58.5371 112.043Z" fill="#B661B4"/>
<path d="M34.3052 69.5339C35.0867 69.5339 35.7202 68.8995 35.7202 68.1169C35.7202 67.3344 35.0867 66.7 34.3052 66.7C33.5237 66.7 32.8902 67.3344 32.8902 68.1169C32.8902 68.8995 33.5237 69.5339 34.3052 69.5339Z" fill="#B661B4"/>
<path d="M145.737 68.1169C146.518 68.1169 147.152 67.4825 147.152 66.6999C147.152 65.9174 146.518 65.283 145.737 65.283C144.955 65.283 144.322 65.9174 144.322 66.6999C144.322 67.4825 144.955 68.1169 145.737 68.1169Z" fill="#B661B4"/>
<path d="M133.532 117.357C134.314 117.357 134.947 116.723 134.947 115.94C134.947 115.157 134.314 114.523 133.532 114.523C132.751 114.523 132.117 115.157 132.117 115.94C132.117 116.723 132.751 117.357 133.532 117.357Z" fill="#B661B4"/>
</g>
<defs>
<linearGradient id="paint0_linear" x1="94.7081" y1="138.022" x2="94.7081" y2="18.5814" gradientUnits="userSpaceOnUse">
<stop stop-color="#808080" stop-opacity="0.25"/>
<stop offset="0.53514" stop-color="#808080" stop-opacity="0.12"/>
<stop offset="1" stop-color="#808080" stop-opacity="0.1"/>
</linearGradient>
<linearGradient id="paint1_linear" x1="154.445" y1="131.568" x2="154.445" y2="109.829" gradientUnits="userSpaceOnUse">
<stop stop-opacity="0.12"/>
<stop offset="0.55135" stop-opacity="0.09"/>
<stop offset="1" stop-opacity="0.02"/>
</linearGradient>
<clipPath id="clip0">
<rect width="202" height="170" fill="white"/>
</clipPath>
</defs>
</svg>
