<svg width="1127" height="695" viewBox="0 0 1127 695" fill="none" xmlns="http://www.w3.org/2000/svg">
<g clip-path="url(#clip0)">
<path d="M301.182 173.908H161.182V175.908H301.182V173.908Z" fill="#F2F2F2"/>
<path d="M201.182 155.908H199.182V174.408H201.182V155.908Z" fill="#F2F2F2"/>
<path d="M262.182 155.908H260.182V174.408H262.182V155.908Z" fill="#F2F2F2"/>
<path d="M253.182 73.9077H113.182V75.9077H253.182V73.9077Z" fill="#F2F2F2"/>
<path d="M215.182 75.4077H213.182V93.9077H215.182V75.4077Z" fill="#F2F2F2"/>
<path d="M154.182 75.4077H152.182V93.9077H154.182V75.4077Z" fill="#F2F2F2"/>
<path d="M475.182 213.908H335.182V215.908H475.182V213.908Z" fill="#F2F2F2"/>
<path d="M375.182 195.908H373.182V214.408H375.182V195.908Z" fill="#F2F2F2"/>
<path d="M436.182 195.908H434.182V214.408H436.182V195.908Z" fill="#F2F2F2"/>
<path d="M427.182 113.908H287.182V115.908H427.182V113.908Z" fill="#F2F2F2"/>
<path d="M389.182 115.408H387.182V133.908H389.182V115.408Z" fill="#F2F2F2"/>
<path d="M328.182 115.408H326.182V133.908H328.182V115.408Z" fill="#F2F2F2"/>
<path d="M420.182 553.908H280.182V555.908H420.182V553.908Z" fill="#F2F2F2"/>
<path d="M320.182 535.908H318.182V554.408H320.182V535.908Z" fill="#F2F2F2"/>
<path d="M381.182 535.908H379.182V554.408H381.182V535.908Z" fill="#F2F2F2"/>
<path d="M372.182 453.908H232.182V455.908H372.182V453.908Z" fill="#F2F2F2"/>
<path d="M334.182 455.408H332.182V473.908H334.182V455.408Z" fill="#F2F2F2"/>
<path d="M273.182 455.408H271.182V473.908H273.182V455.408Z" fill="#F2F2F2"/>
<path d="M356.182 337.908H216.182V339.908H356.182V337.908Z" fill="#F2F2F2"/>
<path d="M256.182 319.908H254.182V338.408H256.182V319.908Z" fill="#F2F2F2"/>
<path d="M317.182 319.908H315.182V338.408H317.182V319.908Z" fill="#F2F2F2"/>
<path d="M308.182 237.908H168.182V239.908H308.182V237.908Z" fill="#F2F2F2"/>
<path d="M270.182 239.408H268.182V257.908H270.182V239.408Z" fill="#F2F2F2"/>
<path d="M209.182 239.408H207.182V257.908H209.182V239.408Z" fill="#F2F2F2"/>
<path d="M255.182 489.908H115.182V491.908H255.182V489.908Z" fill="#F2F2F2"/>
<path d="M155.182 471.908H153.182V490.408H155.182V471.908Z" fill="#F2F2F2"/>
<path d="M216.182 471.908H214.182V490.408H216.182V471.908Z" fill="#F2F2F2"/>
<path d="M207.182 389.908H67.1824V391.908H207.182V389.908Z" fill="#F2F2F2"/>
<path d="M169.182 391.408H167.182V409.908H169.182V391.408Z" fill="#F2F2F2"/>
<path d="M108.182 391.408H106.182V409.908H108.182V391.408Z" fill="#F2F2F2"/>
<path d="M952.182 173.908H812.182V175.908H952.182V173.908Z" fill="#F2F2F2"/>
<path d="M852.182 155.908H850.182V174.408H852.182V155.908Z" fill="#F2F2F2"/>
<path d="M913.182 155.908H911.182V174.408H913.182V155.908Z" fill="#F2F2F2"/>
<path d="M904.182 73.9077H764.182V75.9077H904.182V73.9077Z" fill="#F2F2F2"/>
<path d="M866.182 75.4077H864.182V93.9077H866.182V75.4077Z" fill="#F2F2F2"/>
<path d="M805.182 75.4077H803.182V93.9077H805.182V75.4077Z" fill="#F2F2F2"/>
<path d="M1126.18 213.908H986.182V215.908H1126.18V213.908Z" fill="#F2F2F2"/>
<path d="M1026.18 195.908H1024.18V214.408H1026.18V195.908Z" fill="#F2F2F2"/>
<path d="M1087.18 195.908H1085.18V214.408H1087.18V195.908Z" fill="#F2F2F2"/>
<path d="M1078.18 113.908H938.182V115.908H1078.18V113.908Z" fill="#F2F2F2"/>
<path d="M1040.18 115.408H1038.18V133.908H1040.18V115.408Z" fill="#F2F2F2"/>
<path d="M979.182 115.408H977.182V133.908H979.182V115.408Z" fill="#F2F2F2"/>
<path d="M1071.18 553.908H931.182V555.908H1071.18V553.908Z" fill="#F2F2F2"/>
<path d="M971.182 535.908H969.182V554.408H971.182V535.908Z" fill="#F2F2F2"/>
<path d="M1032.18 535.908H1030.18V554.408H1032.18V535.908Z" fill="#F2F2F2"/>
<path d="M1023.18 453.908H883.182V455.908H1023.18V453.908Z" fill="#F2F2F2"/>
<path d="M985.182 455.408H983.182V473.908H985.182V455.408Z" fill="#F2F2F2"/>
<path d="M924.182 455.408H922.182V473.908H924.182V455.408Z" fill="#F2F2F2"/>
<path d="M1007.18 337.908H867.182V339.908H1007.18V337.908Z" fill="#F2F2F2"/>
<path d="M907.182 319.908H905.182V338.408H907.182V319.908Z" fill="#F2F2F2"/>
<path d="M968.182 319.908H966.182V338.408H968.182V319.908Z" fill="#F2F2F2"/>
<path d="M959.182 237.908H819.182V239.908H959.182V237.908Z" fill="#F2F2F2"/>
<path d="M921.182 239.408H919.182V257.908H921.182V239.408Z" fill="#F2F2F2"/>
<path d="M860.182 239.408H858.182V257.908H860.182V239.408Z" fill="#F2F2F2"/>
<path d="M906.182 489.908H766.182V491.908H906.182V489.908Z" fill="#F2F2F2"/>
<path d="M806.182 471.908H804.182V490.408H806.182V471.908Z" fill="#F2F2F2"/>
<path d="M867.182 471.908H865.182V490.408H867.182V471.908Z" fill="#F2F2F2"/>
<path d="M858.182 389.908H718.182V391.908H858.182V389.908Z" fill="#F2F2F2"/>
<path d="M820.182 391.408H818.182V409.908H820.182V391.408Z" fill="#F2F2F2"/>
<path d="M759.182 391.408H757.182V409.908H759.182V391.408Z" fill="#F2F2F2"/>
<path d="M557.434 0H362.934V276H557.434V0Z" fill="#3F3D56"/>
<path d="M806.934 331H612.434V607H806.934V331Z" fill="#3F3D56"/>
<path d="M806.934 0H612.434V276H806.934V0Z" fill="#3F3D56"/>
<path d="M557.434 331H362.934V607H557.434V331Z" fill="#3F3D56"/>
<path d="M1058.93 606.131H95.4243V608.372H1058.93V606.131Z" fill="#2F2E41"/>
<path d="M113.934 591H102.934V684C102.934 684 173.934 707 242.934 684V591H113.934Z" fill="#3F3D56"/>
<path d="M171.934 602C210.042 602 240.934 597.299 240.934 591.5C240.934 585.701 210.042 581 171.934 581C133.826 581 102.934 585.701 102.934 591.5C102.934 597.299 133.826 602 171.934 602Z" fill="#3F3D56"/>
<path opacity="0.1" d="M171.934 602C210.042 602 240.934 597.299 240.934 591.5C240.934 585.701 210.042 581 171.934 581C133.826 581 102.934 585.701 102.934 591.5C102.934 597.299 133.826 602 171.934 602Z" fill="black"/>
<path d="M252.142 479.886C234.736 544.231 175.115 584.081 175.115 584.081C175.115 584.081 143.715 519.608 161.121 455.263C178.528 390.919 238.149 351.068 238.149 351.068C238.149 351.068 269.548 415.541 252.142 479.886Z" fill="#3F3D56"/>
<path d="M93.792 479.886C111.198 544.231 170.819 584.081 170.819 584.081C170.819 584.081 202.219 519.608 184.812 455.263C167.406 390.919 107.785 351.068 107.785 351.068C107.785 351.068 76.3855 415.541 93.792 479.886Z" fill="#F59B66"/>
<path d="M119.369 466.058C167.133 512.554 172.967 584.029 172.967 584.029C172.967 584.029 101.361 580.119 53.5975 533.623C5.83399 487.127 0 415.652 0 415.652C0 415.652 71.606 419.562 119.369 466.058Z" fill="#3F3D56"/>
<path d="M226.564 466.058C178.801 512.554 172.967 584.029 172.967 584.029C172.967 584.029 244.573 580.119 292.336 533.623C340.1 487.127 345.934 415.652 345.934 415.652C345.934 415.652 274.328 419.562 226.564 466.058Z" fill="#3F3D56"/>
<path d="M172.934 373C185.084 373 194.934 363.15 194.934 351C194.934 338.85 185.084 329 172.934 329C160.784 329 150.934 338.85 150.934 351C150.934 363.15 160.784 373 172.934 373Z" fill="#F59B66"/>
<path d="M439.934 151C441.591 151 442.934 149.657 442.934 148C442.934 146.343 441.591 145 439.934 145C438.277 145 436.934 146.343 436.934 148C436.934 149.657 438.277 151 439.934 151Z" fill="white"/>
<path d="M425.934 112C445.264 112 460.934 96.33 460.934 77C460.934 57.67 445.264 42 425.934 42C406.604 42 390.934 57.67 390.934 77C390.934 96.33 406.604 112 425.934 112Z" fill="white"/>
<path d="M481.934 126C482.486 126 482.934 125.552 482.934 125C482.934 124.448 482.486 124 481.934 124C481.382 124 480.934 124.448 480.934 125C480.934 125.552 481.382 126 481.934 126Z" fill="white"/>
<path d="M657.934 176C658.486 176 658.934 175.552 658.934 175C658.934 174.448 658.486 174 657.934 174C657.382 174 656.934 174.448 656.934 175C656.934 175.552 657.382 176 657.934 176Z" fill="white"/>
<path d="M646.934 475C647.486 475 647.934 474.552 647.934 474C647.934 473.448 647.486 473 646.934 473C646.382 473 645.934 473.448 645.934 474C645.934 474.552 646.382 475 646.934 475Z" fill="white"/>
<path d="M435.934 544C436.486 544 436.934 543.552 436.934 543C436.934 542.448 436.486 542 435.934 542C435.382 542 434.934 542.448 434.934 543C434.934 543.552 435.382 544 435.934 544Z" fill="white"/>
<path d="M730.934 211C731.486 211 731.934 210.552 731.934 210C731.934 209.448 731.486 209 730.934 209C730.382 209 729.934 209.448 729.934 210C729.934 210.552 730.382 211 730.934 211Z" fill="white"/>
<path d="M720.934 127C721.486 127 721.934 126.552 721.934 126C721.934 125.448 721.486 125 720.934 125C720.382 125 719.934 125.448 719.934 126C719.934 126.552 720.382 127 720.934 127Z" fill="white"/>
<path d="M686.934 397C687.486 397 687.934 396.552 687.934 396C687.934 395.448 687.486 395 686.934 395C686.382 395 685.934 395.448 685.934 396C685.934 396.552 686.382 397 686.934 397Z" fill="white"/>
<path d="M632.934 247C633.486 247 633.934 246.552 633.934 246C633.934 245.448 633.486 245 632.934 245C632.382 245 631.934 245.448 631.934 246C631.934 246.552 632.382 247 632.934 247Z" fill="white"/>
<path d="M640.934 106C641.486 106 641.934 105.552 641.934 105C641.934 104.448 641.486 104 640.934 104C640.382 104 639.934 104.448 639.934 105C639.934 105.552 640.382 106 640.934 106Z" fill="white"/>
<path d="M731.934 49C732.486 49 732.934 48.5523 732.934 48C732.934 47.4477 732.486 47 731.934 47C731.382 47 730.934 47.4477 730.934 48C730.934 48.5523 731.382 49 731.934 49Z" fill="white"/>
<path d="M437.934 454C438.486 454 438.934 453.552 438.934 453C438.934 452.448 438.486 452 437.934 452C437.382 452 436.934 452.448 436.934 453C436.934 453.552 437.382 454 437.934 454Z" fill="white"/>
<path d="M523.934 530C524.486 530 524.934 529.552 524.934 529C524.934 528.448 524.486 528 523.934 528C523.382 528 522.934 528.448 522.934 529C522.934 529.552 523.382 530 523.934 530Z" fill="white"/>
<path d="M413.934 379C414.486 379 414.934 378.552 414.934 378C414.934 377.448 414.486 377 413.934 377C413.382 377 412.934 377.448 412.934 378C412.934 378.552 413.382 379 413.934 379Z" fill="white"/>
<path d="M438.934 247C439.486 247 439.934 246.552 439.934 246C439.934 245.448 439.486 245 438.934 245C438.382 245 437.934 245.448 437.934 246C437.934 246.552 438.382 247 438.934 247Z" fill="white"/>
<path opacity="0.1" d="M438.934 247L557.434 195.93V209.45L438.934 247Z" fill="white"/>
<path opacity="0.1" d="M806.934 88.4102V130.38L612.434 192.02V172.23L806.934 88.4102Z" fill="white"/>
<path opacity="0.1" d="M496.974 394.98L557.434 361.67V366.3C523.624 382.67 498.154 394.44 496.974 394.98Z" fill="white"/>
<path opacity="0.1" d="M613.114 331H628.364C623.074 333.73 617.764 336.44 612.434 339.13V331.38L613.114 331Z" fill="white"/>
<path opacity="0.1" d="M732.934 265C732.474 267.65 728.984 271.41 723.174 276H712.964L732.934 265Z" fill="white"/>
<path opacity="0.1" d="M806.934 444.36V451.42C755.014 477.33 707.584 499.24 705.974 499.98L806.934 444.36Z" fill="white"/>
<path d="M689.934 454.187C689.933 452.204 689.364 450.262 688.294 448.591C687.225 446.921 685.699 445.592 683.898 444.761L684.218 440.677H661.874L664.472 467.178H682.139L682.375 464.179C684.55 463.563 686.466 462.254 687.83 460.451C689.194 458.647 689.933 456.448 689.934 454.187V454.187ZM682.499 462.598L683.736 446.819C684.809 447.878 685.638 449.158 686.164 450.57C686.69 451.983 686.902 453.493 686.784 454.996C686.667 456.499 686.222 457.957 685.482 459.27C684.741 460.583 683.723 461.719 682.499 462.598Z" fill="#F59B66"/>
<path d="M665.844 432.617C665.844 432.617 692.264 451.489 683.457 459.037C674.651 466.586 657.037 436.391 657.037 436.391L665.844 432.617Z" fill="#FFB9B9"/>
<path d="M543.808 461.554C543.808 461.554 548.841 524.459 550.099 533.265C551.357 542.072 552.615 621.332 555.131 630.139C557.647 638.946 560.164 660.333 560.164 660.333H575.261C575.261 660.333 574.003 621.332 577.777 606.235C581.551 591.138 580.293 549.621 580.293 549.621C580.293 549.621 587.842 475.393 584.067 465.328C580.293 455.263 543.808 461.554 543.808 461.554Z" fill="#FFB9B9"/>
<path d="M563.938 656.559C563.938 656.559 557.647 660.333 557.647 662.849C557.647 665.365 558.905 671.656 557.647 674.172C556.389 676.688 547.583 686.753 552.615 689.269C557.647 691.785 580.293 689.269 580.293 689.269C580.293 689.269 579.035 671.656 577.777 670.398C576.519 669.14 579.035 656.559 579.035 656.559H563.938Z" fill="#2F2E41"/>
<path d="M639.983 460.012C639.983 460.012 641.581 523.098 641.254 531.988C640.927 540.878 647.996 619.832 646.418 628.854C644.84 637.877 644.583 659.41 644.583 659.41L629.569 660.995C629.569 660.995 626.726 622.077 621.388 607.46C616.05 592.842 612.943 551.422 612.943 551.422C612.943 551.422 597.645 478.397 600.342 467.991C603.039 457.586 639.983 460.012 639.983 460.012Z" fill="#FFB9B9"/>
<path d="M640.433 656.053C640.433 656.053 647.085 659.146 647.349 661.648C647.613 664.15 647.022 670.538 648.538 672.909C650.053 675.279 659.867 684.364 655.127 687.394C650.387 690.425 627.602 690.299 627.602 690.299C627.602 690.299 627.004 672.651 628.123 671.268C629.242 669.885 625.419 657.637 625.419 657.637L640.433 656.053Z" fill="#2F2E41"/>
<path d="M561.422 367.196C561.422 367.196 551.357 368.454 547.583 389.842C543.808 411.23 529.969 465.328 541.292 469.102C552.615 472.877 586.584 480.425 587.842 477.909C589.1 475.393 591.616 469.102 591.616 469.102C591.616 469.102 587.842 480.425 592.874 480.425C597.907 480.425 646.972 472.877 645.714 469.102C644.456 465.328 641.94 437.65 641.94 437.65C641.94 437.65 634.391 391.1 626.843 383.552C624.658 381.454 622.962 378.902 621.875 376.075C620.788 373.248 620.336 370.217 620.552 367.196H561.422Z" fill="#2F2E41"/>
<path d="M542.55 357.131C542.55 357.131 558.905 353.357 561.422 358.389C563.938 363.422 555.131 370.97 551.357 370.97C547.583 370.97 541.292 367.196 541.292 367.196L542.55 357.131Z" fill="#FFB9B9"/>
<path d="M600.453 248.543C612.96 248.543 623.098 238.404 623.098 225.897C623.098 213.39 612.96 203.251 600.453 203.251C587.946 203.251 577.807 213.39 577.807 225.897C577.807 238.404 587.946 248.543 600.453 248.543Z" fill="#FFB9B9"/>
<path d="M586.771 241.413C586.771 241.413 584.067 261.516 581.551 261.516C579.035 261.516 600.423 272.839 600.423 272.839L616.778 270.323L621.81 262.774C621.81 262.774 614.006 250.652 614.006 240.587C614.006 230.522 586.771 241.413 586.771 241.413Z" fill="#FFB9B9"/>
<path d="M591.616 261.516C591.616 261.516 587.842 259 586.584 259H576.519C575.261 259 558.905 262.774 558.905 262.774L548.841 319.389C548.841 319.389 566.454 348.325 553.873 370.971C553.873 370.971 557.647 368.455 575.261 369.713C592.874 370.971 624.327 374.745 625.585 374.745C626.843 374.745 626.843 364.68 625.585 362.164C624.327 359.648 626.843 360.906 626.843 354.615C626.843 348.325 630.617 337.002 630.617 337.002L648.23 272.839C648.23 272.839 625.585 260.258 621.81 261.516C618.036 262.774 606.713 266.549 604.197 265.29C601.681 264.032 591.616 261.516 591.616 261.516Z" fill="#F59B66"/>
<path d="M562.68 264.032L558.905 262.774C558.905 262.774 551.357 261.516 542.55 269.064C533.744 276.613 501.033 299.259 501.033 299.259C501.033 299.259 488.452 309.324 492.226 320.646C496.001 331.969 502.291 359.647 521.163 358.389C521.163 358.389 532.485 373.487 538.776 370.97C545.066 368.454 550.099 358.389 546.325 357.131C542.55 355.873 532.485 343.292 532.485 343.292L545.066 319.388H548.841L562.68 311.84L562.68 264.032Z" fill="#F59B66"/>
<path d="M638.166 271.581L648.23 272.839C648.23 272.839 657.037 276.613 655.779 292.969C654.521 309.324 663.328 383.552 659.553 392.358C659.553 392.358 672.134 435.134 669.618 436.392C667.102 437.65 652.005 445.199 653.263 440.166C654.521 435.134 639.424 399.907 639.424 399.907C639.424 399.907 621.81 381.036 629.359 354.616V333.228L638.166 271.581Z" fill="#F59B66"/>
<path d="M659.168 246.231C656.361 242.261 652.909 238.793 649.946 234.938C643.117 226.05 640.755 214.207 631.59 207.392C622.522 200.648 608.132 194.01 596.784 194.542C581.828 195.243 569.965 206.845 559.655 217.701C551.776 225.998 543.898 234.294 536.019 242.59C530.32 248.592 524.41 254.964 522.355 262.982C520.381 270.688 522.308 278.967 525.922 286.053C529.678 293.242 534.947 299.531 541.366 304.489C549.277 293.594 560.362 278.551 560.362 278.551L562.942 315.969C576.346 320.411 590.745 321.284 604.87 320.302L609.054 304.961L613.446 319.453C630.326 317.215 647.284 311.386 657.734 298.214C669.287 283.65 669.9 261.409 659.168 246.231Z" fill="#2F2E41"/>
<path d="M564.905 242.452C562.571 230.73 565.093 218.585 572.935 209.284C587.422 192.102 614.542 191.136 633.51 207.129C641.079 213.439 646.51 221.936 649.059 231.455C646.881 220.918 641.189 211.434 632.916 204.554C613.948 188.562 586.827 189.527 572.34 206.71C563.923 216.694 561.634 229.955 564.905 242.452Z" fill="#2F2E41"/>
<path d="M520.339 297.748C518.004 286.025 520.527 273.881 528.368 264.58C542.855 247.397 569.976 246.432 588.944 262.424C596.513 268.734 601.944 277.232 604.493 286.75C602.314 276.214 596.623 266.729 588.35 259.849C569.382 243.857 542.261 244.822 527.774 262.005C519.356 271.989 517.068 285.25 520.339 297.748Z" fill="#2F2E41"/>
<path d="M621.411 236.166C633.306 234.996 645.144 238.7 653.629 247.418C669.304 263.524 667.598 290.608 649.819 307.912C642.795 314.824 633.805 319.393 624.082 320.994C634.782 319.862 644.78 315.13 652.44 307.574C670.219 290.27 671.925 263.186 656.25 247.08C647.142 237.721 634.17 234.14 621.411 236.166Z" fill="#2F2E41"/>
<path opacity="0.1" d="M677.671 396.405C676.514 396.136 675.303 396.225 674.197 396.659C673.092 397.094 672.144 397.853 671.48 398.838C671.011 399.598 670.674 400.432 670.48 401.304C669.931 403.691 670.041 406.183 670.798 408.513C671.555 410.842 672.931 412.923 674.778 414.531C675.748 415.245 676.666 416.024 677.528 416.865C678.326 417.831 678.88 418.974 679.143 420.199C679.407 421.424 679.372 422.694 679.042 423.903C678.349 426.324 676.904 428.461 674.915 430.006C674.5 430.288 674.154 430.659 673.9 431.092C673.224 432.539 674.969 433.917 675.413 435.452" fill="white"/>
</g>
<defs>
<clipPath id="clip0">
<rect width="1126.18" height="694.222" fill="white"/>
</clipPath>
</defs>
</svg>
