<svg width="673" height="565" viewBox="0 0 673 565" fill="none" xmlns="http://www.w3.org/2000/svg">
<path d="M673 33V109H671V108.19H2V109H0V33C0.009 24.2505 3.488 15.8618 9.675 9.67496C15.862 3.48812 24.25 0.00858837 33 0H640C648.75 0.00858837 657.138 3.48812 663.325 9.67496C669.512 15.8618 672.991 24.2505 673 33Z" fill="#B661B4"/>
<path d="M640 0H33C24.25 0.00858837 15.862 3.48812 9.675 9.67496C3.488 15.8618 0.009 24.2505 0 33V467C0.009 475.75 3.488 484.138 9.675 490.325C15.862 496.512 24.25 499.991 33 500H640C648.75 499.991 657.138 496.512 663.325 490.325C669.512 484.138 672.991 475.75 673 467V33C672.991 24.2505 669.512 15.8618 663.325 9.67496C657.138 3.48812 648.75 0.00858837 640 0ZM671 467C670.99 475.218 667.72 483.097 661.909 488.909C656.097 494.72 648.218 497.99 640 498H33C24.782 497.99 16.903 494.72 11.091 488.909C5.28 483.097 2.01 475.218 2 467V33C2.01 24.7815 5.28 16.9026 11.091 11.0913C16.903 5.27992 24.782 2.01049 33 2H640C648.218 2.01049 656.097 5.27992 661.909 11.0913C667.72 16.9026 670.99 24.7815 671 33V467Z" fill="#3F3D56"/>
<path d="M193.785 277.502H74.808C69.768 277.496 64.936 275.491 61.372 271.927C57.808 268.363 55.803 263.531 55.797 258.49V202.258C55.803 197.217 57.808 192.385 61.372 188.821C64.936 185.257 69.768 183.252 74.808 183.246H193.785C198.825 183.252 203.657 185.257 207.221 188.821C210.786 192.385 212.79 197.217 212.796 202.258V258.49C212.79 263.531 210.786 268.363 207.221 271.927C203.657 275.491 198.825 277.496 193.785 277.502Z" fill="#B661B4"/>
<path d="M396.183 277.502H277.207C272.167 277.496 267.334 275.491 263.77 271.927C260.206 268.363 258.201 263.531 258.196 258.49V202.258C258.201 197.217 260.206 192.385 263.77 188.821C267.334 185.257 272.167 183.252 277.207 183.246H396.183C401.224 183.252 406.056 185.257 409.62 188.821C413.184 192.385 415.189 197.217 415.195 202.258V258.49C415.189 263.531 413.184 268.363 409.62 271.927C406.056 275.491 401.224 277.496 396.183 277.502Z" fill="#B661B4"/>
<path d="M396.183 422.793H277.207C272.014 422.787 267.035 420.722 263.363 417.05C259.691 413.377 257.625 408.399 257.619 403.206V346.972C257.625 341.779 259.691 336.8 263.363 333.128C267.035 329.456 272.014 327.391 277.207 327.385H396.183C401.376 327.391 406.355 329.456 410.027 333.128C413.699 336.8 415.765 341.779 415.771 346.972V403.206C415.765 408.399 413.699 413.377 410.027 417.049C406.355 420.722 401.376 422.787 396.183 422.793Z" fill="#F2F2F2"/>
<path d="M193.394 422.793H74.418C69.225 422.787 64.246 420.722 60.574 417.049C56.902 413.377 54.837 408.399 54.831 403.206V346.972C54.837 341.779 56.902 336.8 60.574 333.128C64.246 329.456 69.225 327.391 74.418 327.385H193.394C198.588 327.391 203.566 329.456 207.238 333.128C210.911 336.8 212.976 341.779 212.982 346.972V403.206C212.976 408.399 210.911 413.377 207.238 417.049C203.566 420.722 198.588 422.787 193.394 422.793Z" fill="#F2F2F2"/>
<path d="M598.582 422.793H479.606C474.412 422.787 469.434 420.722 465.762 417.049C462.089 413.377 460.024 408.399 460.018 403.206V346.972C460.024 341.779 462.089 336.8 465.762 333.128C469.434 329.456 474.412 327.391 479.606 327.385H598.582C603.775 327.391 608.754 329.456 612.426 333.128C616.098 336.8 618.163 341.779 618.169 346.972V403.206C618.163 408.399 616.098 413.377 612.426 417.049C608.754 420.722 603.775 422.787 598.582 422.793Z" fill="#F2F2F2"/>
<path d="M598.582 277.615H479.606C474.412 277.609 469.434 275.544 465.762 271.872C462.089 268.2 460.024 263.221 460.018 258.028V201.795C460.024 196.601 462.089 191.623 465.762 187.951C469.434 184.278 474.412 182.213 479.606 182.207H598.582C603.775 182.213 608.754 184.278 612.426 187.951C616.098 191.623 618.163 196.601 618.169 201.795V258.028C618.163 263.221 616.098 268.2 612.426 271.872C608.754 275.544 603.775 277.609 598.582 277.615Z" fill="#F2F2F2"/>
<path d="M134.297 262.636C152.114 262.636 166.558 248.192 166.558 230.374C166.558 212.556 152.114 198.112 134.297 198.112C116.479 198.112 102.035 212.556 102.035 230.374C102.035 248.192 116.479 262.636 134.297 262.636Z" fill="white"/>
<path d="M131.099 242.682C130.373 242.683 129.666 242.448 129.085 242.013L129.049 241.986L121.468 236.181C121.116 235.912 120.821 235.577 120.599 235.194C120.377 234.811 120.233 234.388 120.175 233.949C120.116 233.51 120.145 233.064 120.259 232.637C120.373 232.209 120.571 231.808 120.84 231.457C121.109 231.105 121.445 230.81 121.828 230.589C122.211 230.368 122.634 230.224 123.073 230.166C123.512 230.108 123.958 230.137 124.386 230.252C124.813 230.366 125.214 230.564 125.565 230.834L130.476 234.599L142.081 219.464C142.35 219.113 142.686 218.819 143.069 218.597C143.452 218.376 143.875 218.232 144.313 218.174C144.752 218.117 145.197 218.146 145.625 218.26C146.052 218.374 146.453 218.572 146.804 218.841L146.732 218.939L146.806 218.842C147.514 219.387 147.977 220.189 148.094 221.075C148.211 221.96 147.972 222.856 147.429 223.565L133.778 241.367C133.463 241.777 133.057 242.109 132.592 242.337C132.127 242.565 131.616 242.683 131.099 242.682Z" fill="#B661B4"/>
<path d="M337.271 262.173C355.089 262.173 369.533 247.729 369.533 229.911C369.533 212.094 355.089 197.649 337.271 197.649C319.453 197.649 305.009 212.094 305.009 229.911C305.009 247.729 319.453 262.173 337.271 262.173Z" fill="white"/>
<path d="M334.073 242.218C333.347 242.219 332.641 241.985 332.06 241.549L332.024 241.522L324.442 235.717C323.733 235.174 323.269 234.371 323.152 233.486C323.034 232.6 323.274 231.704 323.817 230.995C324.361 230.286 325.163 229.821 326.049 229.704C326.935 229.587 327.831 229.826 328.54 230.37L333.451 234.135L345.056 219C345.325 218.649 345.661 218.355 346.044 218.134C346.427 217.912 346.849 217.768 347.288 217.711C347.726 217.653 348.172 217.682 348.599 217.796C349.027 217.91 349.427 218.108 349.778 218.377L349.706 218.475L349.78 218.378C350.488 218.923 350.952 219.726 351.068 220.611C351.185 221.496 350.946 222.392 350.404 223.101L336.753 240.903C336.437 241.314 336.031 241.646 335.567 241.874C335.102 242.102 334.591 242.219 334.073 242.218Z" fill="#B661B4"/>
<path d="M555.312 382.15C556.372 380.991 557.165 379.613 557.635 378.115C558.105 376.616 558.241 375.033 558.033 373.476C557.824 371.92 557.278 370.427 556.43 369.105C555.583 367.783 554.456 366.662 553.129 365.822L535.118 269.649L513.214 277.772L537.806 369.753C536.543 372.076 536.176 374.781 536.774 377.357C537.372 379.932 538.895 382.199 541.053 383.727C543.211 385.255 545.854 385.938 548.482 385.648C551.11 385.357 553.54 384.112 555.312 382.15Z" fill="#A0616A"/>
<path d="M380.527 235.4C380.582 235.997 380.589 236.598 380.549 237.196L423.139 269.976L435.217 265.016L445.084 282.265L424.556 293.123C422.898 294 421 294.316 419.147 294.022C417.294 293.729 415.586 292.842 414.28 291.496L371.709 247.606C369.455 248.115 367.1 247.925 364.957 247.062C362.815 246.199 360.985 244.705 359.712 242.777C358.44 240.849 357.784 238.579 357.833 236.27C357.882 233.96 358.632 231.72 359.985 229.848C361.338 227.975 363.229 226.559 365.406 225.787C367.583 225.016 369.944 224.925 372.174 225.528C374.404 226.131 376.398 227.398 377.89 229.162C379.382 230.925 380.302 233.101 380.527 235.4Z" fill="#A0616A"/>
<path d="M480.028 552.849H467.769L461.936 515.561L480.031 515.562L480.028 552.849Z" fill="#A0616A"/>
<path d="M483.155 564.733L443.624 564.732V564.232C443.624 562.211 444.022 560.211 444.796 558.344C445.569 556.477 446.702 554.781 448.131 553.352C449.56 551.923 451.256 550.79 453.123 550.017C454.989 549.244 456.99 548.846 459.011 548.846H459.012L483.156 548.847L483.155 564.733Z" fill="#2F2E41"/>
<path d="M526.028 552.849H513.769L507.936 515.561L526.031 515.562L526.028 552.849Z" fill="#A0616A"/>
<path d="M529.155 564.733L489.624 564.732V564.232C489.624 562.211 490.022 560.211 490.796 558.344C491.569 556.477 492.702 554.781 494.131 553.352C495.56 551.923 497.256 550.79 499.123 550.017C500.989 549.244 502.99 548.846 505.011 548.846H505.012L529.156 548.847L529.155 564.733Z" fill="#2F2E41"/>
<path d="M465.223 545.479C464.104 545.481 463.024 545.064 462.197 544.31C461.369 543.557 460.852 542.522 460.748 541.407L450.065 397.718L450.569 397.677L524.09 391.634L524.11 392.156L529.955 541.007C529.977 541.612 529.878 542.215 529.662 542.78C529.446 543.345 529.119 543.861 528.699 544.297C528.279 544.733 527.775 545.079 527.219 545.316C526.662 545.553 526.063 545.675 525.458 545.675H511.042C509.966 545.68 508.924 545.297 508.107 544.596C507.29 543.896 506.753 542.924 506.595 541.859L487.018 421.614C486.999 421.49 486.934 421.378 486.836 421.299C486.737 421.221 486.613 421.183 486.488 421.192C486.363 421.201 486.245 421.257 486.159 421.349C486.074 421.44 486.025 421.561 486.024 421.687L485.136 540.41C485.127 541.557 484.681 542.657 483.889 543.486C483.097 544.315 482.018 544.811 480.873 544.872L465.464 545.473C465.384 545.478 465.303 545.479 465.223 545.479Z" fill="#2F2E41"/>
<path d="M477.772 216.125C491.337 216.125 502.333 205.129 502.333 191.564C502.333 177.999 491.337 167.003 477.772 167.003C464.207 167.003 453.211 177.999 453.211 191.564C453.211 205.129 464.207 216.125 477.772 216.125Z" fill="#A0616A"/>
<path d="M482.527 406.882C471.791 406.85 461.108 405.39 450.758 402.54C449.762 402.25 448.897 401.625 448.307 400.772C447.718 399.918 447.441 398.887 447.522 397.853C450.829 348.16 451.606 309.596 444.653 282.914C441.69 271.542 443.035 259.565 448.344 250.054C456.334 235.741 471.02 227.03 486.685 227.331C487.433 227.345 488.189 227.372 488.953 227.411C512.726 228.635 531.25 250.141 530.247 275.353L525.465 395.521C525.448 396.398 525.171 397.25 524.67 397.97C524.169 398.689 523.466 399.244 522.65 399.565C509.822 404.391 496.232 406.869 482.527 406.882Z" fill="#3F3D56"/>
<path d="M448.695 292.141L430.298 269.596C429.774 268.955 429.395 268.208 429.186 267.407C428.977 266.606 428.944 265.769 429.087 264.954C429.231 264.138 429.549 263.364 430.019 262.682C430.489 262.001 431.101 261.428 431.812 261.005L456.733 246.155C460.03 243.494 464.248 242.25 468.461 242.695C472.674 243.14 476.538 245.237 479.207 248.527C481.876 251.817 483.131 256.031 482.697 260.245C482.264 264.46 480.176 268.33 476.893 271.007L457.416 292.38C456.858 292.992 456.175 293.476 455.413 293.8C454.651 294.124 453.828 294.28 453.001 294.257C452.173 294.235 451.36 294.034 450.617 293.669C449.874 293.303 449.219 292.782 448.695 292.141Z" fill="#3F3D56"/>
<path d="M506.57 289.312C505.814 288.974 505.14 288.477 504.594 287.854C504.048 287.232 503.643 286.499 503.406 285.706L495.124 258.001C493.326 254.164 493.123 249.771 494.56 245.786C495.996 241.8 498.955 238.546 502.787 236.739C506.619 234.932 511.011 234.718 515 236.144C518.99 237.571 522.25 240.522 524.067 244.349L540.084 268.538C540.541 269.228 540.844 270.009 540.972 270.827C541.1 271.645 541.05 272.48 540.826 273.278C540.602 274.075 540.209 274.814 539.673 275.445C539.137 276.077 538.472 276.585 537.722 276.936L511.368 289.272C510.618 289.624 509.801 289.809 508.973 289.816C508.145 289.823 507.326 289.651 506.57 289.312Z" fill="#3F3D56"/>
<path d="M489.909 211.717L471.703 207.55C469.825 207.121 467.569 206.301 467.308 204.392C466.958 201.827 470.65 200.04 470.309 197.473C469.98 194.987 466.617 194.667 464.219 193.933C461.986 193.15 460.145 191.528 459.086 189.412C458.028 187.295 457.834 184.85 458.547 182.593C455.952 186.249 450.025 186.562 446.66 183.6C443.295 180.638 442.65 175.264 444.67 171.262C445.762 169.297 447.302 167.617 449.166 166.359C451.029 165.1 453.163 164.3 455.394 164.022C459.881 163.513 464.416 164.359 468.418 166.45C468.684 163.616 472.222 162.468 475.068 162.442C480.979 162.511 486.722 164.421 491.498 167.907C496.273 171.392 499.843 176.28 501.711 181.889C505.203 193.141 502.867 205.475 493.097 212.059L489.909 211.717Z" fill="#2F2E41"/>
</svg>
