<svg width="116" height="25" viewBox="0 0 116 25" fill="none" xmlns="http://www.w3.org/2000/svg">
<path d="M49.232 21C49.0613 21 48.912 20.9413 48.784 20.824C48.6667 20.696 48.608 20.5467 48.608 20.376V9.128C48.608 8.94667 48.6667 8.79733 48.784 8.68C48.9013 8.56267 49.0507 8.504 49.232 8.504H56.736C56.9173 8.504 57.0667 8.56267 57.184 8.68C57.3013 8.78667 57.36 8.93067 57.36 9.112C57.36 9.272 57.3013 9.41067 57.184 9.528C57.0667 9.64533 56.9173 9.704 56.736 9.704H49.856V14.12H54.864C55.0453 14.12 55.1947 14.1787 55.312 14.296C55.4293 14.4133 55.488 14.5573 55.488 14.728C55.488 14.8987 55.4293 15.0427 55.312 15.16C55.1947 15.2773 55.0453 15.336 54.864 15.336H49.856V20.376C49.856 20.5467 49.7973 20.696 49.68 20.824C49.5627 20.9413 49.4133 21 49.232 21ZM60.32 21C60.128 21 59.9733 20.9467 59.856 20.84C59.7493 20.7227 59.696 20.568 59.696 20.376V12.872C59.696 12.68 59.7493 12.5307 59.856 12.424C59.9733 12.3067 60.128 12.248 60.32 12.248C60.5013 12.248 60.6453 12.3067 60.752 12.424C60.8693 12.5307 60.928 12.68 60.928 12.872V20.376C60.928 20.568 60.8693 20.7227 60.752 20.84C60.6453 20.9467 60.5013 21 60.32 21ZM60.304 10.584C60.0693 10.584 59.8667 10.4987 59.696 10.328C59.5253 10.1573 59.44 9.94933 59.44 9.704C59.44 9.43733 59.5253 9.22933 59.696 9.08C59.8773 8.92 60.0853 8.84 60.32 8.84C60.544 8.84 60.7413 8.92 60.912 9.08C61.0933 9.22933 61.184 9.43733 61.184 9.704C61.184 9.94933 61.0987 10.1573 60.928 10.328C60.7573 10.4987 60.5493 10.584 60.304 10.584ZM64.689 21C64.497 21 64.3423 20.9467 64.225 20.84C64.1183 20.7227 64.065 20.5733 64.065 20.392V12.872C64.065 12.68 64.1183 12.5307 64.225 12.424C64.3423 12.3067 64.497 12.248 64.689 12.248C64.8703 12.248 65.0143 12.3067 65.121 12.424C65.2383 12.5307 65.297 12.68 65.297 12.872V13.416C65.6383 13.0213 66.0597 12.712 66.561 12.488C67.073 12.264 67.6223 12.152 68.209 12.152C68.9663 12.152 69.6437 12.312 70.241 12.632C70.8383 12.9413 71.3077 13.4 71.649 14.008C72.001 14.616 72.177 15.3573 72.177 16.232V20.392C72.177 20.5627 72.1183 20.7067 72.001 20.824C71.8837 20.9413 71.7397 21 71.569 21C71.3877 21 71.2383 20.9413 71.121 20.824C71.0037 20.7067 70.945 20.5627 70.945 20.392V16.232C70.945 15.24 70.6677 14.5093 70.113 14.04C69.569 13.56 68.8917 13.32 68.081 13.32C67.5583 13.32 67.0837 13.4213 66.657 13.624C66.241 13.8267 65.9103 14.104 65.665 14.456C65.4197 14.808 65.297 15.208 65.297 15.656V20.392C65.297 20.5733 65.2383 20.7227 65.121 20.84C65.0143 20.9467 64.8703 21 64.689 21ZM78.8611 21.08C77.9971 21.08 77.2291 20.8933 76.5571 20.52C75.8958 20.136 75.3731 19.608 74.9891 18.936C74.6158 18.264 74.4291 17.496 74.4291 16.632C74.4291 15.7573 74.6051 14.9893 74.9571 14.328C75.3198 13.656 75.8158 13.128 76.4451 12.744C77.0745 12.36 77.7998 12.168 78.6211 12.168C79.4318 12.168 80.1358 12.3547 80.7331 12.728C81.3411 13.0907 81.8105 13.5973 82.1411 14.248C82.4718 14.8987 82.6371 15.64 82.6371 16.472C82.6371 16.6427 82.5838 16.7813 82.4771 16.888C82.3705 16.984 82.2318 17.032 82.0611 17.032H75.5971C75.6611 17.608 75.8371 18.12 76.1251 18.568C76.4131 19.0053 76.7918 19.352 77.2611 19.608C77.7305 19.8533 78.2638 19.976 78.8611 19.976C79.2451 19.976 79.6291 19.912 80.0131 19.784C80.4078 19.6453 80.7225 19.4747 80.9571 19.272C81.0745 19.176 81.2078 19.128 81.3571 19.128C81.5065 19.1173 81.6345 19.1547 81.7411 19.24C81.8798 19.368 81.9491 19.5067 81.9491 19.656C81.9598 19.8053 81.9011 19.9333 81.7731 20.04C81.4211 20.3387 80.9731 20.5893 80.4291 20.792C79.8851 20.984 79.3625 21.08 78.8611 21.08ZM78.6211 13.272C77.7998 13.272 77.1225 13.528 76.5891 14.04C76.0558 14.5413 75.7358 15.1973 75.6291 16.008H81.4851C81.3998 15.1973 81.1011 14.5413 80.5891 14.04C80.0878 13.528 79.4318 13.272 78.6211 13.272Z" fill="black"/>
<path d="M87.8413 21.16C87.0946 21.16 86.4279 21 85.8413 20.68C85.2653 20.3493 84.8119 19.896 84.4813 19.32C84.1613 18.7333 84.0013 18.0667 84.0013 17.32C84.0013 17.0747 84.0813 16.8773 84.2413 16.728C84.4013 16.568 84.5986 16.488 84.8333 16.488C85.0786 16.488 85.2759 16.568 85.4253 16.728C85.5853 16.8773 85.6653 17.0747 85.6653 17.32C85.6653 18.0027 85.8679 18.5627 86.2733 19C86.6786 19.4373 87.2013 19.656 87.8413 19.656C88.4813 19.656 89.0039 19.4373 89.4093 19C89.8253 18.5627 90.0333 18.0027 90.0333 17.32V9.336C90.0333 9.09067 90.1079 8.89333 90.2573 8.744C90.4173 8.584 90.6146 8.504 90.8493 8.504C91.0946 8.504 91.2973 8.584 91.4573 8.744C91.6173 8.89333 91.6973 9.09067 91.6973 9.336V17.32C91.6973 18.0667 91.5319 18.7333 91.2013 19.32C90.8706 19.896 90.4173 20.3493 89.8413 20.68C89.2653 21 88.5986 21.16 87.8413 21.16ZM98.7049 21.064C97.8409 21.064 97.0782 20.8773 96.4169 20.504C95.7555 20.12 95.2329 19.5973 94.8489 18.936C94.4755 18.264 94.2889 17.496 94.2889 16.632C94.2889 15.7573 94.4755 14.9893 94.8489 14.328C95.2329 13.656 95.7555 13.1333 96.4169 12.76C97.0782 12.376 97.8409 12.184 98.7049 12.184C99.5582 12.184 100.316 12.376 100.977 12.76C101.638 13.1333 102.156 13.656 102.529 14.328C102.913 14.9893 103.105 15.7573 103.105 16.632C103.105 17.496 102.918 18.264 102.545 18.936C102.172 19.5973 101.654 20.12 100.993 20.504C100.332 20.8773 99.5689 21.064 98.7049 21.064ZM98.7049 19.624C99.2595 19.624 99.7502 19.496 100.177 19.24C100.604 18.984 100.934 18.632 101.169 18.184C101.414 17.736 101.537 17.2187 101.537 16.632C101.537 16.0453 101.414 15.528 101.169 15.08C100.934 14.6213 100.604 14.264 100.177 14.008C99.7502 13.752 99.2595 13.624 98.7049 13.624C98.1502 13.624 97.6595 13.752 97.2329 14.008C96.8062 14.264 96.4702 14.6213 96.2249 15.08C95.9795 15.528 95.8569 16.0453 95.8569 16.632C95.8569 17.2187 95.9795 17.736 96.2249 18.184C96.4702 18.632 96.8062 18.984 97.2329 19.24C97.6595 19.496 98.1502 19.624 98.7049 19.624ZM109.934 21.064C109.102 21.064 108.355 20.872 107.694 20.488C107.032 20.0933 106.51 19.56 106.126 18.888C105.742 18.216 105.544 17.4587 105.534 16.616V9.32C105.534 9.07467 105.608 8.87733 105.758 8.728C105.918 8.57867 106.115 8.504 106.35 8.504C106.595 8.504 106.792 8.57867 106.942 8.728C107.091 8.87733 107.166 9.07467 107.166 9.32V13.64C107.539 13.192 107.987 12.84 108.51 12.584C109.043 12.3173 109.624 12.184 110.254 12.184C111.032 12.184 111.731 12.3813 112.35 12.776C112.968 13.16 113.454 13.688 113.806 14.36C114.168 15.0213 114.35 15.7733 114.35 16.616C114.35 17.4587 114.152 18.216 113.758 18.888C113.374 19.56 112.851 20.0933 112.19 20.488C111.528 20.872 110.776 21.064 109.934 21.064ZM109.934 19.624C110.478 19.624 110.963 19.496 111.39 19.24C111.816 18.9733 112.152 18.6107 112.398 18.152C112.654 17.6933 112.782 17.1813 112.782 16.616C112.782 16.04 112.654 15.528 112.398 15.08C112.152 14.632 111.816 14.28 111.39 14.024C110.963 13.7573 110.478 13.624 109.934 13.624C109.4 13.624 108.915 13.7573 108.478 14.024C108.051 14.28 107.715 14.632 107.47 15.08C107.224 15.528 107.102 16.04 107.102 16.616C107.102 17.1813 107.224 17.6933 107.47 18.152C107.715 18.6107 108.051 18.9733 108.478 19.24C108.915 19.496 109.4 19.624 109.934 19.624Z" fill="#B661B4"/>
<g clip-path="url(#clip0)">
<g clip-path="url(#clip1)">
<rect x="1.52588e-05" y="3.16809" width="33.3214" height="20.6593" rx="2.9619" fill="#B661B4"/>
<path d="M12.2857 4.14414C15.724 -0.49831 17.6341 -0.550108 21.0233 4.14414" stroke="#B661B4" stroke-width="0.7775"/>
<path d="M24.1429 13.5C28.9059 13.4293 30.8839 12.5235 33.5893 8.96429" stroke="white" stroke-width="0.7775" stroke-linecap="round"/>
</g>
<g clip-path="url(#clip2)">
<rect x="1.52588e-05" y="3.16809" width="33.3214" height="20.6593" rx="2.9619" fill="#B661B4"/>
<path d="M12.2857 4.14414C15.724 -0.49831 17.6341 -0.550108 21.0233 4.14414" stroke="#B661B4" stroke-width="0.7775"/>
<path d="M24.1429 13.5C28.9059 13.4293 30.8839 12.5235 33.5893 8.96429" stroke="white" stroke-width="0.7775" stroke-linecap="round"/>
</g>
<path fill-rule="evenodd" clip-rule="evenodd" d="M12.5647 15.554C13.1084 15.554 13.6299 15.338 14.0144 14.9536C14.3989 14.5691 14.6149 14.0476 14.6149 13.5038C14.6149 12.9601 14.3989 12.4386 14.0144 12.0541C13.6299 11.6697 13.1084 11.4537 12.5647 11.4537C12.0209 11.4537 11.4995 11.6697 11.115 12.0541C10.7305 12.4386 10.5145 12.9601 10.5145 13.5038C10.5145 14.0476 10.7305 14.5691 11.115 14.9536C11.4995 15.338 12.0209 15.554 12.5647 15.554ZM12.5647 16.5791C13.3803 16.5791 14.1625 16.2551 14.7392 15.6784C15.316 15.1017 15.64 14.3195 15.64 13.5038C15.64 12.6882 15.316 11.906 14.7392 11.3293C14.1625 10.7526 13.3803 10.4286 12.5647 10.4286C11.7491 10.4286 10.9669 10.7526 10.3901 11.3293C9.8134 11.906 9.4894 12.6882 9.4894 13.5038C9.4894 14.3195 9.8134 15.1017 10.3901 15.6784C10.9669 16.2551 11.7491 16.5791 12.5647 16.5791ZM20.7655 15.554C21.3092 15.554 21.8307 15.338 22.2152 14.9536C22.5996 14.5691 22.8157 14.0476 22.8157 13.5038C22.8157 12.9601 22.5996 12.4386 22.2152 12.0541C21.8307 11.6697 21.3092 11.4537 20.7655 11.4537C20.2217 11.4537 19.7002 11.6697 19.3158 12.0541C18.9313 12.4386 18.7153 12.9601 18.7153 13.5038C18.7153 14.0476 18.9313 14.5691 19.3158 14.9536C19.7002 15.338 20.2217 15.554 20.7655 15.554ZM20.7655 16.5791C21.5811 16.5791 22.3633 16.2551 22.94 15.6784C23.5167 15.1017 23.8407 14.3195 23.8407 13.5038C23.8407 12.6882 23.5167 11.906 22.94 11.3293C22.3633 10.7526 21.5811 10.4286 20.7655 10.4286C19.9498 10.4286 19.1676 10.7526 18.5909 11.3293C18.0142 11.906 17.6902 12.6882 17.6902 13.5038C17.6902 14.3195 18.0142 15.1017 18.5909 15.6784C19.1676 16.2551 19.9498 16.5791 20.7655 16.5791Z" fill="white"/>
<path fill-rule="evenodd" clip-rule="evenodd" d="M16.6651 12.4788C16.3932 12.4788 16.1325 12.5868 15.9402 12.779C15.748 12.9713 15.64 13.232 15.64 13.5039H14.6149C14.6149 12.9601 14.8309 12.4386 15.2154 12.0542C15.5998 11.6697 16.1213 11.4537 16.6651 11.4537C17.2088 11.4537 17.7303 11.6697 18.1148 12.0542C18.4993 12.4386 18.7153 12.9601 18.7153 13.5039H17.6902C17.6902 13.232 17.5822 12.9713 17.3899 12.779C17.1977 12.5868 16.9369 12.4788 16.6651 12.4788ZM8.46429 13.5039C8.46429 13.3679 8.51829 13.2376 8.61442 13.1414C8.71054 13.0453 8.84091 12.9913 8.97684 12.9913H10.0019V14.0164H8.97684C8.84091 14.0164 8.71054 13.9624 8.61442 13.8663C8.51829 13.7702 8.46429 13.6398 8.46429 13.5039ZM24.3533 14.0164H23.3282V12.9913H24.3533C24.4892 12.9913 24.6196 13.0453 24.7157 13.1414C24.8118 13.2376 24.8658 13.3679 24.8658 13.5039C24.8658 13.6398 24.8118 13.7702 24.7157 13.8663C24.6196 13.9624 24.4892 14.0164 24.3533 14.0164Z" fill="white"/>
<path d="M9.14288 13.5714C4.45064 13.5063 2.34374 12.6383 -0.321411 9.35715" stroke="white" stroke-width="0.7775" stroke-linecap="round"/>
<circle cx="12.5037" cy="13.486" r="1.26786" fill="black"/>
<circle cx="12.5037" cy="13.486" r="1.26786" fill="black"/>
<circle cx="12.9464" cy="13.125" r="0.589286" fill="white"/>
<circle cx="20.7322" cy="13.4821" r="1.26786" fill="black"/>
<circle cx="21.1749" cy="13.1212" r="0.589286" fill="white"/>
</g>
<defs>
<clipPath id="clip0">
<rect width="33.5714" height="25" fill="white"/>
</clipPath>
<clipPath id="clip1">
<rect width="33.3214" height="23.8274" fill="white"/>
</clipPath>
<clipPath id="clip2">
<rect width="33.3214" height="23.8274" fill="white"/>
</clipPath>
</defs>
</svg>
