<svg width="17" height="22" viewBox="0 0 17 22" fill="none" xmlns="http://www.w3.org/2000/svg">
<path d="M1.21429 19.5556C1.21429 20.9 2.30714 22 3.64286 22H13.3571C14.6929 22 15.7857 20.9 15.7857 19.5556V4.88889H1.21429V19.5556ZM15.7857 1.22222H12.75L11.8879 0.354444C11.6693 0.134444 11.3536 0 11.0379 0H5.96214C5.64643 0 5.33071 0.134444 5.11214 0.354444L4.25 1.22222H1.21429C0.546429 1.22222 0 1.77222 0 2.44444C0 3.11667 0.546429 3.66667 1.21429 3.66667H15.7857C16.4536 3.66667 17 3.11667 17 2.44444C17 1.77222 16.4536 1.22222 15.7857 1.22222Z" fill="#F59B66"/>
</svg>
