<svg width="32" height="32" viewBox="0 0 32 32" fill="none" xmlns="http://www.w3.org/2000/svg">
<path d="M30 30C30 31.0001 22 31.0001 22 30C22 29 22 5.00004 22 4.00004C22 3.00004 30 2.99993 30 4.00004C30 5.00015 30 29 30 30Z" fill="#B661B4"/>
<path d="M20 29.9999C20 31.4998 12 30.9998 12 29.9999C12 29 12 13.4999 12 11.9999C12 10.4999 20 11 20 11.9999C20 12.9998 20 28.5 20 29.9999Z" fill="#B661B4"/>
<path d="M10 30C10 31.0001 2 31.0001 2 30C2 29 2 19 2 18C2 17 10 16.9999 10 18C10 19.0001 10 29 10 30Z" fill="#B661B4"/>
</svg>
