<svg width="28" height="28" viewBox="0 0 28 28" fill="none" xmlns="http://www.w3.org/2000/svg">
<path d="M28 27C28 28 20 28 20 27C20 26 20 1.99999 20 0.999995C20 -5.06639e-06 28 8.52346e-06 28 0.999995C28 1.99998 28 26 28 27Z" fill="#B661B4"/>
<path d="M18 27C18 28.0001 10 28.0001 10 27C10 26 10 10 10 9.00004C10 8.00004 18 7.99993 18 9.00004C18 10.0001 18 26 18 27Z" fill="#B661B4"/>
<path d="M8 27C8 28.0001 0 28.0001 0 27C0 26 0 16 0 15C0 14 8 13.9999 8 15C8 16.0001 8 26 8 27Z" fill="#B661B4"/>
</svg>
