<svg width="23" height="23" viewBox="0 0 32 32" fill="none" xmlns="http://www.w3.org/2000/svg">
<path d="M16 21.3334C18.9455 21.3334 21.3333 18.9456 21.3333 16.0001C21.3333 13.0546 18.9455 10.6667 16 10.6667C13.0545 10.6667 10.6667 13.0546 10.6667 16.0001C10.6667 18.9456 13.0545 21.3334 16 21.3334Z" fill="#B661B4"/>
<path d="M17.3333 5.42541V2.66675H14.6667V5.42541C12.3204 5.72499 10.14 6.79498 8.46743 8.46751C6.7949 10.14 5.72491 12.3205 5.42534 14.6667H2.66667V17.3334H5.42534C5.72448 19.6799 6.79432 21.8605 8.46693 23.5332C10.1395 25.2058 12.3202 26.2756 14.6667 26.5747V29.3334H17.3333V26.5747C19.6799 26.2758 21.8607 25.2061 23.5333 23.5334C25.206 21.8607 26.2758 19.6799 26.5747 17.3334H29.3333V14.6667H26.5747C26.2755 12.3203 25.2057 10.1396 23.5331 8.46701C21.8605 6.7944 19.6798 5.72455 17.3333 5.42541ZM16 24.0001C11.588 24.0001 8.00001 20.4121 8.00001 16.0001C8.00001 11.5881 11.588 8.00008 16 8.00008C20.412 8.00008 24 11.5881 24 16.0001C24 20.4121 20.412 24.0001 16 24.0001Z" fill="#B661B4"/>
</svg>
