<svg width="22" height="21" viewBox="0 0 22 21" fill="none" xmlns="http://www.w3.org/2000/svg">
<g clip-path="url(#clip0)">
<path d="M17.4356 10.4291C19.9179 10.4291 21.9301 9.26974 21.9301 7.83956C21.9301 6.40939 19.9179 5.25 17.4356 5.25C14.9534 5.25 12.9412 6.40939 12.9412 7.83956C12.9412 9.26974 14.9534 10.4291 17.4356 10.4291Z" fill="#B661B4"/>
<path fill-rule="evenodd" clip-rule="evenodd" d="M17.5029 11.9187C14.2884 11.9187 13.0085 10.5524 13.0085 9.76099V13.1512C13.0085 14.5818 15.0208 15.7394 17.5029 15.7394C19.9877 15.7394 22 14.5818 22 13.1512V9.84236C22 10.6351 20.7188 11.9187 17.5029 11.9187Z" fill="#B661B4"/>
<path fill-rule="evenodd" clip-rule="evenodd" d="M17.5029 17.1569C14.6274 17.1569 13.0085 15.8431 13.0085 15.0517V18.4104C13.0085 19.841 15.0208 20.9999 17.5029 20.9999C19.9877 20.9999 22 19.841 22 18.4104V15.011C22 15.8024 20.3798 17.1569 17.5029 17.1569Z" fill="#B661B4"/>
<path d="M6.38906 5.17913C9.20292 5.17913 11.484 4.01974 11.484 2.58956C11.484 1.15939 9.20292 0 6.38906 0C3.5752 0 1.29412 1.15939 1.29412 2.58956C1.29412 4.01974 3.5752 5.17913 6.38906 5.17913Z" fill="#B661B4"/>
<path fill-rule="evenodd" clip-rule="evenodd" d="M6.55083 6.66874C2.90789 6.66874 1.45589 5.30242 1.45589 4.51099V7.90117C1.45589 9.3318 3.73742 10.4894 6.55083 10.4894C9.36683 10.4894 11.6471 9.3318 11.6471 7.90117V4.59236C11.6471 5.38511 10.1938 6.66874 6.55083 6.66874Z" fill="#B661B4"/>
<path fill-rule="evenodd" clip-rule="evenodd" d="M6.55083 11.9069C3.29095 11.9069 1.45589 10.5931 1.45589 9.80167V13.1604C1.45589 14.591 3.73742 15.7499 6.55083 15.7499C9.36683 15.7499 11.6471 14.591 11.6471 13.1604V9.76099C11.6471 10.5524 9.80942 11.9069 6.55083 11.9069Z" fill="#B661B4"/>
<path fill-rule="evenodd" clip-rule="evenodd" d="M6.55083 17.1569C3.29095 17.1569 1.45589 15.8431 1.45589 15.0517V18.4104C1.45589 19.841 3.73742 20.9999 6.55083 20.9999C9.36683 20.9999 11.6471 19.841 11.6471 18.4104V15.011C11.6471 15.8024 9.80942 17.1569 6.55083 17.1569Z" fill="#B661B4"/>
</g>
<defs>
<clipPath id="clip0">
<rect width="22" height="21" fill="white"/>
</clipPath>
</defs>
</svg>
