<svg width="25" height="25" viewBox="0 0 25 25" fill="none" xmlns="http://www.w3.org/2000/svg">
<path d="M24.2155 5.46546L19.5345 0.784542C19.0322 0.282212 18.3509 3.71471e-06 17.6405 0H2.67857C1.19922 0 0 1.19922 0 2.67857V22.3214C0 23.8008 1.19922 25 2.67857 25H22.3214C23.8008 25 25 23.8008 25 22.3214V7.35949C25 6.64909 24.7178 5.96778 24.2155 5.46546ZM12.5 21.4286C10.5276 21.4286 8.92857 19.8296 8.92857 17.8571C8.92857 15.8847 10.5276 14.2857 12.5 14.2857C14.4724 14.2857 16.0714 15.8847 16.0714 17.8571C16.0714 19.8296 14.4724 21.4286 12.5 21.4286ZM17.8571 4.43527V10.0446C17.8571 10.4145 17.5573 10.7143 17.1875 10.7143H4.24107C3.87126 10.7143 3.57143 10.4145 3.57143 10.0446V4.24107C3.57143 3.87126 3.87126 3.57143 4.24107 3.57143H16.9933C17.1709 3.57143 17.3412 3.64196 17.4668 3.76758L17.661 3.96177C17.7232 4.02395 17.7725 4.09776 17.8062 4.17901C17.8398 4.26025 17.8572 4.34733 17.8571 4.43527Z" fill="#F59B66"/>
</svg>
