<svg width="25" height="25" viewBox="0 0 25 25" fill="none" xmlns="http://www.w3.org/2000/svg">
<path d="M12.5 1.5625C6.45996 1.5625 1.5625 6.45996 1.5625 12.5C1.5625 18.54 6.45996 23.4375 12.5 23.4375C18.54 23.4375 23.4375 18.54 23.4375 12.5C23.4375 6.45996 18.54 1.5625 12.5 1.5625ZM16.8091 15.8618L16.1108 16.814C16.0957 16.8347 16.0765 16.8522 16.0545 16.8655C16.0326 16.8789 16.0082 16.8877 15.9827 16.8916C15.9573 16.8954 15.9314 16.8942 15.9065 16.888C15.8815 16.8818 15.8581 16.8708 15.8374 16.8555L11.7993 13.9111C11.7742 13.8931 11.7537 13.8692 11.7397 13.8416C11.7257 13.814 11.7185 13.7834 11.7188 13.7524V7.03125C11.7188 6.92383 11.8066 6.83594 11.9141 6.83594H13.0884C13.1958 6.83594 13.2837 6.92383 13.2837 7.03125V13.0737L16.7651 15.5908C16.853 15.6519 16.8726 15.7739 16.8091 15.8618Z" fill="#B661B4"/>
</svg>
