<svg width="28" height="28" viewBox="0 0 27 27" fill="none" xmlns="http://www.w3.org/2000/svg">
<path d="M13.5 15.1875C12.6656 15.1875 11.85 14.9401 11.1562 14.4765C10.4624 14.013 9.92169 13.3541 9.60239 12.5832C9.28308 11.8123 9.19953 10.9641 9.36231 10.1457C9.5251 9.32736 9.92689 8.57565 10.5169 7.98565C11.1069 7.39564 11.8586 6.99385 12.677 6.83106C13.4953 6.66828 14.3436 6.75183 15.1144 7.07114C15.8853 7.39044 16.5442 7.93117 17.0078 8.62494C17.4713 9.31871 17.7188 10.1344 17.7188 10.9688C17.7174 12.0872 17.2725 13.1595 16.4816 13.9504C15.6908 14.7413 14.6185 15.1862 13.5 15.1875ZM13.5 8.4375C12.9994 8.4375 12.51 8.58596 12.0937 8.8641C11.6775 9.14223 11.353 9.53756 11.1614 10.0001C10.9698 10.4626 10.9197 10.9716 11.0174 11.4626C11.1151 11.9536 11.3561 12.4046 11.7101 12.7586C12.0641 13.1126 12.5152 13.3537 13.0062 13.4514C13.4972 13.549 14.0061 13.4989 14.4687 13.3073C14.9312 13.1157 15.3265 12.7913 15.6047 12.375C15.8828 11.9588 16.0313 11.4694 16.0313 10.9688C16.0306 10.2976 15.7637 9.65418 15.2891 9.17963C14.8146 8.70507 14.1711 8.43817 13.5 8.4375Z" fill="black"/>
<path d="M13.5 25.3125L6.38212 16.918C6.28322 16.792 6.18534 16.6651 6.0885 16.5375C4.87264 14.9359 4.2158 12.9796 4.21875 10.9688C4.21875 8.50721 5.19659 6.14649 6.93716 4.40592C8.67773 2.66534 11.0385 1.6875 13.5 1.6875C15.9615 1.6875 18.3223 2.66534 20.0628 4.40592C21.8034 6.14649 22.7812 8.50721 22.7812 10.9688C22.7842 12.9787 22.1277 14.9341 20.9123 16.535L20.9115 16.5375C20.9115 16.5375 20.6584 16.8699 20.6204 16.9147L13.5 25.3125ZM7.43512 15.5208C7.43681 15.5208 7.63256 15.7807 7.67728 15.8363L13.5 22.7036L19.3303 15.8271C19.3674 15.7807 19.5649 15.5191 19.5657 15.5183C20.5589 14.2097 21.0957 12.6116 21.0937 10.9688C21.0937 8.95476 20.2937 7.02326 18.8696 5.59916C17.4455 4.17505 15.514 3.375 13.5 3.375C11.486 3.375 9.55451 4.17505 8.13041 5.59916C6.7063 7.02326 5.90625 8.95476 5.90625 10.9688C5.90448 12.6126 6.44184 14.2116 7.43597 15.5208H7.43512Z" fill="black"/>
</svg>
