<svg width="28" height="28" viewBox="0 0 26 26" fill="none" xmlns="http://www.w3.org/2000/svg">
<path d="M21.7979 19.3883C21.3189 18.2538 20.6238 17.2232 19.7514 16.3541C18.8816 15.4825 17.8512 14.7875 16.7172 14.3076C16.707 14.3025 16.6969 14.3 16.6867 14.2949C18.2686 13.1523 19.2969 11.2912 19.2969 9.19141C19.2969 5.71289 16.4785 2.89453 13 2.89453C9.52149 2.89453 6.70313 5.71289 6.70313 9.19141C6.70313 11.2912 7.73145 13.1523 9.31328 14.2975C9.30313 14.3025 9.29297 14.3051 9.28281 14.3102C8.14531 14.79 7.12461 15.4781 6.24864 16.3566C5.377 17.2264 4.68204 18.2568 4.20215 19.3908C3.7307 20.501 3.47644 21.6913 3.45313 22.8973C3.45245 22.9244 3.4572 22.9513 3.46711 22.9766C3.47701 23.0018 3.49187 23.0248 3.5108 23.0442C3.52973 23.0636 3.55235 23.079 3.57733 23.0895C3.60231 23.1001 3.62914 23.1055 3.65625 23.1055H5.17969C5.29141 23.1055 5.38028 23.0166 5.38281 22.9074C5.4336 20.9473 6.22071 19.1115 7.61211 17.7201C9.05176 16.2805 10.9637 15.4883 13 15.4883C15.0363 15.4883 16.9482 16.2805 18.3879 17.7201C19.7793 19.1115 20.5664 20.9473 20.6172 22.9074C20.6197 23.0191 20.7086 23.1055 20.8203 23.1055H22.3438C22.3709 23.1055 22.3977 23.1001 22.4227 23.0895C22.4477 23.079 22.4703 23.0636 22.4892 23.0442C22.5081 23.0248 22.523 23.0018 22.5329 22.9766C22.5428 22.9513 22.5476 22.9244 22.5469 22.8973C22.5215 21.6836 22.2701 20.5029 21.7979 19.3883V19.3883ZM13 13.5586C11.8346 13.5586 10.7377 13.1041 9.9125 12.2789C9.08731 11.4537 8.63281 10.3568 8.63281 9.19141C8.63281 8.02598 9.08731 6.9291 9.9125 6.10391C10.7377 5.27871 11.8346 4.82422 13 4.82422C14.1654 4.82422 15.2623 5.27871 16.0875 6.10391C16.9127 6.9291 17.3672 8.02598 17.3672 9.19141C17.3672 10.3568 16.9127 11.4537 16.0875 12.2789C15.2623 13.1041 14.1654 13.5586 13 13.5586Z" fill="black"/>
</svg>
