<svg width="23" height="23" viewBox="0 0 18 18" fill="none" xmlns="http://www.w3.org/2000/svg">
<g clip-path="url(#clip0)">
<path fill-rule="evenodd" clip-rule="evenodd" d="M11.7473 11.7472C11.8517 11.6426 11.9758 11.5597 12.1124 11.5031C12.249 11.4464 12.3954 11.4173 12.5432 11.4173C12.691 11.4173 12.8374 11.4464 12.974 11.5031C13.1106 11.5597 13.2347 11.6426 13.3391 11.7472L17.6704 16.0785C17.8815 16.2894 18.0001 16.5756 18.0002 16.874C18.0003 17.1725 17.8819 17.4587 17.671 17.6698C17.46 17.8809 17.1738 17.9996 16.8754 17.9997C16.577 17.9998 16.2907 17.8813 16.0796 17.6704L11.7484 13.3391C11.6438 13.2346 11.5608 13.1106 11.5042 12.974C11.4476 12.8374 11.4184 12.691 11.4184 12.5432C11.4184 12.3953 11.4476 12.2489 11.5042 12.1124C11.5608 11.9758 11.6438 11.8517 11.7484 11.7472H11.7473Z" fill="black"/>
<path fill-rule="evenodd" clip-rule="evenodd" d="M7.3125 13.5C8.12505 13.5 8.92965 13.34 9.68035 13.029C10.4311 12.7181 11.1132 12.2623 11.6877 11.6877C12.2623 11.1132 12.7181 10.4311 13.029 9.68035C13.34 8.92965 13.5 8.12505 13.5 7.3125C13.5 6.49995 13.34 5.69535 13.029 4.94465C12.7181 4.19394 12.2623 3.51184 11.6877 2.93728C11.1132 2.36271 10.4311 1.90695 9.68035 1.596C8.92965 1.28504 8.12505 1.125 7.3125 1.125C5.67147 1.125 4.09766 1.7769 2.93728 2.93728C1.7769 4.09766 1.125 5.67147 1.125 7.3125C1.125 8.95353 1.7769 10.5273 2.93728 11.6877C4.09766 12.8481 5.67147 13.5 7.3125 13.5V13.5ZM14.625 7.3125C14.625 9.2519 13.8546 11.1119 12.4832 12.4832C11.1119 13.8546 9.2519 14.625 7.3125 14.625C5.3731 14.625 3.51314 13.8546 2.14178 12.4832C0.770422 11.1119 0 9.2519 0 7.3125C0 5.3731 0.770422 3.51314 2.14178 2.14178C3.51314 0.770422 5.3731 0 7.3125 0C9.2519 0 11.1119 0.770422 12.4832 2.14178C13.8546 3.51314 14.625 5.3731 14.625 7.3125V7.3125Z" fill="black"/>
</g>
<defs>
<clipPath id="clip0">
<rect width="18" height="18" fill="white"/>
</clipPath>
</defs>
</svg>
