<svg width="204" height="204" viewBox="0 0 204 204" fill="none" xmlns="http://www.w3.org/2000/svg">
<path d="M199.231 46.2315L157.769 4.7685C155.856 2.856 153.51 1.4535 150.96 0.688499V0H8.16C3.6465 0 0 3.6465 0 8.16V195.84C0 200.353 3.6465 204 8.16 204H195.84C200.353 204 204 200.353 204 195.84V57.7575C204 53.4225 202.291 49.2915 199.231 46.2315ZM69.36 18.36H134.64V44.88H69.36V18.36ZM185.64 185.64H18.36V18.36H53.04V53.04C53.04 57.5535 56.6865 61.2 61.2 61.2H142.8C147.313 61.2 150.96 57.5535 150.96 53.04V23.919L185.64 58.599V185.64ZM102 84.15C81.7275 84.15 65.28 100.597 65.28 120.87C65.28 141.142 81.7275 157.59 102 157.59C122.272 157.59 138.72 141.142 138.72 120.87C138.72 100.597 122.272 84.15 102 84.15ZM102 141.27C90.729 141.27 81.6 132.141 81.6 120.87C81.6 109.599 90.729 100.47 102 100.47C113.271 100.47 122.4 109.599 122.4 120.87C122.4 132.141 113.271 141.27 102 141.27Z" fill="#F59B66"/>
</svg>
