<svg width="173" height="173" viewBox="0 0 173 173" fill="none" xmlns="http://www.w3.org/2000/svg">
<path d="M168.956 39.2061L133.794 4.04387C131.199 1.44887 127.674 0 123.998 0H6.92C3.09237 0 0 3.09237 0 6.92V166.08C0 169.908 3.09237 173 6.92 173H166.08C169.908 173 173 169.908 173 166.08V48.9806C173 45.3044 171.551 41.8011 168.956 39.2061ZM58.82 13.84H114.18V38.06H58.82V13.84ZM86.5 133.643C69.3081 133.643 55.36 119.694 55.36 102.503C55.36 85.3106 69.3081 71.3625 86.5 71.3625C103.692 71.3625 117.64 85.3106 117.64 102.503C117.64 119.694 103.692 133.643 86.5 133.643ZM86.5 85.2025C76.9418 85.2025 69.2 92.9443 69.2 102.503C69.2 112.061 76.9418 119.803 86.5 119.803C96.0583 119.803 103.8 112.061 103.8 102.503C103.8 92.9443 96.0583 85.2025 86.5 85.2025Z" fill="#F59B66"/>
</svg>
