<svg width="207" height="144" viewBox="0 0 207 144" fill="none" xmlns="http://www.w3.org/2000/svg">
<path opacity="0.1" d="M52.6582 57.6985H30.734C29.9576 57.6985 29.3282 58.3288 29.3282 59.1063V63.7787C29.3282 64.5563 29.9576 65.1865 30.734 65.1865H52.6582C53.4347 65.1865 54.0641 64.5563 54.0641 63.7787V59.1063C54.0641 58.3288 53.4347 57.6985 52.6582 57.6985Z" fill="#F59B66"/>
<path opacity="0.1" d="M78.5446 65.1884H56.6204C55.8439 65.1884 55.2145 65.8187 55.2145 66.5962V71.2686C55.2145 72.0461 55.8439 72.6764 56.6204 72.6764H78.5446C79.321 72.6764 79.9504 72.0461 79.9504 71.2686V66.5962C79.9504 65.8187 79.321 65.1884 78.5446 65.1884Z" fill="#F59B66"/>
<path opacity="0.1" d="M104.433 72.6764H82.5086C81.7322 72.6764 81.1027 73.3067 81.1027 74.0842V78.7566C81.1027 79.5341 81.7322 80.1644 82.5086 80.1644H104.433C105.209 80.1644 105.839 79.5341 105.839 78.7566V74.0842C105.839 73.3067 105.209 72.6764 104.433 72.6764Z" fill="#F59B66"/>
<path opacity="0.1" d="M52.6582 46.4665H30.734C29.9576 46.4665 29.3282 47.0968 29.3282 47.8743V52.5467C29.3282 53.3242 29.9576 53.9545 30.734 53.9545H52.6582C53.4347 53.9545 54.0641 53.3242 54.0641 52.5467V47.8743C54.0641 47.0968 53.4347 46.4665 52.6582 46.4665Z" fill="#F59B66"/>
<path opacity="0.1" d="M78.5446 53.9545H56.6204C55.8439 53.9545 55.2145 54.5848 55.2145 55.3623V60.0347C55.2145 60.8123 55.8439 61.4425 56.6204 61.4425H78.5446C79.321 61.4425 79.9504 60.8123 79.9504 60.0347V55.3623C79.9504 54.5848 79.321 53.9545 78.5446 53.9545Z" fill="#F59B66"/>
<path opacity="0.1" d="M104.433 61.4444H82.5086C81.7322 61.4444 81.1027 62.0747 81.1027 62.8522V67.5246C81.1027 68.3021 81.7322 68.9324 82.5086 68.9324H104.433C105.209 68.9324 105.839 68.3021 105.839 67.5246V62.8522C105.839 62.0747 105.209 61.4444 104.433 61.4444Z" fill="#F59B66"/>
<path opacity="0.1" d="M133.195 57.6985H111.271C110.495 57.6985 109.865 58.3288 109.865 59.1063V63.7787C109.865 64.5563 110.495 65.1865 111.271 65.1865H133.195C133.972 65.1865 134.601 64.5563 134.601 63.7787V59.1063C134.601 58.3288 133.972 57.6985 133.195 57.6985Z" fill="#F59B66"/>
<path opacity="0.1" d="M159.082 65.1884H137.157C136.381 65.1884 135.752 65.8187 135.752 66.5962V71.2686C135.752 72.0461 136.381 72.6764 137.157 72.6764H159.082C159.858 72.6764 160.487 72.0461 160.487 71.2686V66.5962C160.487 65.8187 159.858 65.1884 159.082 65.1884Z" fill="#F59B66"/>
<path opacity="0.1" d="M184.97 72.6764H163.046C162.269 72.6764 161.64 73.3067 161.64 74.0842V78.7566C161.64 79.5341 162.269 80.1644 163.046 80.1644H184.97C185.746 80.1644 186.376 79.5341 186.376 78.7566V74.0842C186.376 73.3067 185.746 72.6764 184.97 72.6764Z" fill="#F59B66"/>
<path opacity="0.1" d="M133.195 46.4665H111.271C110.495 46.4665 109.865 47.0968 109.865 47.8743V52.5467C109.865 53.3242 110.495 53.9545 111.271 53.9545H133.195C133.972 53.9545 134.601 53.3242 134.601 52.5467V47.8743C134.601 47.0968 133.972 46.4665 133.195 46.4665Z" fill="#F59B66"/>
<path opacity="0.1" d="M159.082 53.9545H137.157C136.381 53.9545 135.752 54.5848 135.752 55.3623V60.0347C135.752 60.8123 136.381 61.4425 137.157 61.4425H159.082C159.858 61.4425 160.487 60.8123 160.487 60.0347V55.3623C160.487 54.5848 159.858 53.9545 159.082 53.9545Z" fill="#F59B66"/>
<path opacity="0.1" d="M184.97 61.4444H163.046C162.269 61.4444 161.64 62.0747 161.64 62.8522V67.5246C161.64 68.3021 162.269 68.9324 163.046 68.9324H184.97C185.746 68.9324 186.376 68.3021 186.376 67.5246V62.8522C186.376 62.0747 185.746 61.4444 184.97 61.4444Z" fill="#F59B66"/>
<path opacity="0.1" d="M52.6582 31.4886H30.734C29.9576 31.4886 29.3282 32.1189 29.3282 32.8964V37.5689C29.3282 38.3464 29.9576 38.9767 30.734 38.9767H52.6582C53.4347 38.9767 54.0641 38.3464 54.0641 37.5689V32.8964C54.0641 32.1189 53.4347 31.4886 52.6582 31.4886Z" fill="#F59B66"/>
<path opacity="0.1" d="M78.5446 38.9766H56.6204C55.8439 38.9766 55.2145 39.6069 55.2145 40.3844V45.0568C55.2145 45.8343 55.8439 46.4646 56.6204 46.4646H78.5446C79.321 46.4646 79.9504 45.8343 79.9504 45.0568V40.3844C79.9504 39.6069 79.321 38.9766 78.5446 38.9766Z" fill="#F59B66"/>
<path opacity="0.1" d="M104.433 46.4665H82.5086C81.7322 46.4665 81.1027 47.0968 81.1027 47.8743V52.5467C81.1027 53.3242 81.7322 53.9545 82.5086 53.9545H104.433C105.209 53.9545 105.839 53.3242 105.839 52.5467V47.8743C105.839 47.0968 105.209 46.4665 104.433 46.4665Z" fill="#F59B66"/>
<path opacity="0.1" d="M52.6582 20.2547H30.734C29.9576 20.2547 29.3282 20.885 29.3282 21.6625V26.3349C29.3282 27.1124 29.9576 27.7427 30.734 27.7427H52.6582C53.4347 27.7427 54.0641 27.1124 54.0641 26.3349V21.6625C54.0641 20.885 53.4347 20.2547 52.6582 20.2547Z" fill="#F59B66"/>
<path opacity="0.1" d="M78.5446 27.7446H56.6204C55.8439 27.7446 55.2145 28.3749 55.2145 29.1524V33.8248C55.2145 34.6023 55.8439 35.2326 56.6204 35.2326H78.5446C79.321 35.2326 79.9504 34.6023 79.9504 33.8248V29.1524C79.9504 28.3749 79.321 27.7446 78.5446 27.7446Z" fill="#F59B66"/>
<path opacity="0.1" d="M104.433 35.2326H82.5086C81.7322 35.2326 81.1027 35.8629 81.1027 36.6404V41.3128C81.1027 42.0903 81.7322 42.7206 82.5086 42.7206H104.433C105.209 42.7206 105.839 42.0903 105.839 41.3128V36.6404C105.839 35.8629 105.209 35.2326 104.433 35.2326Z" fill="#F59B66"/>
<path opacity="0.1" d="M133.195 31.4886H111.271C110.495 31.4886 109.865 32.1189 109.865 32.8964V37.5689C109.865 38.3464 110.495 38.9767 111.271 38.9767H133.195C133.972 38.9767 134.601 38.3464 134.601 37.5689V32.8964C134.601 32.1189 133.972 31.4886 133.195 31.4886Z" fill="#F59B66"/>
<path opacity="0.1" d="M159.082 38.9766H137.157C136.381 38.9766 135.752 39.6069 135.752 40.3844V45.0568C135.752 45.8343 136.381 46.4646 137.157 46.4646H159.082C159.858 46.4646 160.487 45.8343 160.487 45.0568V40.3844C160.487 39.6069 159.858 38.9766 159.082 38.9766Z" fill="#F59B66"/>
<path opacity="0.1" d="M184.97 46.4665H163.046C162.269 46.4665 161.64 47.0968 161.64 47.8743V52.5467C161.64 53.3242 162.269 53.9545 163.046 53.9545H184.97C185.746 53.9545 186.376 53.3242 186.376 52.5467V47.8743C186.376 47.0968 185.746 46.4665 184.97 46.4665Z" fill="#F59B66"/>
<path opacity="0.1" d="M133.195 20.2547H111.271C110.495 20.2547 109.865 20.885 109.865 21.6625V26.3349C109.865 27.1124 110.495 27.7427 111.271 27.7427H133.195C133.972 27.7427 134.601 27.1124 134.601 26.3349V21.6625C134.601 20.885 133.972 20.2547 133.195 20.2547Z" fill="#F59B66"/>
<path opacity="0.1" d="M159.082 27.7446H137.157C136.381 27.7446 135.752 28.3749 135.752 29.1524V33.8248C135.752 34.6023 136.381 35.2326 137.157 35.2326H159.082C159.858 35.2326 160.487 34.6023 160.487 33.8248V29.1524C160.487 28.3749 159.858 27.7446 159.082 27.7446Z" fill="#F59B66"/>
<path opacity="0.1" d="M184.97 35.2326H163.046C162.269 35.2326 161.64 35.8629 161.64 36.6404V41.3128C161.64 42.0903 162.269 42.7206 163.046 42.7206H184.97C185.746 42.7206 186.376 42.0903 186.376 41.3128V36.6404C186.376 35.8629 185.746 35.2326 184.97 35.2326Z" fill="#F59B66"/>
<path opacity="0.1" d="M103.5 144C160.661 144 207 135.559 207 125.147C207 114.735 160.661 106.295 103.5 106.295C46.3385 106.295 0 114.735 0 125.147C0 135.559 46.3385 144 103.5 144Z" fill="#F59B66"/>
<path d="M45.4113 60.8211L36.7075 114.253L76.064 110.084L74.3611 105.537L43.6138 108.095L50.8039 60.7263L45.4113 60.8211Z" fill="#3F3D56"/>
<path d="M35.1938 0.189474L88.1737 0L103.5 116.147L50.3309 123.347L35.1938 0.189474Z" fill="#3F3D56"/>
<path d="M40.9648 4.64212H83.7271L98.675 112.642L54.5882 118.705L40.9648 4.64212Z" fill="white"/>
<path d="M81.2939 107.784C81.5625 108.299 81.7631 108.856 82.1132 109.321C83.1349 110.689 85.0744 110.903 86.5294 111.795C86.6022 111.832 86.6622 111.89 86.7016 111.962C86.7678 112.119 86.6202 112.284 86.4783 112.383C85.3752 113.157 83.9277 113.175 82.5786 113.165C82.1252 113.181 81.6717 113.138 81.2295 113.036C80.5162 112.847 79.905 112.348 79.2011 112.146C78.8362 112.054 78.4626 112.002 78.0867 111.988L76.6089 111.888C76.2155 111.882 75.8259 111.81 75.4566 111.674C75.2726 111.603 75.1095 111.487 74.9824 111.337C74.8553 111.186 74.7685 111.005 74.73 110.812C74.6884 110.497 74.8227 110.192 74.9022 109.885C75.0914 109.158 75.0328 108.279 75.5985 107.782C75.8316 107.603 76.0989 107.474 76.3838 107.403C77.4121 107.056 78.462 106.776 79.5266 106.566C80.4027 106.393 80.906 107.037 81.2939 107.784Z" fill="#3F3D56"/>
<path d="M64.5787 111.882C64.6165 112.286 64.6279 112.748 64.3365 113.031C64.1551 113.181 63.9359 113.28 63.7026 113.315C62.3043 113.641 60.7452 113.663 59.5286 112.902C59.402 112.829 59.2903 112.734 59.1994 112.619C59.0979 112.464 59.0404 112.284 59.0328 112.098C58.9893 111.562 59.1539 111.034 59.3034 110.516C59.6571 109.289 59.9258 108.039 60.1076 106.774C60.1227 106.67 63.678 107.343 63.9146 107.695C64.2116 108.131 64.2135 109.177 64.293 109.696C64.4128 110.421 64.5081 111.15 64.5787 111.882Z" fill="#3F3D56"/>
<path d="M77.8123 62.5775L78.7584 71.3861C78.9476 73.1861 79.1463 74.9956 79.0157 76.8012C78.8644 78.8855 78.2816 80.9697 78.5276 83.0349C78.6241 83.8383 78.8435 84.6265 78.8757 85.4356C78.8817 85.9736 78.8545 86.5114 78.7943 87.0461C78.3667 92.3911 79.7196 97.6945 80.4765 103.002C80.5982 103.656 80.6249 104.325 80.5559 104.987C80.4575 105.66 80.2608 106.543 80.8587 106.861L75.2428 108.9C74.5257 108 75.0006 106.6 74.8644 105.457C74.7395 104.428 74.1756 103.511 73.8748 102.52C73.6023 101.63 73.5456 100.692 73.4566 99.7673C72.9666 94.733 71.4623 89.8295 71.1104 84.7838C71.0991 84.2965 71.0356 83.8118 70.9212 83.3381C70.7319 82.7109 70.3535 82.1634 70.0773 81.5741C69.6534 80.6892 69.4453 79.7191 69.2409 78.7604L68.0394 73.1236C66.8247 74.9349 66.8739 77.292 66.6336 79.4634C66.2968 82.4949 65.5437 85.4753 64.9306 88.469C64.7882 89.1132 64.6815 89.7647 64.6109 90.4206C64.4519 92.177 64.7679 93.9505 64.5995 95.705C64.4103 97.7381 63.5569 99.7219 63.7632 101.755C63.8767 102.88 64.3081 103.945 64.5995 105.037C64.8909 106.128 65.0347 107.325 64.5901 108.366C63.036 107.794 61.3665 107.61 59.7254 107.828C57.9222 105.98 57.6024 103.403 57.4794 100.817C57.3564 98.2307 57.6535 95.6406 57.3318 93.0789C57.2372 92.321 57.0896 91.5821 57.065 90.8261C56.9855 88.4027 58.1492 86.1347 58.7282 83.7796C59.2493 81.6594 59.299 79.4505 58.8739 77.309C58.5901 75.8937 58.1019 74.52 57.9278 73.0857C57.6913 71.0754 58.0924 69.0499 58.4955 67.0642C58.766 65.7246 59.0347 64.385 59.3413 63.053C59.6705 61.6225 60.0622 60.1617 60.942 58.9907C62.3498 57.1168 64.8493 56.285 67.1861 56.4669C69.5229 56.6488 71.7045 57.7137 73.6345 59.04C75.1556 60.058 76.5571 61.2446 77.8123 62.5775Z" fill="#192534"/>
<path d="M71.5342 28.8474C71.4281 29.0181 71.3543 29.2069 71.3166 29.4044C71.2693 29.7928 71.5058 30.1491 71.695 30.4882C71.9375 30.924 72.1237 31.3887 72.2494 31.8714C72.3395 32.1701 72.3672 32.4842 72.3308 32.7941C72.2846 33.0269 72.2016 33.2508 72.0848 33.4573C71.7196 34.1621 71.1785 34.8139 70.4424 35.1076C69.8724 35.3178 69.2508 35.3429 68.6657 35.1796C68.0845 35.0148 67.5351 34.7535 67.0404 34.4065C66.6234 34.1419 66.2484 33.8162 65.9278 33.4402C65.6217 33.0291 65.364 32.5841 65.1596 32.1139C64.766 31.2897 64.3668 30.4086 64.4387 29.5048C64.4424 29.4229 64.4577 29.3419 64.4841 29.2642C64.5455 29.1239 64.6314 28.9956 64.7376 28.8853C65.5449 27.9273 65.9588 26.6982 65.8956 25.4463L68.6525 26.0735C69.2599 26.2118 69.8672 26.3501 70.467 26.5225C70.959 26.6646 71.7158 26.8617 72.0356 27.3013C72.3554 27.7408 71.7518 28.4457 71.5342 28.8474Z" fill="#FBBEBE"/>
<path d="M70.0583 28.3775C72.8255 28.3775 75.0687 26.1312 75.0687 23.3602C75.0687 20.5893 72.8255 18.343 70.0583 18.343C67.2912 18.343 65.0479 20.5893 65.0479 23.3602C65.0479 26.1312 67.2912 28.3775 70.0583 28.3775Z" fill="#FBBEBE"/>
<path d="M69.2523 33.4819C69.4642 33.0177 69.9221 32.724 70.3403 32.4322C70.7584 32.1404 71.1823 31.7672 71.2636 31.2613C71.2686 31.1468 71.297 31.0346 71.3469 30.9316C71.5077 30.6891 71.8899 30.8103 72.1189 30.9884C72.6752 31.4223 73.0536 32.0381 73.4226 32.6387C73.8999 33.3692 74.3084 34.1424 74.643 34.9484C75.1747 36.3524 75.239 37.8853 75.2977 39.384C75.3507 40.7482 75.4017 42.1333 75.0706 43.4558C74.8625 44.2933 74.503 45.1061 74.4822 45.9682C74.4197 49.1002 73.3336 52.0939 73.2579 55.2259C73.2523 56.1315 73.2978 57.0368 73.3942 57.9373L73.572 59.9703C70.8209 59.8124 68.0773 59.5705 65.3412 59.2446C65.2618 58.3086 64.995 57.4011 64.7509 56.4954C63.7514 52.7927 63.1108 49.0021 62.8379 45.1762C62.6922 43.1451 62.5428 41.1215 62.3176 39.0979C62.1151 37.2581 61.7178 35.4069 61.9562 33.5709C62.081 32.7364 62.3431 31.9284 62.732 31.1798C62.8549 30.8815 63.0662 30.6283 63.3375 30.4541C63.473 30.3885 63.6169 30.342 63.7651 30.3158C64.194 30.2288 64.6295 30.1774 65.0669 30.1623C65.1738 30.1533 65.2815 30.1636 65.3848 30.1926C65.5691 30.2847 65.7205 30.4316 65.8181 30.6133C66.6611 31.8824 67.8542 32.879 69.2523 33.4819Z" fill="#F2F2F2"/>
<path d="M66.9287 33.0802C67.2807 33.5842 68.0262 33.7036 68.3516 34.2171C68.4613 34.4317 68.5445 34.6588 68.5995 34.8935C68.7982 35.5282 69.1993 36.0796 69.4434 36.6992C69.7953 37.5897 69.8048 38.5749 69.8086 39.5318C69.8432 40.294 69.7847 41.0575 69.6345 41.8055C69.521 42.2735 69.3355 42.7187 69.1993 43.181C68.9679 43.9672 68.882 44.7892 68.9458 45.6063C68.9458 45.7828 68.9928 45.9561 69.082 46.1084C69.2103 46.2606 69.3779 46.3746 69.5664 46.4381C70.1208 46.6825 70.7017 46.9326 71.3071 46.8758C71.4313 46.8719 71.5517 46.8317 71.6534 46.7602C71.7236 46.6962 71.7813 46.6198 71.8237 46.5347L72.2021 45.8943C72.5446 45.3088 72.9022 44.6533 72.7698 43.9844C72.6736 43.6392 72.529 43.3094 72.3403 43.0048C72.0984 42.5106 71.8923 41.9996 71.7234 41.4758C71.1198 39.7383 70.5087 37.9762 70.3724 36.1421C70.2923 35.4441 70.3699 34.737 70.5995 34.0731C70.7772 33.6644 71.0006 33.2773 71.2655 32.9192C71.2056 32.8387 71.1227 32.7783 71.0277 32.7462C70.9327 32.714 70.8302 32.7116 70.7338 32.7392C70.5435 32.798 70.3591 32.8748 70.1832 32.9684C69.6269 33.2034 69.0101 33.1181 68.4481 32.9571C68.2286 32.8926 67.8805 32.6728 67.6534 32.688C67.5758 32.6975 66.942 33.1029 66.9287 33.0802Z" fill="#F59B66"/>
<path d="M71.3582 33.0594C71.2447 32.9684 71.0687 32.8851 70.9685 32.9912C70.9348 33.0372 70.9104 33.0893 70.8966 33.1447C70.7982 33.4099 70.5087 33.5407 70.2457 33.643C69.9827 33.7453 69.6988 33.8021 69.5399 33.607C69.4897 33.531 69.4651 33.441 69.4695 33.35C69.4739 33.259 69.5072 33.1718 69.5645 33.1011C69.6809 32.9607 69.8212 32.842 69.9789 32.7506C70.8492 32.1354 71.4421 31.2012 71.6288 30.151C71.8729 30.3452 72.0344 30.6248 72.081 30.9335C72.1435 31.2348 72.151 31.5455 72.2135 31.8468C72.3062 32.2788 72.5124 32.6823 72.5597 33.12C72.5843 33.3531 72.5597 33.588 72.5597 33.8211C72.5682 34.0489 72.5948 34.2758 72.6392 34.4994C72.1964 34.0295 71.8842 33.4781 71.3582 33.0594Z" fill="#F2F2F2"/>
<path d="M67.5285 31.7728C67.3393 31.5928 67.1501 31.4223 66.9609 31.2385C66.1306 30.427 65.5037 29.4304 65.1312 28.3301C64.889 28.5196 64.6222 28.7697 64.6165 29.088C64.6381 29.3132 64.7249 29.5273 64.8663 29.7038C65.5818 30.8322 66.0542 32.0977 66.2532 33.4194C66.3555 33.2595 66.4971 33.1286 66.6644 33.0393C66.8317 32.95 67.0192 32.9054 67.2088 32.9097C67.5077 32.9097 68.8493 33.7055 68.9458 33.5046C69.0877 33.1901 67.7556 31.9869 67.5285 31.7728Z" fill="#F2F2F2"/>
<path d="M71.7537 30.2646C73.5336 32.0389 75.7124 33.3598 78.1075 34.1166C78.3456 34.1686 78.5664 34.2808 78.7489 34.4425C78.8853 34.613 78.977 34.8149 79.0157 35.0299C79.4774 36.8375 79.6326 38.7076 79.7858 40.5663C79.826 40.8737 79.8196 41.1854 79.7669 41.4909C79.6553 41.9874 79.3033 42.3891 78.9571 42.7623C77.871 43.9276 76.6316 45.1459 76.4481 46.7299C76.4341 47.0353 76.398 47.3392 76.3402 47.6394C76.2456 47.9918 76.0356 48.3025 75.9069 48.6455C75.275 50.3337 76.7035 52.3781 75.8331 53.9507C76.3043 54.8572 76.6275 55.8333 76.7906 56.8421C76.8198 57.2245 76.9072 57.6002 77.0498 57.9562C77.309 58.4981 77.8426 58.8429 78.2626 59.2825C79.5436 60.5975 79.7007 62.6097 79.7764 64.4457C79.8237 65.4802 79.8085 66.6682 79.0195 67.3465C78.5635 67.7425 77.941 67.8714 77.345 67.9699C76.5522 68.1025 75.6893 68.1973 74.9874 67.805C74.484 67.5246 74.1416 67.0339 73.8142 66.5602C73.1936 65.6564 72.5711 64.7545 71.9826 63.828C71.0517 62.3671 70.1738 60.6979 70.4424 58.985C70.3668 60.7377 69.9978 62.5036 69.1388 64.0307C68.2797 65.5579 66.8966 66.833 65.2182 67.337C63.5399 67.841 61.5778 67.4848 60.3271 66.257C59.9188 65.8361 59.5682 65.3627 59.2845 64.8493C58.5726 63.6284 58.053 62.3048 57.7443 60.9253C57.6629 60.5671 57.6024 60.1674 57.7821 59.8471C57.8673 59.6956 57.9978 59.5762 58.0868 59.4265C58.3857 58.9168 58.0981 58.2745 57.8086 57.7554C57.3678 57.797 57.0518 57.2779 57.0915 56.8345C57.1312 56.3911 57.3961 56.0065 57.5835 55.6029C58.1322 54.413 58.0111 53.028 57.7462 51.7453C57.4813 50.4625 57.0858 49.1874 57.1161 47.8781C57.1483 46.493 56.153 45.2463 55.3943 44.0886C54.9704 43.4368 54.4766 42.8305 54.1076 42.1465C53.3383 40.7071 53.1605 39.0239 53.6119 37.4552C53.8768 36.6496 54.2243 35.8737 54.6488 35.1398L55.2732 33.9669C55.3894 33.6867 55.5699 33.4378 55.8 33.2403C56.0301 33.0428 56.3033 32.9023 56.5977 32.8301L60.9174 31.1248C61.4698 30.9359 61.9942 30.6733 62.4765 30.3442C63.0044 29.9463 63.398 29.3968 63.9013 28.9724C63.9747 28.8953 64.0626 28.8336 64.1601 28.791C64.2576 28.7483 64.3626 28.7256 64.469 28.7242C64.8739 28.7602 65.0177 29.2718 65.0593 29.6716C65.1539 30.5659 65.8162 31.3238 66.0413 32.1935C67.2599 36.9966 69.8388 41.4265 70.5465 46.3301C71.3412 44.4183 72.1359 42.5027 73.1539 40.7027C73.3145 40.4443 73.4494 40.1708 73.5569 39.8861C73.6791 39.4754 73.7246 39.0457 73.6912 38.6185C73.6402 37.3851 73.3128 36.18 72.9893 34.9882C72.5692 33.3663 72.1908 31.8714 71.7537 30.2646Z" fill="#3F3D56"/>
<path d="M79.9864 44.9413C80.0696 45.7484 80.151 46.5575 80.3005 47.3552C80.4746 48.2779 80.7395 49.1798 81.0025 50.0817C81.1309 50.5887 81.3149 51.0799 81.5512 51.5463C81.6368 51.6817 81.7049 51.8275 81.7536 51.9802C81.8464 52.3592 81.6344 52.7381 81.5436 53.1171C81.2711 54.2539 82.0886 55.5177 81.5739 56.5655C81.4187 56.8838 81.1482 57.1472 81.046 57.4882C80.9268 57.8804 81.046 58.2992 81.1084 58.7046C81.2693 59.8415 80.8814 60.9973 80.4992 62.0905L79.8483 63.936C79.2541 62.8295 78.6543 61.7116 77.8331 60.7623C77.5398 60.4213 77.2201 60.1049 76.9495 59.7449C76.5461 59.1791 76.2273 58.5574 76.0034 57.8994C75.4258 56.3359 75.0957 54.6916 75.0252 53.0261C74.9782 52.5526 75.0331 52.0745 75.186 51.624C75.3112 51.3634 75.4515 51.1104 75.6061 50.8661C76.1132 49.951 76.2172 48.8672 76.2078 47.8213C76.1983 46.7754 76.0867 45.7257 76.2078 44.6855C76.3066 43.817 76.5631 42.9738 76.9646 42.1977C77.2015 41.6951 77.5535 41.2556 77.9921 40.915C78.3194 40.6696 78.7186 40.5397 79.1274 40.5455C79.7461 40.5815 79.6042 41.1139 79.6572 41.6274L79.9864 44.9413Z" fill="#3F3D56"/>
<path d="M52.1549 42.3625C51.7689 43.4994 51.4208 44.6463 51.1105 45.8034C50.8077 46.9402 50.5371 48.0834 50.2987 49.2328C50.1763 49.7383 50.1078 50.2553 50.0944 50.7752C50.1186 51.3805 50.2223 51.9799 50.4028 52.5581C51.6213 56.9558 53.8427 61.0124 56.3441 64.8265C57.0589 63.9339 57.9079 63.1579 58.8607 62.5263C58.9386 62.4801 59.0037 62.4149 59.0499 62.3368C59.0739 62.2632 59.0809 62.185 59.0704 62.1082C59.0599 62.0314 59.0322 61.958 58.9893 61.8935C58.2987 60.4762 57.205 59.2276 56.8607 57.6872C56.7169 57.0467 56.7112 56.3798 56.5485 55.7432C56.3384 54.919 55.8692 54.1648 55.7613 53.3198C55.6459 52.399 55.9506 51.3947 55.5192 50.5781C56.399 50.2352 56.908 49.3276 57.2807 48.4579C57.679 47.5682 57.9638 46.6317 58.1284 45.6707C58.3875 43.8284 58.0274 41.952 57.1048 40.3371C56.6541 39.5315 56.0758 38.8045 55.3924 38.1846C55.1672 37.9819 54.6355 37.4002 54.3082 37.4059C53.8711 37.4154 53.7311 38.124 53.6062 38.4423C53.101 39.7421 52.6015 41.0438 52.1549 42.3625Z" fill="#3F3D56"/>
<path d="M59.9922 63.5703C60.0489 63.612 60.1132 63.6689 60.0981 63.7371C60.083 63.8053 60.0281 63.8223 59.9789 63.8508C59.7231 64.0325 59.5321 64.2914 59.434 64.5897C59.1195 65.2993 58.8454 66.0262 58.6128 66.7668C58.1894 66.1315 57.6913 65.5494 57.1293 65.0331C56.6979 64.6352 56.2154 64.2581 55.9846 63.72C55.9846 63.7049 56.9761 62.9716 57.0669 62.892C57.3451 62.6438 57.6951 61.956 57.9827 61.8044C58.3082 61.6339 58.6185 62.3027 58.8663 62.5718C59.2073 62.9415 59.5845 63.276 59.9922 63.5703Z" fill="#FBBEBE"/>
<path d="M75.379 22.5758C75.3658 22.3276 75.3336 22.0529 75.1444 21.8918C74.9783 21.7768 74.7783 21.7213 74.5768 21.7345C73.4736 21.6985 72.3327 21.8842 71.292 21.5129C70.607 21.2684 70.0224 20.7985 69.3544 20.5068C68.6865 20.215 67.8313 20.1373 67.292 20.628C66.8833 21.007 66.7717 21.5887 66.6298 22.1249C66.3173 23.3083 65.7611 24.4133 64.9968 25.3687C64.4841 25.2095 64.117 24.751 63.8805 24.2697C63.0763 22.6289 63.4718 20.6697 64.0432 18.9303C64.2324 18.3468 64.4424 17.7689 64.6525 17.1929L65.1142 15.9196C65.7201 15.86 66.2831 15.5795 66.696 15.1314L66.8947 15.6145C67.4078 15.5961 67.903 15.4209 68.3138 15.1124C68.4727 15.4118 68.8814 15.4914 69.2125 15.3948C69.5437 15.2981 69.8294 15.1124 70.1586 15.0158C71.0385 14.7316 71.977 15.1693 72.9003 15.2185C73.2911 15.209 73.682 15.2204 74.0716 15.2526C75.1614 15.4289 75.9315 16.4558 76.2645 17.5093C76.4859 18.2103 76.6695 19.0724 77.3601 19.3206C77.3752 19.5859 76.906 19.6371 76.8662 19.8891C76.8616 19.9731 76.8813 20.0567 76.923 20.1297L77.5569 21.492C77.2539 21.5682 76.9351 21.5524 76.6411 21.4465C76.3554 22.1192 75.4074 23.0893 75.379 22.5758Z" fill="#192534"/>
<path d="M107.5 25.541C107.821 26.58 108.074 27.6389 108.257 28.7109C108.393 29.5143 108.473 30.4067 108.013 31.0775C109.765 28.4381 111.595 25.7191 114.257 24.0158C113.715 23.4272 113.302 22.7309 113.046 21.9723C112.79 21.2137 112.697 20.4096 112.771 19.6124C112.787 19.4532 110.586 20.285 110.418 20.3798C109.646 20.8099 108.938 21.3442 108.185 21.8046C107.795 22.0415 106.172 22.6023 106.157 22.9415C106.157 23.1594 106.802 23.8263 106.923 24.0556C107.16 24.5319 107.354 25.0292 107.5 25.541Z" fill="#FBBEBE"/>
<path d="M115.642 125.087C115.209 124.782 114.702 124.599 114.175 124.559C113.647 124.519 113.118 124.623 112.645 124.859C111.788 125.303 111.21 126.142 110.431 126.711C109.091 127.684 107.322 127.762 105.754 128.289C105.337 128.429 104.895 128.637 104.719 129.047C104.66 129.219 104.636 129.401 104.649 129.582C104.663 129.764 104.713 129.941 104.796 130.102C105.058 130.687 105.518 131.162 106.094 131.442C106.798 131.779 107.608 131.794 108.387 131.804L115.161 131.883C117.243 131.908 119.337 131.932 121.405 132.192C121.888 132.253 122.41 132.319 122.836 132.082C123.528 131.703 123.608 130.744 123.555 129.954C123.415 127.952 122.969 125.984 122.23 124.119C122.149 123.912 122.041 123.677 121.812 123.639C121.65 123.632 121.49 123.683 121.362 123.783C119.451 124.92 117.031 125.562 114.999 124.653" fill="white"/>
<path d="M119.033 81.811C118.276 86.2124 118.77 90.7352 119.621 95.1177C119.778 95.9903 119.984 96.8532 120.24 97.7021C120.544 98.6684 120.955 99.5969 121.241 100.569C121.967 103.032 121.865 105.666 121.757 108.237L121.262 119.937C121.22 120.918 121.182 121.923 121.477 122.859C121.596 123.237 121.742 123.711 121.441 123.967C121.324 124.052 121.186 124.104 121.042 124.12C119.688 124.37 118.29 124.16 117.069 123.524L116.934 111.704C116.893 108.061 116.849 104.402 116.289 100.804C115.844 97.9427 115.072 95.1196 115.021 92.2244C114.968 89.1928 115.71 86.2011 116.467 83.2623C116.63 82.6333 117.224 82.1728 117.712 81.7465C117.882 81.5783 118.09 81.4524 118.317 81.379C118.544 81.3164 118.893 81.6196 119.033 81.811Z" fill="#3F3D56"/>
<path opacity="0.1" d="M119.033 81.811C118.276 86.2124 118.77 90.7352 119.621 95.1177C119.778 95.9903 119.984 96.8532 120.24 97.7021C120.544 98.6684 120.955 99.5969 121.241 100.569C121.967 103.032 121.865 105.666 121.757 108.237L121.262 119.937C121.22 120.918 121.182 121.923 121.477 122.859C121.596 123.237 121.742 123.711 121.441 123.967C121.324 124.052 121.186 124.104 121.042 124.12C119.688 124.37 118.29 124.16 117.069 123.524L116.934 111.704C116.893 108.061 116.849 104.402 116.289 100.804C115.844 97.9427 115.072 95.1196 115.021 92.2244C114.968 89.1928 115.71 86.2011 116.467 83.2623C116.63 82.6333 117.224 82.1728 117.712 81.7465C117.882 81.5783 118.09 81.4524 118.317 81.379C118.544 81.3164 118.893 81.6196 119.033 81.811Z" fill="black"/>
<path d="M104.824 68.0552C104.544 69.2091 105.139 70.4047 105.072 71.5908C105.035 72.3089 104.753 73.0251 104.883 73.7299C105.014 74.4348 105.517 74.9653 105.786 75.6114C105.982 76.151 106.085 76.7198 106.092 77.2939C106.17 78.7112 106.107 80.136 106.054 81.5476C105.965 83.916 105.899 86.2977 106.211 88.6453C106.483 90.6791 107.035 92.6654 107.852 94.5474C108.099 95.0593 108.304 95.5911 108.463 96.1371C108.568 96.6458 108.637 97.1611 108.671 97.6794C108.851 99.3649 109.303 101.01 110.009 102.551C110.491 103.606 111.333 104.445 111.6 105.565C111.854 106.638 111.683 107.769 111.867 108.855C112.001 109.66 112.329 110.421 112.51 111.217C112.747 112.246 112.741 113.313 112.86 114.363C113.201 117.394 114.577 120.426 113.755 123.366C113.591 123.957 113.335 124.558 113.451 125.161C113.508 125.456 113.651 125.748 113.587 126.042C113.534 126.292 113.341 126.485 113.243 126.722C113.053 127.165 113.254 127.692 113.591 128.035C113.95 128.355 114.368 128.602 114.821 128.763C116.215 129.359 117.659 129.966 119.173 129.952C119.356 129.962 119.54 129.928 119.708 129.854C119.981 129.712 120.115 129.403 120.23 129.119L121.006 127.197C121.101 126.964 121.195 126.692 121.065 126.476C120.974 126.357 120.864 126.255 120.739 126.172C120.113 125.644 120.255 124.657 120.421 123.863C120.847 121.824 121.082 119.75 121.125 117.667C121.209 113.514 120.525 109.385 119.844 105.287C119.608 103.864 119.369 102.431 118.898 101.067C118.427 99.703 117.733 98.3899 117.846 96.9726C117.967 95.4417 117.57 93.8369 117.846 92.3268C118.122 90.8167 118.56 89.3387 118.841 87.8305C119.207 85.8733 119.297 83.8781 119.409 81.8924C119.456 81.0815 119.517 80.244 119.895 79.524C120.117 79.1034 120.438 78.7434 120.686 78.336C121.326 77.2769 121.428 75.9638 122.039 74.8876C122.329 74.3779 122.728 73.9289 122.94 73.3832C123.089 72.9527 123.167 72.501 123.171 72.0455C123.231 70.902 123.167 69.7554 122.981 68.6255C119.76 66.9842 116.188 66.1544 112.575 66.2078C111.192 66.2305 109.793 66.3708 108.495 66.8501C107.258 67.3106 106.13 67.9567 104.824 68.0552Z" fill="#3F3D56"/>
<path d="M112.582 128.084C112.026 128.778 112.064 129.769 111.708 130.585C111.277 131.576 110.315 132.211 109.403 132.789L103.727 136.389C103.417 136.578 103.084 136.811 102.97 137.164C102.916 137.389 102.926 137.624 102.999 137.844C103.134 138.319 103.387 138.753 103.733 139.105C104.08 139.458 104.509 139.717 104.982 139.86C105.484 139.98 106 140.033 106.516 140.017L109.069 140.051C109.846 140.082 110.625 140.051 111.398 139.96C112.105 139.858 112.794 139.655 113.498 139.526C114.779 139.293 116.096 139.314 117.379 139.089C118.164 138.934 118.94 138.734 119.702 138.488C120.63 138.21 121.574 137.92 122.368 137.368C122.587 137.235 122.765 137.044 122.881 136.815C123.016 136.503 122.942 136.144 122.866 135.813L121.647 130.451C121.579 130.004 121.416 129.577 121.171 129.198C120.9 128.838 120.414 128.6 119.992 128.753C119.818 128.832 119.653 128.932 119.502 129.049C118.877 129.46 118.077 129.528 117.339 129.399C116.862 129.314 116.232 129.183 115.848 128.867C115.557 128.626 115.47 128.253 115.222 127.98C115.048 127.801 114.839 127.661 114.607 127.569C114.376 127.476 114.128 127.434 113.879 127.443C113.63 127.453 113.386 127.515 113.163 127.626C112.939 127.736 112.741 127.892 112.582 128.084Z" fill="white"/>
<path d="M108.902 24.8021C112.678 24.8021 115.738 21.7372 115.738 17.9564C115.738 14.1756 112.678 11.1107 108.902 11.1107C105.126 11.1107 102.066 14.1756 102.066 17.9564C102.066 21.7372 105.126 24.8021 108.902 24.8021Z" fill="#FBBEBE"/>
<path d="M103.629 18.3581C104.283 17.9905 104.283 16.9314 104.953 16.5789C105.623 16.2265 106.384 16.8385 106.813 17.4562C107.439 18.3608 107.874 19.3841 108.09 20.4632C108.151 20.7701 108.208 21.1055 108.438 21.3196C108.669 21.5337 108.972 21.5602 109.267 21.5905C110.131 21.6764 110.997 21.7547 111.863 21.8255C112.828 21.9032 113.846 21.9657 114.722 21.5507C115.068 21.3959 115.365 21.1496 115.581 20.8383C115.755 20.5394 115.879 20.2143 115.948 19.8758C116.401 18.1535 116.857 16.4103 116.894 14.6293C116.91 13.8941 116.845 13.1324 116.491 12.4882C116.285 12.1093 115.982 11.7796 115.897 11.3627C115.812 10.9459 116.086 10.4154 116.518 10.4608C116.128 10.4769 115.74 10.403 115.383 10.2448C115.04 10.0554 114.787 9.64799 114.908 9.27662C113.946 9.39978 113.246 8.44862 112.497 7.83283C112.375 7.71187 112.211 7.64381 112.039 7.64336C111.908 7.67624 111.78 7.72524 111.661 7.78925C111.282 7.92189 110.887 7.66989 110.499 7.55999C109.458 7.2682 108.136 7.97304 107.364 7.21515C107.438 7.69831 106.845 8.02231 106.357 8.01283C105.869 8.00336 105.366 7.82336 104.904 7.98631C104.971 8.10877 105.01 8.24452 105.018 8.38384C105.027 8.52317 105.004 8.66263 104.952 8.79225C104.901 8.92187 104.821 9.03845 104.719 9.13365C104.617 9.22884 104.496 9.30031 104.363 9.34294L104.592 9.84315C104.356 9.89037 104.138 10.0027 103.962 10.1674C103.787 10.3321 103.661 10.5427 103.598 10.7754C103.347 11.7701 103.409 13.1836 103.47 14.2067C103.5 14.6558 103.937 18.1895 103.629 18.3581Z" fill="#192534"/>
<path d="M109.462 26.7802C106.028 30.6474 105.154 36.0909 104.421 41.2162L103.343 48.7838C103.063 50.7467 102.775 52.7097 102.531 54.6783C102.361 56.0254 102.202 57.3935 102.387 58.7387C102.533 59.7998 102.887 60.8229 103.182 61.8442C103.95 64.5228 104.332 67.2976 104.317 70.0844C104.546 69.4099 105.339 69.137 106.035 68.9854C111.878 67.7161 117.974 68.3679 123.417 70.8442C124.372 68.1631 124.192 65.2301 124.459 62.3956C124.838 58.3541 126.141 54.4377 126.527 50.4038C126.669 48.9012 126.686 47.3911 126.701 45.881C126.713 44.7726 126.724 43.6528 126.493 42.5671C126.236 41.3659 125.693 40.2461 125.131 39.1566C123.577 36.1281 121.852 33.1915 119.962 30.3613C119.01 28.9364 118.018 27.54 116.985 26.172C116.462 25.4785 115.928 24.7926 115.383 24.1143C114.855 23.4568 114.626 22.8865 113.788 23.2806C112.204 24.0234 110.614 25.4823 109.462 26.7802Z" fill="#F59B66"/>
<path d="M111.43 58.968C110.592 58.9983 109.753 58.9718 108.919 58.8884C108.3 58.8278 107.668 58.7368 107.065 58.8884C106.802 58.9546 106.557 59.0753 106.344 59.2427C106.265 59.3131 106.208 59.4049 106.181 59.5069C106.153 59.609 106.156 59.7169 106.189 59.8174C106.221 59.918 106.283 60.0068 106.365 60.0729C106.447 60.1391 106.547 60.1799 106.652 60.1901L107.299 60.2469C107.71 60.2829 108.138 60.3246 108.457 60.6259C108.589 60.7443 108.672 60.9067 108.692 61.0825C108.732 61.524 108.35 61.7646 108.007 61.9484C107.52 62.1774 107.07 62.4775 106.671 62.8389C106.359 63.141 106.163 63.5434 106.117 63.9758C106.115 64.0143 106.124 64.0526 106.142 64.0867C106.16 64.1208 106.187 64.1496 106.219 64.1701C106.252 64.1906 106.289 64.2022 106.328 64.2037C106.366 64.2052 106.404 64.1965 106.438 64.1785C107.195 63.7996 107.689 62.676 108.52 62.8636C107.764 63.1032 107.117 63.6016 106.692 64.2714C106.587 64.4313 106.539 64.622 106.556 64.8126C106.573 65.0031 106.654 65.1824 106.785 65.3212C106.917 65.4601 107.091 65.5504 107.28 65.5775C107.469 65.6047 107.662 65.567 107.827 65.4707C107.95 65.3986 108.069 65.3196 108.183 65.2339C108.746 64.7777 109.25 64.2533 109.683 63.6726C109.078 64.9516 108.465 66.4484 109.161 67.7198C109.196 67.7897 109.25 67.8481 109.317 67.8878C109.385 67.9274 109.462 67.9468 109.54 67.9434C109.759 67.9206 109.824 67.7141 109.859 67.5322C109.973 66.9467 110.001 66.3291 110.289 65.808C110.955 64.5992 112.597 64.4817 113.848 63.8924C115.349 63.1952 116.376 61.6945 116.79 60.0916C116.935 59.6241 116.961 59.1276 116.864 58.6478C116.586 57.5697 115.258 57.3215 114.404 57.8425C113.358 58.5076 112.751 58.9263 111.43 58.968Z" fill="#FBBEBE"/>
<path opacity="0.1" d="M110.102 37.7602C111.426 39.8084 113.725 40.9623 115.697 42.4004C116.178 42.7141 116.597 43.1136 116.934 43.579C117.432 44.3482 117.502 45.3259 117.4 46.2316C117.271 47.4272 116.887 48.5773 116.507 49.7179L115.68 52.1905C115.156 53.7594 114.614 55.3604 113.617 56.6792C113.362 57.0145 113.065 57.3726 113.076 57.7933C113.098 58.0363 113.181 58.2697 113.318 58.4716C113.637 58.993 114.058 59.4449 114.555 59.8003C115.052 60.1558 115.615 60.4075 116.211 60.5406C116.568 60.6316 116.942 60.6316 117.299 60.5406C117.81 60.3891 118.194 59.9722 118.55 59.5781C120.253 57.6966 121.956 55.7886 123.186 53.5813C124.387 51.427 125.106 49.0339 125.769 46.6636C126.041 45.791 126.231 44.8946 126.336 43.9863C126.476 42.2811 126.03 40.5758 125.299 39.0354C124.569 37.495 123.564 36.1004 122.529 34.7457C121.552 33.415 120.467 32.1678 119.284 31.0168C117.226 29.0899 114.707 27.9568 111.952 29.0501C110.007 29.8232 109.279 31.4356 109.104 33.5008C108.957 34.992 109.308 36.49 110.102 37.7602Z" fill="black"/>
<path d="M110.79 37.2411C112.115 39.2893 114.416 40.4432 116.385 41.8813C116.865 42.198 117.282 42.6 117.617 43.0674C118.115 43.8366 118.185 44.8124 118.083 45.72C117.952 46.9156 117.57 48.0657 117.188 49.2063L116.361 51.6695C115.837 53.2383 115.296 54.8375 114.298 56.1581C114.045 56.4935 113.748 56.8497 113.759 57.2722C113.78 57.5149 113.863 57.748 114.001 57.9486C114.32 58.4703 114.74 58.9225 115.237 59.2782C115.734 59.634 116.297 59.8861 116.893 60.0196C117.25 60.1105 117.625 60.1105 117.982 60.0196C118.493 59.8699 118.876 59.4512 119.233 59.059C120.936 57.1756 122.639 55.2695 123.869 53.0621C125.07 50.9078 125.789 48.5147 126.452 46.1425C126.725 45.2708 126.915 44.375 127.019 43.4672C127.159 41.7619 126.713 40.0566 125.984 38.5143C125.256 36.972 124.249 35.5794 123.214 34.2246C122.234 32.9009 121.146 31.6607 119.962 30.5166C117.905 28.5916 115.386 27.4566 112.631 28.5518C110.684 29.3248 109.958 30.9354 109.782 33.0025C109.643 34.488 109.997 35.9779 110.79 37.2411Z" fill="#F59B66"/>
<path d="M152.629 105.203C152.631 105.697 152.58 106.19 152.478 106.674C152.459 106.765 152.438 106.863 152.417 106.941C151.88 109.099 150.365 110.677 148.556 110.778C148.495 110.778 148.435 110.778 148.366 110.778C146.453 110.778 144.836 109.125 144.302 106.85C144.287 106.789 144.274 106.729 144.26 106.66C144.158 106.177 144.108 105.684 144.109 105.19C144.109 102.107 146.014 99.6101 148.366 99.6101C150.718 99.6101 152.629 102.126 152.629 105.203Z" fill="#3F3D56"/>
<path opacity="0.1" d="M152.629 105.203C152.631 105.697 152.58 106.19 152.478 106.674C152.459 106.765 152.438 106.863 152.417 106.941C152.353 106.941 152.291 106.941 152.228 106.941C151.76 106.916 151.294 106.852 150.836 106.751C150.43 106.877 150.015 106.972 149.594 107.036C149.272 107.084 148.947 107.115 148.622 107.127H148.293C147.903 107.127 147.513 107.101 147.127 107.049C146.502 106.965 145.889 106.813 145.297 106.594C144.974 106.702 144.644 106.791 144.31 106.859C144.295 106.799 144.281 106.738 144.268 106.67C144.166 106.187 144.115 105.694 144.117 105.2C144.117 102.117 146.022 99.6196 148.374 99.6196C150.726 99.6196 152.629 102.126 152.629 105.203Z" fill="black"/>
<path d="M161.712 94.8089C161.713 93.4523 161.396 92.1144 160.785 90.9038L155.778 92.4632L160.173 89.875C159.436 88.8088 158.469 87.922 157.344 87.2799C156.219 86.6378 154.964 86.2568 153.672 86.1651C153.466 85.8527 153.241 85.5539 152.996 85.2708L145.806 87.5122L151.704 84.0392C150.576 83.1721 149.252 82.5969 147.849 82.3644C146.446 82.1319 145.007 82.2493 143.66 82.7062C142.313 83.1632 141.099 83.9455 140.126 84.984C139.153 86.0226 138.45 87.2853 138.081 88.6604L144.24 95.76L137.558 90.9209C135.866 92.1229 134.661 93.8938 134.163 95.9109C133.666 97.928 133.908 100.057 134.847 101.91C135.785 103.763 137.357 105.217 139.277 106.006C141.196 106.796 143.335 106.869 145.303 106.211C147.083 106.867 149.029 106.921 150.843 106.365C152.108 106.644 153.419 106.635 154.679 106.339C155.94 106.044 157.119 105.469 158.128 104.657C159.138 103.845 159.953 102.817 160.514 101.648C161.074 100.479 161.366 99.1996 161.367 97.903C161.367 97.7135 161.367 97.524 161.348 97.3345C161.594 96.5153 161.716 95.6641 161.712 94.8089Z" fill="#F59B66"/>
<path opacity="0.1" d="M161.562 96.4156C158.918 95.9137 156.207 95.8791 153.551 96.3133C150.544 96.8116 147.471 97.9067 144.531 97.1072C142.805 96.6373 141.314 95.5497 139.628 94.9452C138.002 94.377 136.25 94.272 134.567 94.6421C133.926 96.1781 133.74 97.8666 134.031 99.5056C134.323 101.145 135.079 102.665 136.21 103.885C137.342 105.105 138.8 105.973 140.41 106.386C142.021 106.798 143.716 106.738 145.294 106.211C147.074 106.867 149.02 106.921 150.834 106.365C152.098 106.644 153.409 106.635 154.67 106.339C155.931 106.044 157.109 105.469 158.119 104.657C159.129 103.845 159.944 102.817 160.504 101.648C161.065 100.479 161.356 99.1996 161.358 97.9029C161.358 97.7135 161.358 97.524 161.339 97.3345C161.43 97.0326 161.505 96.7258 161.562 96.4156Z" fill="black"/>
</svg>
