<svg width="395" height="278" viewBox="0 0 395 278" fill="none" xmlns="http://www.w3.org/2000/svg">
<g clip-path="url(#clip0)">
<path d="M384.905 26.8873H62.3386C59.6621 26.8902 57.0961 27.9534 55.2035 29.8437C53.3109 31.7339 52.2463 34.2968 52.2434 36.97V206.936C52.2463 209.609 53.3109 212.172 55.2035 214.062C57.0961 215.953 59.6621 217.016 62.3386 217.019H384.905C387.581 217.016 390.147 215.953 392.04 214.062C393.933 212.172 394.997 209.609 395 206.936V36.97C394.997 34.2968 393.933 31.7339 392.04 29.8437C390.147 27.9534 387.581 26.8902 384.905 26.8873ZM394.039 206.936C394.036 209.355 393.073 211.674 391.361 213.384C389.649 215.095 387.327 216.056 384.905 216.059H62.3386C59.9169 216.056 57.5949 215.095 55.8825 213.384C54.1701 211.674 53.207 209.355 53.2049 206.936V36.97C53.207 34.5512 54.1701 32.2322 55.8825 30.5219C57.5949 28.8115 59.9169 27.8497 62.3386 27.8475H384.905C387.327 27.8497 389.649 28.8115 391.361 30.5219C393.073 32.2322 394.036 34.5512 394.039 36.97V206.936Z" fill="#3F3D56"/>
<path d="M369.041 54.4322H78.2025C78.075 54.4322 77.9528 54.3816 77.8626 54.2916C77.7725 54.2015 77.7218 54.0794 77.7218 53.9521C77.7218 53.8247 77.7725 53.7026 77.8626 53.6126C77.9528 53.5225 78.075 53.4719 78.2025 53.4719H369.041C369.168 53.4719 369.291 53.5225 369.381 53.6126C369.471 53.7026 369.522 53.8247 369.522 53.9521C369.522 54.0794 369.471 54.2015 369.381 54.2916C369.291 54.3816 369.168 54.4322 369.041 54.4322Z" fill="#3F3D56"/>
<path d="M160.406 196.373C160.279 196.373 160.157 196.323 160.066 196.233C159.976 196.143 159.926 196.02 159.926 195.893V37.9303C159.926 37.8029 159.976 37.6808 160.066 37.5908C160.157 37.5007 160.279 37.4501 160.406 37.4501C160.534 37.4501 160.656 37.5007 160.746 37.5908C160.836 37.6808 160.887 37.8029 160.887 37.9303V195.893C160.887 196.02 160.836 196.143 160.746 196.233C160.656 196.323 160.534 196.373 160.406 196.373V196.373Z" fill="#3F3D56"/>
<path d="M232.996 196.373C232.868 196.373 232.746 196.323 232.656 196.233C232.566 196.143 232.515 196.02 232.515 195.893V37.9303C232.515 37.8029 232.566 37.6808 232.656 37.5908C232.746 37.5007 232.868 37.4501 232.996 37.4501C233.123 37.4501 233.246 37.5007 233.336 37.5908C233.426 37.6808 233.477 37.8029 233.477 37.9303V195.893C233.477 196.02 233.426 196.143 233.336 196.233C233.246 196.323 233.123 196.373 232.996 196.373V196.373Z" fill="#3F3D56"/>
<path d="M305.585 196.373C305.458 196.373 305.335 196.323 305.245 196.233C305.155 196.143 305.104 196.02 305.104 195.893V37.9303C305.104 37.8029 305.155 37.6808 305.245 37.5908C305.335 37.5007 305.458 37.4501 305.585 37.4501C305.713 37.4501 305.835 37.5007 305.925 37.5908C306.015 37.6808 306.066 37.8029 306.066 37.9303V195.893C306.066 196.02 306.015 196.143 305.925 196.233C305.835 196.323 305.713 196.373 305.585 196.373V196.373Z" fill="#3F3D56"/>
<path d="M113.736 103.99H96.1699C95.5963 103.989 95.0465 103.762 94.6409 103.357C94.2354 102.952 94.0072 102.402 94.0066 101.83V81.1265C94.0072 80.5537 94.2354 80.0045 94.6409 79.5995C95.0465 79.1944 95.5963 78.9666 96.1699 78.9659H113.736C114.309 78.9666 114.859 79.1944 115.264 79.5995C115.67 80.0045 115.898 80.5537 115.899 81.1265V101.83C115.898 102.402 115.67 102.952 115.264 103.357C114.859 103.762 114.309 103.989 113.736 103.99V103.99Z" fill="#FFF065"/>
<path d="M138.733 163.046H121.168C120.594 163.046 120.044 162.818 119.639 162.413C119.233 162.008 119.005 161.458 119.004 160.886V140.183C119.005 139.61 119.233 139.061 119.639 138.655C120.044 138.25 120.594 138.023 121.168 138.022H138.733C139.307 138.023 139.857 138.25 140.262 138.655C140.668 139.061 140.896 139.61 140.896 140.183V160.886C140.896 161.458 140.668 162.008 140.262 162.413C139.857 162.818 139.307 163.046 138.733 163.046V163.046Z" fill="white"/>
<path d="M195.459 116.474H177.893C177.32 116.473 176.77 116.245 176.364 115.84C175.959 115.435 175.731 114.886 175.73 114.313V93.6099C175.731 93.0371 175.959 92.4879 176.364 92.0829C176.77 91.6778 177.32 91.45 177.893 91.4493H195.459C196.032 91.45 196.582 91.6778 196.988 92.0829C197.393 92.4879 197.621 93.0371 197.622 93.6099V114.313C197.621 114.886 197.393 115.435 196.988 115.84C196.582 116.245 196.032 116.473 195.459 116.474V116.474Z" fill="#FFF065"/>
<path d="M269.01 93.9074H251.444C250.87 93.9068 250.321 93.679 249.915 93.2739C249.51 92.8689 249.281 92.3197 249.281 91.7469V71.0438C249.281 70.471 249.51 69.9218 249.915 69.5168C250.321 69.1117 250.87 68.8839 251.444 68.8832H269.01C269.583 68.8839 270.133 69.1117 270.539 69.5168C270.944 69.9218 271.172 70.471 271.173 71.0438V91.7469C271.172 92.3197 270.944 92.8689 270.539 93.2739C270.133 93.679 269.583 93.9068 269.01 93.9074V93.9074Z" fill="white"/>
<path d="M336.792 93.9074H319.226C318.653 93.9068 318.103 93.679 317.697 93.2739C317.292 92.8689 317.064 92.3197 317.063 91.7469V71.0438C317.064 70.471 317.292 69.9218 317.697 69.5168C318.103 69.1117 318.653 68.8839 319.226 68.8832H336.792C337.365 68.8839 337.915 69.1117 338.321 69.5168C338.726 69.9218 338.955 70.471 338.955 71.0438V91.7469C338.955 92.3197 338.726 92.8689 338.321 93.2739C337.915 93.679 337.365 93.9068 336.792 93.9074V93.9074Z" fill="white"/>
<path d="M368.039 99.669H350.473C349.9 99.6684 349.35 99.4405 348.944 99.0355C348.539 98.6304 348.311 98.0813 348.31 97.5084V76.8054C348.311 76.2326 348.539 75.6834 348.944 75.2784C349.35 74.8733 349.9 74.6455 350.473 74.6448H368.039C368.613 74.6455 369.162 74.8733 369.568 75.2784C369.973 75.6834 370.202 76.2326 370.202 76.8054V97.5085C370.202 98.0813 369.973 98.6304 369.568 99.0355C369.162 99.4405 368.613 99.6684 368.039 99.669Z" fill="#E6E6E6"/>
<path d="M354.098 136.639H336.532C335.959 136.638 335.409 136.411 335.003 136.005C334.598 135.6 334.37 135.051 334.369 134.478V113.775C334.37 113.203 334.598 112.653 335.003 112.248C335.409 111.843 335.959 111.615 336.532 111.615H354.098C354.672 111.615 355.221 111.843 355.627 112.248C356.032 112.653 356.261 113.203 356.261 113.775V134.478C356.261 135.051 356.032 135.6 355.627 136.005C355.221 136.411 354.672 136.638 354.098 136.639Z" fill="#E6E6E6"/>
<path d="M294.488 128.957H276.922C276.349 128.956 275.799 128.728 275.393 128.323C274.988 127.918 274.76 127.369 274.759 126.796V106.093C274.76 105.521 274.988 104.971 275.393 104.566C275.799 104.161 276.349 103.933 276.922 103.933H294.488C295.062 103.933 295.611 104.161 296.017 104.566C296.423 104.971 296.651 105.521 296.651 106.093V126.796C296.651 127.369 296.423 127.918 296.017 128.323C295.611 128.728 295.062 128.956 294.488 128.957Z" fill="#FFF065"/>
<path d="M260.357 136.639H242.791C242.217 136.638 241.668 136.411 241.262 136.005C240.856 135.6 240.628 135.051 240.628 134.478V113.775C240.628 113.203 240.856 112.653 241.262 112.248C241.668 111.843 242.217 111.615 242.791 111.615H260.357C260.93 111.615 261.48 111.843 261.886 112.248C262.291 112.653 262.519 113.203 262.52 113.775V134.478C262.519 135.051 262.291 135.6 261.886 136.005C261.48 136.411 260.93 136.638 260.357 136.639V136.639Z" fill="#E6E6E6"/>
<path d="M186.806 169.288H169.24C168.667 169.287 168.117 169.059 167.711 168.654C167.306 168.249 167.078 167.7 167.077 167.127V146.424C167.078 145.851 167.306 145.302 167.711 144.897C168.117 144.492 168.667 144.264 169.24 144.264H186.806C187.379 144.264 187.929 144.492 188.335 144.897C188.74 145.302 188.968 145.851 188.969 146.424V167.127C188.968 167.7 188.74 168.249 188.335 168.654C187.929 169.059 187.379 169.287 186.806 169.288Z" fill="#E6E6E6"/>
<path d="M97.8717 141.92H80.306C79.7324 141.92 79.1826 141.692 78.777 141.287C78.3715 140.882 78.1433 140.333 78.1427 139.76V119.057C78.1433 118.484 78.3715 117.935 78.777 117.53C79.1826 117.125 79.7324 116.897 80.306 116.896H97.8717C98.4452 116.897 98.995 117.125 99.4006 117.53C99.8062 117.935 100.034 118.484 100.035 119.057V139.76C100.034 140.333 99.8062 140.882 99.4006 141.287C98.995 141.692 98.4452 141.92 97.8717 141.92V141.92Z" fill="white"/>
<path d="M147.386 103.99H129.821C129.247 103.989 128.697 103.762 128.292 103.357C127.886 102.952 127.658 102.402 127.657 101.83V81.1265C127.658 80.5537 127.886 80.0045 128.292 79.5995C128.697 79.1944 129.247 78.9666 129.821 78.9659H147.386C147.96 78.9666 148.51 79.1944 148.915 79.5995C149.321 80.0045 149.549 80.5537 149.55 81.1265V101.83C149.549 102.402 149.321 102.952 148.915 103.357C148.51 103.762 147.96 103.989 147.386 103.99V103.99Z" fill="#E6E6E6"/>
<path d="M133.005 46.5726H105.604C105.094 46.5726 104.605 46.3703 104.244 46.0101C103.883 45.6499 103.681 45.1614 103.681 44.6521C103.681 44.1427 103.883 43.6542 104.244 43.2941C104.605 42.9339 105.094 42.7316 105.604 42.7316H133.005C133.515 42.7316 134.004 42.9339 134.365 43.2941C134.725 43.6542 134.928 44.1427 134.928 44.6521C134.928 45.1614 134.725 45.6499 134.365 46.0101C134.004 46.3703 133.515 46.5726 133.005 46.5726Z" fill="white"/>
<path d="M210.402 46.5726H183C182.49 46.5726 182.001 46.3703 181.641 46.0101C181.28 45.6499 181.078 45.1614 181.078 44.6521C181.078 44.1427 181.28 43.6542 181.641 43.2941C182.001 42.9339 182.49 42.7316 183 42.7316H210.402C210.912 42.7316 211.401 42.9339 211.761 43.2941C212.122 43.6542 212.325 44.1427 212.325 44.6521C212.325 45.1614 212.122 45.6499 211.761 46.0101C211.401 46.3703 210.912 46.5726 210.402 46.5726Z" fill="white"/>
<path d="M282.991 46.5726H255.59C255.08 46.5726 254.591 46.3703 254.23 46.0101C253.87 45.6499 253.667 45.1614 253.667 44.6521C253.667 44.1427 253.87 43.6542 254.23 43.2941C254.591 42.9339 255.08 42.7316 255.59 42.7316H282.991C283.501 42.7316 283.99 42.9339 284.351 43.2941C284.712 43.6542 284.914 44.1427 284.914 44.6521C284.914 45.1614 284.712 45.6499 284.351 46.0101C283.99 46.3703 283.501 46.5726 282.991 46.5726Z" fill="white"/>
<path d="M350.773 46.5726H323.372C322.862 46.5726 322.373 46.3703 322.012 46.0101C321.652 45.6499 321.449 45.1614 321.449 44.6521C321.449 44.1427 321.652 43.6542 322.012 43.2941C322.373 42.9339 322.862 42.7316 323.372 42.7316H350.773C351.283 42.7316 351.772 42.9339 352.133 43.2941C352.494 43.6542 352.696 44.1427 352.696 44.6521C352.696 45.1614 352.494 45.6499 352.133 46.0101C351.772 46.3703 351.283 46.5726 350.773 46.5726Z" fill="white"/>
<path d="M71.6324 187.199C70.929 187.13 70.2493 186.908 69.6412 186.548C69.033 186.189 68.5112 185.7 68.1125 185.118C67.7137 184.535 67.4478 183.872 67.3333 183.175C67.2189 182.479 67.2587 181.766 67.45 181.086L55.1277 169.63L61.6428 167.979L73.7599 177.795C74.8814 178.192 75.8183 178.985 76.3931 180.026C76.9678 181.066 77.1404 182.281 76.8781 183.441C76.6159 184.6 75.9371 185.622 74.9702 186.315C74.0034 187.008 72.8158 187.322 71.6324 187.199V187.199Z" fill="#FFB8B8"/>
<path d="M88.6476 271.875H94.5413L97.3448 249.171H88.6466L88.6476 271.875Z" fill="#FFB8B8"/>
<path d="M105.907 277.34L87.3848 277.341L87.3845 270.193L98.7507 270.193C100.649 270.193 102.469 270.946 103.811 272.286C105.153 273.627 105.907 275.445 105.907 277.34V277.34L105.907 277.34Z" fill="#2F2E41"/>
<path d="M48.2383 267.625L53.9339 269.139L62.4913 247.92L54.0858 245.685L48.2383 267.625Z" fill="#FFB8B8"/>
<path d="M63.51 277.342L45.6106 272.584L47.4514 265.676L58.4351 268.596C60.2693 269.084 61.8344 270.279 62.7861 271.92C63.7378 273.56 63.9982 275.51 63.51 277.342V277.342V277.342Z" fill="#2F2E41"/>
<path d="M96.1262 267.576H87.1331C86.5651 267.578 86.0169 267.368 85.5964 266.987C85.1759 266.605 84.9137 266.08 84.8612 265.515L79.4019 208.893C79.3619 208.477 79.1786 208.089 78.8834 207.794C78.5882 207.498 78.1994 207.315 77.7836 207.274C77.3678 207.234 76.9509 207.339 76.6041 207.571C76.2573 207.804 76.0022 208.15 75.8825 208.55L60.0313 261.46C59.8637 262.022 59.4851 262.498 58.9746 262.788C58.4641 263.079 57.861 263.161 57.2912 263.018L48.9251 260.929C48.6331 260.856 48.3585 260.726 48.1169 260.547C47.8754 260.367 47.6717 260.142 47.5177 259.884C47.3637 259.626 47.2623 259.339 47.2194 259.042C47.1766 258.744 47.1931 258.441 47.2679 258.15C47.4046 257.617 60.9256 204.842 61.0437 204.3C64.1073 181.749 67.7724 175.706 69.7415 172.46C69.9045 172.191 70.0542 171.944 70.1891 171.711C70.3579 171.419 71.3969 168.521 72.056 166.638C72.1416 166.332 72.2898 166.047 72.4913 165.801C72.6928 165.555 72.9432 165.353 73.2266 165.209C81.5002 160.983 91.1804 163.908 93.9502 164.905C94.4094 165.067 94.8038 165.373 95.0742 165.777C103.383 178.295 99.3057 250.996 98.4038 265.443C98.3663 266.021 98.11 266.563 97.687 266.959C97.2641 267.355 96.7061 267.576 96.1262 267.576V267.576Z" fill="#2F2E41"/>
<path d="M72.9183 124.155C79.4392 124.155 84.7254 118.875 84.7254 112.362C84.7254 105.849 79.4392 100.57 72.9183 100.57C66.3974 100.57 61.1112 105.849 61.1112 112.362C61.1112 118.875 66.3974 124.155 72.9183 124.155Z" fill="#FFB8B8"/>
<path d="M71.6673 168.928L71.5825 168.846C71.4233 168.692 55.6918 153.299 57.7277 139.066C58.5984 132.978 63.5302 129.088 71.9897 127.816C75.0975 127.355 78.2676 128.03 80.9171 129.717C83.5666 131.404 85.5175 133.989 86.4113 136.997L94.7759 165.557L71.6673 168.928Z" fill="#FFF065"/>
<path d="M63.6156 179.876L52.4059 168.751C51.6394 167.986 51.0829 167.037 50.79 165.995C50.497 164.953 50.4774 163.853 50.7331 162.802L56.1598 140.755C56.3224 140.094 56.6189 139.474 57.0312 138.932C57.4435 138.391 57.9626 137.939 58.5565 137.606C59.1505 137.273 59.8065 137.065 60.4841 136.996C61.1617 136.926 61.8463 136.996 62.4957 137.201C63.7335 137.6 64.7673 138.464 65.3783 139.611C65.9893 140.757 66.1294 142.096 65.769 143.344L60.0558 162.74L69.2945 172.648L63.6156 179.876Z" fill="#FFF065"/>
<path d="M123.741 141.908C123.444 142.549 123.011 143.117 122.471 143.573C121.931 144.028 121.297 144.36 120.615 144.544C119.933 144.728 119.219 144.761 118.523 144.64C117.826 144.519 117.165 144.247 116.586 143.843L101.621 151.589L102.282 145.009L115.549 136.809C116.293 135.881 117.352 135.259 118.525 135.059C119.697 134.859 120.903 135.096 121.913 135.725C122.922 136.353 123.666 137.33 124.003 138.47C124.34 139.609 124.247 140.833 123.741 141.908H123.741Z" fill="#FFB8B8"/>
<path d="M114.951 146.807L100.363 153.103C99.3922 153.519 98.3305 153.678 97.28 153.566C96.2296 153.453 95.2258 153.072 94.3652 152.46L75.8146 139.185C75.2609 138.789 74.7946 138.284 74.4444 137.7C74.0942 137.117 73.8676 136.468 73.7787 135.793C73.6898 135.119 73.7404 134.433 73.9274 133.779C74.1144 133.125 74.4338 132.516 74.8658 131.99C75.6961 130.99 76.8835 130.353 78.1764 130.212C79.4693 130.072 80.7662 130.439 81.7924 131.237L97.6988 143.741L110.342 138.855L114.951 146.807Z" fill="#FFF065"/>
<path d="M74.8757 116.141C76.3322 114.318 79.0535 114.22 81.0543 113.018C83.6752 111.443 84.7587 107.923 83.9141 104.987C83.0695 102.051 80.5788 99.7628 77.7231 98.6684C74.8675 97.574 71.6903 97.5605 68.6779 98.0895C64.1926 98.8772 59.7767 100.968 57.0412 104.604C54.3057 108.241 53.6095 113.566 56.0886 117.382C57.2281 119.135 58.987 120.583 59.4419 122.623C60.0391 125.302 58.1577 127.886 56.1421 129.751C53.8458 131.877 51.2113 133.657 49.1995 136.052C47.1878 138.448 45.8462 141.721 46.7642 144.71C47.5334 147.215 49.7716 149.06 52.2259 149.984C54.6803 150.908 57.3534 151.041 59.9758 151.093C62.5223 151.142 65.227 151.08 67.3722 149.709C69.6687 148.241 70.8949 145.456 70.9855 142.734C71.0761 140.013 70.1654 137.346 68.945 134.911C68.2175 133.459 67.3717 132.053 66.8883 130.503C66.405 128.953 66.3212 127.195 67.0953 125.768C67.909 124.267 69.5553 123.363 71.2315 123.034C71.3186 123.017 71.4108 123.001 71.5072 122.988C71.9841 122.926 72.4435 122.768 72.8577 122.524C73.2719 122.28 73.6321 121.954 73.9167 121.567C74.2013 121.18 74.4043 120.739 74.5135 120.271C74.6226 119.803 74.6356 119.318 74.5517 118.845C74.3608 117.782 74.3772 116.765 74.8757 116.141Z" fill="#2F2E41"/>
<path d="M232.3 272.378H226.406L223.603 249.673L232.301 249.674L232.3 272.378Z" fill="#A0616A"/>
<path d="M222.197 270.696H233.563V277.844H215.04C215.04 276.905 215.225 275.975 215.585 275.108C215.945 274.241 216.472 273.453 217.136 272.789C217.801 272.126 218.59 271.599 219.458 271.24C220.326 270.881 221.257 270.696 222.197 270.696Z" fill="#2F2E41"/>
<path d="M275.063 265.71L269.702 268.156L257.706 248.668L265.619 245.058L275.063 265.71Z" fill="#A0616A"/>
<path d="M265.173 268.373L275.512 263.656L278.485 270.158L261.637 277.844C261.247 276.99 261.028 276.068 260.995 275.13C260.961 274.192 261.113 273.256 261.441 272.377C261.77 271.497 262.268 270.691 262.909 270.004C263.549 269.317 264.318 268.763 265.173 268.373V268.373Z" fill="#2F2E41"/>
<path d="M257.9 195.824C258.465 195.4 258.929 194.857 259.261 194.234C259.593 193.611 259.784 192.923 259.821 192.218C259.857 191.513 259.739 190.808 259.474 190.154C259.208 189.5 258.803 188.912 258.285 188.431L265.213 172.731L256.412 174.221L251.182 188.902C250.431 189.823 250.045 190.988 250.097 192.176C250.148 193.363 250.634 194.49 251.462 195.343C252.29 196.197 253.403 196.717 254.59 196.806C255.776 196.894 256.954 196.545 257.9 195.824Z" fill="#A0616A"/>
<path d="M231.924 266.391H226.294C225.748 266.389 225.223 266.182 224.823 265.811C224.423 265.439 224.178 264.931 224.137 264.387L221.066 182.497C221.043 182.183 221.089 181.868 221.201 181.574C221.313 181.28 221.488 181.014 221.713 180.794C221.939 180.574 222.21 180.406 222.507 180.302C222.804 180.198 223.12 180.16 223.434 180.19L255.996 183.644C256.524 183.695 257.014 183.939 257.374 184.328C257.734 184.717 257.938 185.224 257.949 185.753L258.631 221.876C258.635 222.072 258.673 222.266 258.743 222.449L272.1 257.044C272.204 257.311 272.253 257.596 272.244 257.882C272.236 258.169 272.171 258.451 272.053 258.712C271.935 258.973 271.766 259.207 271.556 259.403C271.346 259.598 271.099 259.749 270.83 259.848L265.124 261.948C264.629 262.13 264.084 262.125 263.592 261.934C263.1 261.742 262.694 261.378 262.453 260.909L246.044 229.043C245.955 228.87 245.89 228.685 245.85 228.494L243.047 215.006C242.966 214.615 242.748 214.265 242.432 214.02C242.116 213.775 241.723 213.65 241.324 213.668C240.924 213.687 240.544 213.846 240.252 214.119C239.959 214.391 239.774 214.759 239.728 215.156L234.074 264.476C234.013 265.003 233.761 265.49 233.365 265.843C232.968 266.196 232.456 266.391 231.924 266.391V266.391Z" fill="#2F2E41"/>
<path d="M234.728 118.467C241.249 118.467 246.535 113.187 246.535 106.674C246.535 100.161 241.249 94.8818 234.728 94.8818C228.207 94.8818 222.921 100.161 222.921 106.674C222.921 113.187 228.207 118.467 234.728 118.467Z" fill="#A0616A"/>
<path d="M242.825 189.985C234.818 189.897 227.002 187.532 220.292 183.168L220.177 183.089L220.189 182.95L224.706 130.416C224.861 128.633 225.658 126.968 226.948 125.727C228.238 124.485 229.934 123.753 231.724 123.664C237.577 123.396 245.439 123.734 249.648 126.865C256.008 131.596 259.074 138.721 258.058 146.412C255.953 162.362 258.338 183.877 258.617 186.277L258.637 186.45L258.479 186.523C253.575 188.801 248.233 189.983 242.825 189.985V189.985Z" fill="white"/>
<path d="M258.562 186.366C258.23 186.366 257.901 186.296 257.596 186.162C257.291 186.028 257.018 185.832 256.793 185.587L254.21 182.773C253.931 182.467 253.736 182.095 253.642 181.692C253.549 181.289 253.561 180.868 253.677 180.471L259.566 160.563L250.606 141.769C250.187 140.889 250.085 139.892 250.315 138.946C250.519 138.115 250.969 137.366 251.608 136.796C252.247 136.226 253.043 135.864 253.892 135.755C254.742 135.647 255.604 135.798 256.365 136.189C257.127 136.58 257.752 137.193 258.158 137.946L270.317 157.651C270.811 158.45 271.101 159.359 271.162 160.296C271.222 161.234 271.051 162.172 270.664 163.028L260.756 184.953C260.593 185.315 260.342 185.631 260.026 185.873C259.71 186.114 259.338 186.273 258.945 186.335C258.819 186.356 258.691 186.366 258.562 186.366V186.366Z" fill="white"/>
<path d="M175.338 148.337C175.905 148.759 176.558 149.051 177.25 149.193C177.943 149.335 178.658 149.324 179.345 149.16C180.032 148.996 180.676 148.684 181.229 148.245C181.783 147.806 182.233 147.251 182.549 146.62L199.584 148.826L195.669 140.814L180.092 139.947C178.995 139.487 177.767 139.446 176.641 139.831C175.515 140.215 174.57 140.999 173.984 142.033C173.398 143.068 173.212 144.281 173.462 145.442C173.711 146.604 174.379 147.634 175.338 148.337V148.337Z" fill="#A0616A"/>
<path d="M212.889 152.714C212.592 152.713 212.296 152.693 212.002 152.652L185.201 148.94C184.763 148.88 184.347 148.712 183.99 148.451C183.633 148.19 183.347 147.845 183.157 147.446C183.096 147.317 183.045 147.184 183.005 147.048H183.005C182.901 146.693 182.872 146.321 182.919 145.955C182.967 145.589 183.09 145.236 183.281 144.92L185.499 141.248C185.737 140.855 186.073 140.53 186.473 140.305C186.874 140.079 187.325 139.959 187.785 139.958H187.789L211.15 139.985L228.597 124.372C229.409 123.648 230.446 123.224 231.533 123.172C232.488 123.128 233.434 123.374 234.246 123.878C235.058 124.381 235.698 125.119 236.082 125.993C236.466 126.867 236.575 127.837 236.396 128.775C236.217 129.713 235.757 130.574 235.077 131.246L217.668 150.585C217.065 151.255 216.329 151.79 215.505 152.157C214.682 152.524 213.79 152.713 212.889 152.714V152.714Z" fill="white"/>
<path d="M236.07 117.165C237.149 114.671 238.062 111.35 235.993 109.586C234.792 108.563 233.063 108.561 231.491 108.434C227.06 108.076 222.498 106.039 220.333 102.162C218.167 98.2844 219.376 92.5187 223.462 90.7693C226.216 89.5901 229.374 90.3934 232.257 91.2099L240.913 93.6614C243.485 94.3899 246.185 95.1932 248.036 97.1191C250.989 100.191 250.769 105.383 248.423 108.939C246.078 112.495 242.546 116.204 238.502 117.554L236.07 117.165Z" fill="#2F2E41"/>
<path d="M355.488 278H0.572342C0.497035 278 0.422428 277.986 0.35279 277.957C0.283153 277.928 0.21986 277.886 0.166533 277.833C0.113205 277.78 0.0708932 277.717 0.0420239 277.647C0.0131546 277.578 -0.00170898 277.504 -0.00170898 277.428C-0.00170898 277.353 0.0131546 277.279 0.0420239 277.209C0.0708932 277.14 0.113205 277.077 0.166533 277.023C0.21986 276.97 0.283153 276.928 0.35279 276.9C0.422428 276.871 0.497035 276.856 0.572342 276.857H355.488C355.564 276.856 355.638 276.871 355.708 276.9C355.778 276.928 355.841 276.97 355.894 277.023C355.948 277.077 355.99 277.14 356.019 277.209C356.048 277.279 356.062 277.353 356.062 277.428C356.062 277.504 356.048 277.578 356.019 277.647C355.99 277.717 355.948 277.78 355.894 277.833C355.841 277.886 355.778 277.928 355.708 277.957C355.638 277.986 355.564 278 355.488 278V278Z" fill="white"/>
</g>
<defs>
<clipPath id="clip0">
<rect width="395" height="278" fill="white"/>
</clipPath>
</defs>
</svg>
