<svg width="354" height="268" viewBox="0 0 354 268" fill="none" xmlns="http://www.w3.org/2000/svg">
<g clip-path="url(#clip0)">
<path opacity="0.1" d="M332.826 145.476C320.38 162.531 324.488 186.876 331.681 206.271C334.091 212.763 336.828 219.631 335.579 226.695C334.053 235.33 326.881 241.8 319.427 245.325C305.837 251.747 289.784 250.722 277.628 242.629C267.138 235.644 259.753 224.037 249.06 217.386C231.163 206.258 207.929 211.23 188.01 219.726C173.918 225.736 158.482 233.476 144.749 227.926C135.085 224.021 128.578 214.081 125.155 203.455C123.502 198.324 122.344 192.756 119.051 188.74C117.093 186.352 114.505 184.688 111.845 183.298C87.5615 170.599 56.3261 178.536 32.7835 164.366C16.8892 154.797 6.99664 136.228 2.88639 116.706C-1.22387 97.1839 -0.206633 76.576 1.43048 56.3206C2.59394 41.926 4.43449 26.5439 13.1 15.232C22.2647 3.27242 37.6249 -1.4803 51.3607 0.392847C65.0965 2.266 77.4114 9.88559 88.1845 18.9815C101.66 30.3283 114.057 44.5738 130.816 48.882C142.231 51.8156 154.359 49.7392 166.225 48.8217C186.061 47.2914 205.827 49.0535 225.473 51.0441C244.279 52.949 263.215 55.0761 281.026 61.321C293.63 65.7403 303.622 74.0933 315.488 79.8017C323.222 83.5226 331.732 84.3861 339.012 89.1928C347.995 95.1139 356.114 105.604 353.479 118.192C350.99 130.158 339.438 136.425 332.826 145.476Z" fill="#F59B66"/>
<g opacity="0.5">
<path opacity="0.5" d="M271.789 223.267C271.789 223.267 272.838 192.23 289.651 174.692C296.708 167.333 301.342 157.986 302.569 147.871C303.143 143.07 303.275 138.228 302.964 133.403" stroke="#535461" stroke-width="2" stroke-miterlimit="10"/>
<path opacity="0.5" d="M313.495 122.294C312.344 125.761 302.725 133.724 302.725 133.724C302.725 133.724 299.778 121.593 300.929 118.129C301.203 117.305 301.636 116.543 302.205 115.886C302.773 115.229 303.466 114.691 304.243 114.301C305.02 113.912 305.866 113.679 306.733 113.616C307.6 113.553 308.471 113.662 309.296 113.935C310.121 114.208 310.884 114.641 311.542 115.209C312.199 115.777 312.738 116.469 313.128 117.245C313.518 118.021 313.751 118.866 313.814 119.731C313.877 120.597 313.769 121.467 313.495 122.291V122.294Z" fill="#F59B66"/>
<path opacity="0.5" d="M317.504 144.931C314.643 147.217 302.245 148.684 302.245 148.684C302.245 148.684 306.378 136.902 309.239 134.619C309.911 134.034 310.696 133.591 311.544 133.317C312.393 133.042 313.289 132.942 314.177 133.022C315.066 133.101 315.929 133.36 316.715 133.781C317.501 134.203 318.193 134.779 318.751 135.474C319.308 136.17 319.719 136.971 319.959 137.829C320.198 138.687 320.262 139.585 320.146 140.468C320.029 141.351 319.735 142.202 319.281 142.969C318.827 143.736 318.222 144.403 317.504 144.931V144.931Z" fill="#F59B66"/>
<path opacity="0.5" d="M306.162 177.581C302.544 178.114 291.091 173.136 291.091 173.136C291.091 173.136 300.608 165.047 304.226 164.513C305.086 164.386 305.962 164.43 306.805 164.641C307.648 164.853 308.442 165.228 309.14 165.745C309.838 166.263 310.427 166.913 310.873 167.657C311.32 168.402 311.615 169.228 311.742 170.087C311.869 170.946 311.826 171.821 311.614 172.663C311.402 173.505 311.027 174.297 310.508 174.994C309.99 175.692 309.34 176.28 308.594 176.726C307.848 177.172 307.021 177.467 306.162 177.594V177.581Z" fill="#F59B66"/>
<path opacity="0.5" d="M292.006 200.357C288.532 201.494 276.398 198.509 276.398 198.509C276.398 198.509 284.412 188.931 287.886 187.794C289.554 187.247 291.372 187.384 292.939 188.175C294.506 188.966 295.694 190.346 296.242 192.012C296.79 193.678 296.653 195.493 295.861 197.058C295.069 198.623 293.687 199.81 292.019 200.357H292.006Z" fill="#F59B66"/>
<path opacity="0.5" d="M288.827 144.985C290.515 148.223 301.292 154.563 301.292 154.563C301.292 154.563 302.271 142.121 300.583 138.88C300.181 138.11 299.632 137.426 298.967 136.868C298.301 136.31 297.532 135.888 296.703 135.627C295.874 135.366 295.002 135.27 294.136 135.346C293.27 135.421 292.427 135.666 291.656 136.067C290.885 136.467 290.201 137.016 289.642 137.681C289.083 138.346 288.661 139.114 288.4 139.942C288.138 140.77 288.042 141.641 288.118 142.505C288.193 143.37 288.439 144.212 288.84 144.982L288.827 144.985Z" fill="#F59B66"/>
<path opacity="0.5" d="M272.612 171.828C275.193 174.416 287.362 177.247 287.362 177.247C287.362 177.247 284.568 165.082 281.99 162.494C280.751 161.252 279.068 160.553 277.313 160.549C275.558 160.546 273.873 161.239 272.629 162.477C271.386 163.714 270.685 165.394 270.682 167.147C270.679 168.9 271.373 170.583 272.612 171.825V171.828Z" fill="#F59B66"/>
<path opacity="0.5" d="M260.437 200.081C262.541 203.065 274.058 207.913 274.058 207.913C274.058 207.913 273.365 195.452 271.258 192.464C270.77 191.724 270.138 191.089 269.4 190.597C268.662 190.105 267.832 189.767 266.96 189.602C266.088 189.437 265.191 189.448 264.324 189.636C263.457 189.824 262.636 190.185 261.911 190.696C261.186 191.207 260.571 191.859 260.103 192.612C259.636 193.365 259.324 194.205 259.188 195.081C259.052 195.956 259.093 196.851 259.31 197.71C259.527 198.57 259.914 199.377 260.45 200.084L260.437 200.081Z" fill="#F59B66"/>
<path opacity="0.5" d="M275.482 210.421C275.482 210.421 265.946 196.566 267.618 183.531C268.355 178.067 267.297 172.513 264.604 167.701C263.308 165.426 261.805 163.276 260.116 161.275" stroke="#535461" stroke-width="2" stroke-miterlimit="10"/>
<path opacity="0.5" d="M261.123 153.052C261.737 154.932 260.116 161.491 260.116 161.491C260.116 161.491 254.925 157.154 254.311 155.278C254.016 154.376 254.092 153.393 254.522 152.547C254.952 151.7 255.701 151.059 256.605 150.765C257.508 150.47 258.492 150.546 259.339 150.975C260.186 151.405 260.828 152.153 261.123 153.055V153.052Z" fill="#F59B66"/>
<path opacity="0.5" d="M270.161 161.621C269.656 163.526 264.722 168.158 264.722 168.158C264.722 168.158 262.726 161.7 263.231 159.789C263.474 158.871 264.073 158.088 264.895 157.61C265.716 157.133 266.694 157.002 267.613 157.245C268.532 157.487 269.317 158.085 269.795 158.906C270.273 159.727 270.404 160.703 270.161 161.621V161.621Z" fill="#F59B66"/>
<path opacity="0.5" d="M275.737 179.483C274.335 180.876 267.739 182.384 267.739 182.384C267.739 182.384 269.277 175.803 270.682 174.409C271.016 174.078 271.412 173.815 271.848 173.637C272.283 173.458 272.75 173.367 273.221 173.368C273.692 173.37 274.158 173.464 274.592 173.645C275.026 173.827 275.421 174.092 275.753 174.425C276.085 174.759 276.347 175.154 276.526 175.589C276.705 176.024 276.796 176.49 276.795 176.96C276.793 177.431 276.699 177.896 276.518 178.33C276.336 178.764 276.071 179.158 275.737 179.489V179.483Z" fill="#F59B66"/>
<path opacity="0.5" d="M276.91 193.95C275.762 195.56 269.503 198.154 269.503 198.154C269.503 198.154 269.907 191.407 271.054 189.798C271.327 189.414 271.672 189.089 272.071 188.839C272.47 188.589 272.914 188.42 273.378 188.342C273.842 188.263 274.317 188.277 274.775 188.382C275.234 188.487 275.668 188.681 276.051 188.953C276.435 189.225 276.761 189.57 277.011 189.969C277.261 190.367 277.431 190.81 277.509 191.274C277.588 191.737 277.574 192.211 277.469 192.67C277.364 193.128 277.17 193.561 276.897 193.944L276.91 193.95Z" fill="#F59B66"/>
<path opacity="0.5" d="M257.69 170.85C259.467 171.72 266.197 171.022 266.197 171.022C266.197 171.022 262.614 165.288 260.837 164.421C259.984 164.004 258.999 163.943 258.101 164.251C257.202 164.56 256.463 165.212 256.045 166.064C255.628 166.917 255.567 167.9 255.875 168.797C256.184 169.695 256.837 170.433 257.69 170.85V170.85Z" fill="#F59B66"/>
<path opacity="0.5" d="M259.277 187.756C261.235 188.055 267.446 185.378 267.446 185.378C267.446 185.378 262.309 180.978 260.354 180.692C259.415 180.549 258.457 180.785 257.691 181.348C256.926 181.911 256.416 182.754 256.273 183.692C256.13 184.631 256.366 185.588 256.929 186.352C257.493 187.117 258.337 187.626 259.277 187.769V187.756Z" fill="#F59B66"/>
<path opacity="0.5" d="M263.072 203.97C264.951 204.605 271.528 203.018 271.528 203.018C271.528 203.018 267.211 197.814 265.332 197.189C264.43 196.889 263.446 196.96 262.596 197.386C261.747 197.811 261.101 198.556 260.801 199.457C260.501 200.358 260.572 201.341 260.998 202.19C261.424 203.038 262.17 203.683 263.072 203.983V203.97Z" fill="#F59B66"/>
<path opacity="0.5" d="M261.123 153.052C261.737 154.932 260.116 161.491 260.116 161.491C260.116 161.491 254.925 157.154 254.311 155.278C254.016 154.376 254.092 153.393 254.522 152.547C254.952 151.7 255.701 151.059 256.605 150.765C257.508 150.47 258.492 150.546 259.339 150.975C260.186 151.405 260.828 152.153 261.123 153.055V153.052Z" fill="white"/>
<path opacity="0.5" d="M270.161 161.621C269.656 163.526 264.722 168.158 264.722 168.158C264.722 168.158 262.726 161.7 263.231 159.789C263.474 158.871 264.073 158.088 264.895 157.61C265.716 157.133 266.694 157.002 267.613 157.245C268.532 157.487 269.317 158.085 269.795 158.906C270.273 159.727 270.404 160.703 270.161 161.621V161.621Z" fill="white"/>
<path opacity="0.5" d="M275.737 179.483C274.335 180.876 267.739 182.384 267.739 182.384C267.739 182.384 269.277 175.803 270.682 174.409C271.016 174.078 271.412 173.815 271.848 173.637C272.283 173.458 272.75 173.367 273.221 173.368C273.692 173.37 274.158 173.464 274.592 173.645C275.026 173.827 275.421 174.092 275.753 174.425C276.085 174.759 276.347 175.154 276.526 175.589C276.705 176.024 276.796 176.49 276.795 176.96C276.793 177.431 276.699 177.896 276.518 178.33C276.336 178.764 276.071 179.158 275.737 179.489V179.483Z" fill="white"/>
<path opacity="0.5" d="M276.91 193.95C275.762 195.56 269.503 198.154 269.503 198.154C269.503 198.154 269.907 191.407 271.054 189.798C271.327 189.414 271.672 189.089 272.071 188.839C272.47 188.589 272.914 188.42 273.378 188.342C273.842 188.263 274.317 188.277 274.775 188.382C275.234 188.487 275.668 188.681 276.051 188.953C276.435 189.225 276.761 189.57 277.011 189.969C277.261 190.367 277.431 190.81 277.509 191.274C277.588 191.737 277.574 192.211 277.469 192.67C277.364 193.128 277.17 193.561 276.897 193.944L276.91 193.95Z" fill="white"/>
<path opacity="0.5" d="M257.69 170.85C259.467 171.72 266.197 171.022 266.197 171.022C266.197 171.022 262.614 165.288 260.837 164.421C259.984 164.004 258.999 163.943 258.101 164.251C257.202 164.56 256.463 165.212 256.045 166.064C255.628 166.917 255.567 167.9 255.875 168.797C256.184 169.695 256.837 170.433 257.69 170.85V170.85Z" fill="white"/>
<path opacity="0.5" d="M259.277 187.756C261.235 188.055 267.446 185.378 267.446 185.378C267.446 185.378 262.309 180.978 260.354 180.692C259.415 180.549 258.457 180.785 257.691 181.348C256.926 181.911 256.416 182.754 256.273 183.692C256.13 184.631 256.366 185.588 256.929 186.352C257.493 187.117 258.337 187.626 259.277 187.769V187.756Z" fill="white"/>
<path opacity="0.5" d="M263.072 203.97C264.951 204.605 271.528 203.018 271.528 203.018C271.528 203.018 267.211 197.814 265.332 197.189C264.43 196.889 263.446 196.96 262.596 197.386C261.747 197.811 261.101 198.556 260.801 199.457C260.501 200.358 260.572 201.341 260.998 202.19C261.424 203.038 262.17 203.683 263.072 203.983V203.97Z" fill="white"/>
<path opacity="0.5" d="M257.837 247.989H284.962L291.745 206.675H251.056L257.837 247.989Z" fill="#474059"/>
<path opacity="0.1" d="M256.247 206.675L262.583 245.281H285.407L284.962 247.989H257.837L251.056 206.675H256.247Z" fill="black"/>
</g>
<path d="M262.98 12.4739H63.9839V252.269H262.98V12.4739Z" fill="url(#paint0_linear)"/>
<path d="M260.437 15.5408H66.527V249.208H260.437V15.5408Z" fill="white"/>
<path d="M220.065 41.8918H141.866V45.7016H220.065V41.8918Z" fill="#C0BCCF"/>
<path d="M220.065 53.9562H141.866V57.766H220.065V53.9562Z" fill="#C0BCCF"/>
<path d="M201.31 66.0206H160.621V69.8304H201.31V66.0206Z" fill="#F59B66"/>
<path opacity="0.5" d="M220.065 118.405H141.866V122.215H220.065V118.405Z" fill="#C0BCCF"/>
<path opacity="0.5" d="M220.065 130.47H141.866V134.279H220.065V130.47Z" fill="#C0BCCF"/>
<path opacity="0.5" d="M201.31 142.534H160.621V146.344H201.31V142.534Z" fill="#F59B66"/>
<path opacity="0.5" d="M220.065 194.919H141.866V198.728H220.065V194.919Z" fill="#C0BCCF"/>
<path opacity="0.5" d="M220.065 206.983H141.866V210.793H220.065V206.983Z" fill="#C0BCCF"/>
<path opacity="0.5" d="M201.31 219.047H160.621V222.857H201.31V219.047Z" fill="#F59B66"/>
<g opacity="0.5">
<path opacity="0.5" d="M114.334 139.654L112.693 138.918C112.718 138.669 112.729 138.419 112.725 138.169C112.737 137.957 112.737 137.745 112.725 137.534C112.563 135.864 111.498 134.41 110.745 132.882C110.055 131.488 109.617 129.984 109.451 128.438C109.251 126.533 109.451 124.558 108.752 122.767C108.183 121.323 107.057 120.116 105.852 119.05C104.5 117.782 102.92 116.782 101.195 116.1C99.4344 115.465 97.4094 115.303 95.6484 115.951C94.0589 116.535 92.8351 117.7 91.6525 118.834C90.7939 119.589 90.0354 120.451 89.3956 121.399C88.674 122.58 88.3656 123.939 88.124 125.279C87.7444 127.424 87.4834 129.588 87.342 131.762C87.218 133.575 87.0241 135.632 85.4729 136.743C84.7163 137.286 83.6514 137.591 83.3049 138.413C83.2067 138.66 83.1675 138.926 83.1904 139.191C83.1809 139.411 83.1969 139.632 83.2381 139.848C83.2604 139.975 83.2858 140.099 83.3176 140.226C82.8724 141.331 82.4986 142.464 82.1986 143.617C81.9666 144.474 81.7536 145.315 81.5629 146.131H82.0778H82.3512L85.3139 146.201H85.3552L88.5341 146.274H88.55L91.5127 146.344H91.5858L92.4409 146.404H92.7206L104.568 146.677H104.632L105.42 146.696H105.697L108.068 146.75L111.565 146.829H111.59L114.222 146.893H114.502H115.043L114.903 144.137C115.481 139.918 114.334 139.654 114.334 139.654ZM101.024 139.318C101.024 141.655 98.5189 144.515 98.5189 144.515L95.998 141.086L96.0902 140.953L98.5189 144.255C98.5189 144.255 101.024 141.397 101.024 139.058C101.082 138.939 101.149 138.824 101.224 138.715L101.281 138.892C101.185 139.028 101.099 139.17 101.024 139.318V139.318ZM104.877 148.487C104.877 148.369 104.877 148.249 104.854 148.131C104.832 148.014 104.835 147.909 104.819 147.795C104.803 147.68 104.791 147.569 104.775 147.455C104.759 147.341 104.737 147.23 104.714 147.115C104.692 147.001 104.67 146.89 104.645 146.776C104.645 146.737 104.629 146.703 104.619 146.661C104.584 146.512 104.546 146.363 104.505 146.214C104.463 146.064 104.438 145.972 104.4 145.855C104.4 145.801 104.368 145.747 104.349 145.696C104.33 145.645 104.295 145.525 104.266 145.439L104.209 145.274C104.184 145.201 104.158 145.125 104.13 145.052C104.082 144.918 104.031 144.788 103.98 144.655C103.929 144.521 103.875 144.391 103.821 144.261C103.713 143.994 103.595 143.731 103.478 143.464C103.017 142.436 102.499 141.423 102.022 140.42C101.766 139.895 101.539 139.356 101.342 138.807L101.281 138.886C101.185 139.022 101.099 139.166 101.024 139.315C101.024 141.651 98.5189 144.512 98.5189 144.512L95.998 141.083L93.7919 144.258C93.474 144.417 93.1561 144.956 92.9082 145.725C92.8383 145.931 92.7715 146.16 92.7079 146.398C92.6634 146.56 92.6221 146.715 92.584 146.896C92.5617 146.982 92.5426 147.068 92.5236 147.157L92.4663 147.426V147.468C92.4282 147.652 92.39 147.842 92.3551 148.036C92.3201 148.23 92.2788 148.452 92.2438 148.671C92.2184 148.808 92.1961 148.945 92.1771 149.08C92.1326 149.344 92.0944 149.611 92.0563 149.877C92.034 150.033 92.0118 150.195 91.9927 150.338L91.9164 150.928C92.0785 151.414 92.2597 151.881 92.4473 152.37C92.5665 152.626 92.6366 152.903 92.6539 153.185C96.5645 154.227 100.68 154.227 104.59 153.185C104.589 153.176 104.589 153.166 104.59 153.157C104.532 152.891 104.506 152.619 104.514 152.347C104.578 151.584 104.685 150.826 104.832 150.074C104.879 149.704 104.899 149.33 104.892 148.957V148.823C104.883 148.703 104.88 148.595 104.877 148.49V148.487ZM104.877 148.487C104.877 148.369 104.877 148.249 104.854 148.131C104.832 148.014 104.835 147.909 104.819 147.795C104.803 147.68 104.791 147.569 104.775 147.455C104.759 147.341 104.737 147.23 104.714 147.115C104.692 147.001 104.67 146.89 104.645 146.776C104.645 146.737 104.629 146.703 104.619 146.661C104.584 146.512 104.546 146.363 104.505 146.214C104.463 146.064 104.438 145.972 104.4 145.855C104.4 145.801 104.368 145.747 104.349 145.696C104.33 145.645 104.295 145.525 104.266 145.439L104.209 145.274C104.184 145.201 104.158 145.125 104.13 145.052C104.082 144.918 104.031 144.788 103.98 144.655C103.929 144.521 103.875 144.391 103.821 144.261C103.713 143.994 103.595 143.731 103.478 143.464C103.017 142.436 102.499 141.423 102.022 140.42C101.766 139.895 101.539 139.356 101.342 138.807L101.281 138.886C101.185 139.022 101.099 139.166 101.024 139.315C101.024 141.651 98.5189 144.512 98.5189 144.512L95.998 141.083L93.7919 144.258C93.474 144.417 93.1561 144.956 92.9082 145.725C92.8383 145.931 92.7715 146.16 92.7079 146.398C92.6634 146.56 92.6221 146.715 92.584 146.896C92.5617 146.982 92.5426 147.068 92.5236 147.157L92.4663 147.426V147.468C92.4282 147.652 92.39 147.842 92.3551 148.036C92.3201 148.23 92.2788 148.452 92.2438 148.671C92.2184 148.808 92.1961 148.945 92.1771 149.08C92.1326 149.344 92.0944 149.611 92.0563 149.877C92.034 150.033 92.0118 150.195 91.9927 150.338L91.9164 150.928C92.0785 151.414 92.2597 151.881 92.4473 152.37C92.5665 152.626 92.6366 152.903 92.6539 153.185C96.5645 154.227 100.68 154.227 104.59 153.185C104.589 153.176 104.589 153.166 104.59 153.157C104.532 152.891 104.506 152.619 104.514 152.347C104.578 151.584 104.685 150.826 104.832 150.074C104.879 149.704 104.899 149.33 104.892 148.957V148.823C104.883 148.703 104.88 148.595 104.877 148.49V148.487ZM104.877 148.487C104.877 148.369 104.877 148.249 104.854 148.131C104.832 148.014 104.835 147.909 104.819 147.795C104.803 147.68 104.791 147.569 104.775 147.455C104.759 147.341 104.737 147.23 104.714 147.115C104.692 147.001 104.67 146.89 104.645 146.776C104.645 146.737 104.629 146.703 104.619 146.661C104.584 146.512 104.546 146.363 104.505 146.214C104.463 146.064 104.438 145.972 104.4 145.855C104.4 145.801 104.368 145.747 104.349 145.696C104.33 145.645 104.295 145.525 104.266 145.439L104.209 145.274C104.184 145.201 104.158 145.125 104.13 145.052C104.082 144.918 104.031 144.788 103.98 144.655C103.929 144.521 103.875 144.391 103.821 144.261C103.713 143.994 103.595 143.731 103.478 143.464C103.017 142.436 102.499 141.423 102.022 140.42C101.766 139.895 101.539 139.356 101.342 138.807L101.281 138.886C101.185 139.022 101.099 139.166 101.024 139.315C101.024 141.651 98.5189 144.512 98.5189 144.512L95.998 141.083L93.7919 144.258C93.474 144.417 93.1561 144.956 92.9082 145.725C92.8383 145.931 92.7715 146.16 92.7079 146.398C92.6634 146.56 92.6221 146.715 92.584 146.896C92.5617 146.982 92.5426 147.068 92.5236 147.157L92.4663 147.426V147.468C92.4282 147.652 92.39 147.842 92.3551 148.036C92.3201 148.23 92.2788 148.452 92.2438 148.671C92.2184 148.808 92.1961 148.945 92.1771 149.08C92.1326 149.344 92.0944 149.611 92.0563 149.877C92.034 150.033 92.0118 150.195 91.9927 150.338L91.9164 150.928C92.0785 151.414 92.2597 151.881 92.4473 152.37C92.5665 152.626 92.6366 152.903 92.6539 153.185C96.5645 154.227 100.68 154.227 104.59 153.185C104.589 153.176 104.589 153.166 104.59 153.157C104.532 152.891 104.506 152.619 104.514 152.347C104.578 151.584 104.685 150.826 104.832 150.074C104.879 149.704 104.899 149.33 104.892 148.957V148.823C104.883 148.703 104.88 148.595 104.877 148.49V148.487ZM104.877 148.487C104.877 148.369 104.877 148.249 104.854 148.131C104.832 148.014 104.835 147.909 104.819 147.795C104.803 147.68 104.791 147.569 104.775 147.455C104.759 147.341 104.737 147.23 104.714 147.115C104.692 147.001 104.67 146.89 104.645 146.776C104.645 146.737 104.629 146.703 104.619 146.661C104.584 146.512 104.546 146.363 104.505 146.214C104.463 146.064 104.438 145.972 104.4 145.855C104.4 145.801 104.368 145.747 104.349 145.696C104.33 145.645 104.295 145.525 104.266 145.439L104.209 145.274C104.184 145.201 104.158 145.125 104.13 145.052C104.082 144.918 104.031 144.788 103.98 144.655C103.929 144.521 103.875 144.391 103.821 144.261C103.713 143.994 103.595 143.731 103.478 143.464C103.017 142.436 102.499 141.423 102.022 140.42C101.766 139.895 101.539 139.356 101.342 138.807L101.281 138.886C101.185 139.022 101.099 139.166 101.024 139.315C101.024 141.651 98.5189 144.512 98.5189 144.512L95.998 141.083L93.7919 144.258C93.474 144.417 93.1561 144.956 92.9082 145.725C92.8383 145.931 92.7715 146.16 92.7079 146.398C92.6634 146.56 92.6221 146.715 92.584 146.896C92.5617 146.982 92.5426 147.068 92.5236 147.157L92.4663 147.426V147.468C92.4282 147.652 92.39 147.842 92.3551 148.036C92.3201 148.23 92.2788 148.452 92.2438 148.671C92.2184 148.808 92.1961 148.945 92.1771 149.08C92.1326 149.344 92.0944 149.611 92.0563 149.877C92.034 150.033 92.0118 150.195 91.9927 150.338L91.9164 150.928C92.0785 151.414 92.2597 151.881 92.4473 152.37C92.5665 152.626 92.6366 152.903 92.6539 153.185C96.5645 154.227 100.68 154.227 104.59 153.185C104.589 153.176 104.589 153.166 104.59 153.157C104.532 152.891 104.506 152.619 104.514 152.347C104.578 151.584 104.685 150.826 104.832 150.074C104.879 149.704 104.899 149.33 104.892 148.957V148.823C104.883 148.703 104.88 148.595 104.877 148.49V148.487Z" fill="url(#paint1_linear)"/>
<path opacity="0.5" d="M104.991 126.342H90.3683V136.184H104.991V126.342Z" fill="#493545"/>
<path opacity="0.5" d="M107.42 137.197L101.3 145.807L94.9045 145.252C94.9045 145.252 86.56 145.804 92.123 139.419C94.7964 136.349 95.6706 133.79 95.8581 131.965C96.0616 129.99 95.4608 128.866 95.4608 128.866L102.413 128.034C102.099 128.97 102.06 129.976 102.298 130.933C103.169 134.54 107.42 137.197 107.42 137.197Z" fill="#C77485"/>
<path opacity="0.1" d="M102.295 130.924C101.389 131.609 100.327 132.062 99.2043 132.243C98.0814 132.423 96.9313 132.326 95.855 131.959C96.0584 129.984 95.4576 128.86 95.4576 128.86L102.41 128.028C102.097 128.963 102.057 129.967 102.295 130.924Z" fill="black"/>
<path opacity="0.5" d="M98.1025 132.054C101.942 132.054 105.055 128.945 105.055 125.11C105.055 121.276 101.942 118.167 98.1025 118.167C94.263 118.167 91.1504 121.276 91.1504 125.11C91.1504 128.945 94.263 132.054 98.1025 132.054Z" fill="#C77485"/>
<path opacity="0.1" d="M107.165 137.553L107.003 136.918L106.863 136.359L106.657 135.533L106.619 135.381L106.587 135.254C106.587 135.254 106.752 134.756 105.662 134.918L105.458 134.952C105.287 134.987 105.086 135.035 104.857 135.099L104.651 135.162L104.377 135.248C103.512 135.529 102.722 136.005 102.07 136.638C101.777 136.918 101.517 137.232 101.297 137.572C101.275 137.603 101.259 137.632 101.24 137.657C101.165 137.775 101.098 137.898 101.04 138.026C101.04 140.527 98.5347 143.582 98.5347 143.582L96.0902 140.054L96.0425 139.985L95.4608 139.14L95.2542 138.867L95.1842 138.772L93.9127 137.067L93.5948 136.641L93.4899 136.499L93.3341 136.292L92.9686 135.806L91.5381 136.641L89.6308 137.753L88.5182 144.975V145.175L88.5531 145.772L88.7852 149.696V149.75L88.3783 151.376L88.4387 151.408C89.3988 151.925 90.3979 152.366 91.4268 152.728L91.697 152.824C92.0149 152.928 92.3137 153.024 92.6252 153.116C92.6368 153.163 92.6453 153.21 92.6507 153.259C92.6507 153.214 92.6507 153.166 92.6507 153.122C96.5515 154.235 100.686 154.235 104.587 153.122L104.66 153.1C104.842 153.049 105.026 152.995 105.204 152.935L105.493 152.843C106.278 152.581 107.046 152.273 107.795 151.922L108.062 146.239L108.252 142.14V141.905L107.165 137.553Z" fill="black"/>
<path opacity="0.5" d="M104.877 148.109C104.877 147.982 104.877 147.855 104.854 147.728C104.832 147.601 104.835 147.49 104.819 147.369C104.804 147.249 104.791 147.128 104.775 147.007C104.759 146.887 104.737 146.766 104.715 146.645C104.692 146.525 104.67 146.404 104.645 146.283C104.645 146.242 104.629 146.204 104.619 146.163C104.584 146.004 104.546 145.845 104.505 145.683C104.463 145.521 104.438 145.426 104.4 145.299C104.4 145.242 104.368 145.185 104.349 145.131C104.33 145.077 104.295 144.947 104.266 144.855L104.209 144.677C104.184 144.598 104.158 144.518 104.13 144.439C104.082 144.296 104.031 144.156 103.98 144.013C103.929 143.871 103.875 143.731 103.821 143.591C103.713 143.305 103.596 143.023 103.478 142.74C103.017 141.642 102.499 140.559 102.022 139.486C101.766 138.924 101.539 138.348 101.342 137.762L101.281 137.848C101.185 137.994 101.099 138.147 101.024 138.305C101.024 140.804 98.519 143.861 98.519 143.861L95.9981 140.194L93.792 143.582C93.4741 143.75 93.1562 144.328 92.9083 145.15C92.8384 145.372 92.7716 145.614 92.708 145.871C92.6635 146.042 92.6222 146.223 92.5841 146.404C92.5618 146.496 92.5427 146.588 92.5237 146.683L92.4664 146.972V147.017C92.4283 147.214 92.3901 147.417 92.3552 147.623C92.3202 147.83 92.2789 148.068 92.2439 148.293C92.2185 148.439 92.1962 148.585 92.1772 148.731C92.1327 149.014 92.0945 149.3 92.0564 149.582C92.0341 149.747 92.0119 149.9 91.9928 150.074L91.9165 150.709C92.0786 151.23 92.2598 151.744 92.4474 152.249C92.5672 152.526 92.6371 152.821 92.654 153.122C96.5548 154.235 100.69 154.235 104.591 153.122C104.589 153.111 104.589 153.101 104.591 153.09C104.532 152.805 104.506 152.514 104.514 152.224V152.224C104.578 151.409 104.685 150.598 104.832 149.795C104.879 149.399 104.899 149 104.893 148.601V148.458C104.883 148.338 104.88 148.223 104.877 148.109ZM104.877 148.109C104.877 147.982 104.877 147.855 104.854 147.728C104.832 147.601 104.835 147.49 104.819 147.369C104.804 147.249 104.791 147.128 104.775 147.007C104.759 146.887 104.737 146.766 104.715 146.645C104.692 146.525 104.67 146.404 104.645 146.283C104.645 146.242 104.629 146.204 104.619 146.163C104.584 146.004 104.546 145.845 104.505 145.683C104.463 145.521 104.438 145.426 104.4 145.299C104.4 145.242 104.368 145.185 104.349 145.131C104.33 145.077 104.295 144.947 104.266 144.855L104.209 144.677C104.184 144.598 104.158 144.518 104.13 144.439C104.082 144.296 104.031 144.156 103.98 144.013C103.929 143.871 103.875 143.731 103.821 143.591C103.713 143.305 103.596 143.023 103.478 142.74C103.017 141.642 102.499 140.559 102.022 139.486C101.766 138.924 101.539 138.348 101.342 137.762L101.281 137.848C101.185 137.994 101.099 138.147 101.024 138.305C101.024 140.804 98.519 143.861 98.519 143.861L95.9981 140.194L93.792 143.582C93.4741 143.75 93.1562 144.328 92.9083 145.15C92.8384 145.372 92.7716 145.614 92.708 145.871C92.6635 146.042 92.6222 146.223 92.5841 146.404C92.5618 146.496 92.5427 146.588 92.5237 146.683L92.4664 146.972V147.017C92.4283 147.214 92.3901 147.417 92.3552 147.623C92.3202 147.83 92.2789 148.068 92.2439 148.293C92.2185 148.439 92.1962 148.585 92.1772 148.731C92.1327 149.014 92.0945 149.3 92.0564 149.582C92.0341 149.747 92.0119 149.9 91.9928 150.074L91.9165 150.709C92.0786 151.23 92.2598 151.744 92.4474 152.249C92.5672 152.526 92.6371 152.821 92.654 153.122C96.5548 154.235 100.69 154.235 104.591 153.122C104.589 153.111 104.589 153.101 104.591 153.09C104.532 152.805 104.506 152.514 104.514 152.224V152.224C104.578 151.409 104.685 150.598 104.832 149.795C104.879 149.399 104.899 149 104.893 148.601V148.458C104.883 148.338 104.88 148.223 104.877 148.109ZM104.877 148.109C104.877 147.982 104.877 147.855 104.854 147.728C104.832 147.601 104.835 147.49 104.819 147.369C104.804 147.249 104.791 147.128 104.775 147.007C104.759 146.887 104.737 146.766 104.715 146.645C104.692 146.525 104.67 146.404 104.645 146.283C104.645 146.242 104.629 146.204 104.619 146.163C104.584 146.004 104.546 145.845 104.505 145.683C104.463 145.521 104.438 145.426 104.4 145.299C104.4 145.242 104.368 145.185 104.349 145.131C104.33 145.077 104.295 144.947 104.266 144.855L104.209 144.677C104.184 144.598 104.158 144.518 104.13 144.439C104.082 144.296 104.031 144.156 103.98 144.013C103.929 143.871 103.875 143.731 103.821 143.591C103.713 143.305 103.596 143.023 103.478 142.74C103.017 141.642 102.499 140.559 102.022 139.486C101.766 138.924 101.539 138.348 101.342 137.762L101.281 137.848C101.185 137.994 101.099 138.147 101.024 138.305C101.024 140.804 98.519 143.861 98.519 143.861L95.9981 140.194L93.792 143.582C93.4741 143.75 93.1562 144.328 92.9083 145.15C92.8384 145.372 92.7716 145.614 92.708 145.871C92.6635 146.042 92.6222 146.223 92.5841 146.404C92.5618 146.496 92.5427 146.588 92.5237 146.683L92.4664 146.972V147.017C92.4283 147.214 92.3901 147.417 92.3552 147.623C92.3202 147.83 92.2789 148.068 92.2439 148.293C92.2185 148.439 92.1962 148.585 92.1772 148.731C92.1327 149.014 92.0945 149.3 92.0564 149.582C92.0341 149.747 92.0119 149.9 91.9928 150.074L91.9165 150.709C92.0786 151.23 92.2598 151.744 92.4474 152.249C92.5672 152.526 92.6371 152.821 92.654 153.122C96.5548 154.235 100.69 154.235 104.591 153.122C104.589 153.111 104.589 153.101 104.591 153.09C104.532 152.805 104.506 152.514 104.514 152.224V152.224C104.578 151.409 104.685 150.598 104.832 149.795C104.879 149.399 104.899 149 104.893 148.601V148.458C104.883 148.338 104.88 148.223 104.877 148.109ZM108.246 142.15L107.111 137.626L106.917 136.851L106.863 136.638L106.587 135.533C106.588 135.524 106.588 135.514 106.587 135.505C106.593 135.456 106.586 135.406 106.565 135.362C106.523 135.279 106.418 135.194 106.174 135.172C106.081 135.165 105.987 135.165 105.894 135.172V135.172C105.618 135.199 105.344 135.25 105.077 135.324C104.947 135.359 104.807 135.397 104.657 135.445L104.384 135.53H104.359C103.626 135.77 102.947 136.147 102.356 136.641C101.966 136.966 101.623 137.345 101.339 137.765L101.278 137.851C101.182 137.997 101.096 138.15 101.021 138.308C101.021 140.807 98.5158 143.864 98.5158 143.864L95.995 140.197L95.8519 139.991L95.8265 139.956L95.4609 139.419L95.1843 139.051L95.1112 138.956L93.8079 137.219L93.3947 136.657V136.638L93.2516 136.445L92.9782 136.083L92.0246 136.638L89.6404 138.026L88.5406 145.172V145.248L88.5723 145.769L88.8076 149.747V149.973L88.4484 151.404C89.4085 151.922 90.4075 152.363 91.4365 152.725L91.7067 152.82C92.0246 152.925 92.3234 153.02 92.6349 153.113C92.6465 153.16 92.655 153.207 92.6603 153.255C92.6603 153.211 92.6603 153.163 92.6603 153.119C96.5611 154.232 100.696 154.232 104.597 153.119L104.67 153.097C104.851 153.046 105.036 152.992 105.214 152.932L105.503 152.839C106.287 152.577 107.056 152.27 107.804 151.919L108.068 146.242L108.259 142.188L108.246 142.15ZM92.6127 153.113C92.6242 153.16 92.6327 153.207 92.6381 153.255C92.6381 153.211 92.6381 153.163 92.6381 153.119L92.6127 153.113ZM104.877 148.109C104.877 147.982 104.877 147.855 104.854 147.728C104.832 147.601 104.835 147.49 104.819 147.369C104.804 147.249 104.791 147.128 104.775 147.007C104.759 146.887 104.737 146.766 104.715 146.645C104.692 146.525 104.67 146.404 104.645 146.283C104.645 146.242 104.629 146.204 104.619 146.163C104.584 146.004 104.546 145.845 104.505 145.683C104.463 145.521 104.438 145.426 104.4 145.299C104.4 145.242 104.368 145.185 104.349 145.131C104.33 145.077 104.295 144.947 104.266 144.855L104.209 144.677C104.184 144.598 104.158 144.518 104.13 144.439C104.082 144.296 104.031 144.156 103.98 144.013C103.929 143.871 103.875 143.731 103.821 143.591C103.713 143.305 103.596 143.023 103.478 142.74C103.017 141.642 102.499 140.559 102.022 139.486C101.766 138.924 101.539 138.348 101.342 137.762L101.281 137.848C101.185 137.994 101.099 138.147 101.024 138.305C101.024 140.804 98.519 143.861 98.519 143.861L95.9981 140.194L93.792 143.582C93.4741 143.75 93.1562 144.328 92.9083 145.15C92.8384 145.372 92.7716 145.614 92.708 145.871C92.6635 146.042 92.6222 146.223 92.5841 146.404C92.5618 146.496 92.5427 146.588 92.5237 146.683L92.4664 146.972V147.017C92.4283 147.214 92.3901 147.417 92.3552 147.623C92.3202 147.83 92.2789 148.068 92.2439 148.293C92.2185 148.439 92.1962 148.585 92.1772 148.731C92.1327 149.014 92.0945 149.3 92.0564 149.582C92.0341 149.747 92.0119 149.9 91.9928 150.074L91.9165 150.709C92.0786 151.23 92.2598 151.744 92.4474 152.249C92.5672 152.526 92.6371 152.821 92.654 153.122C96.5548 154.235 100.69 154.235 104.591 153.122C104.589 153.111 104.589 153.101 104.591 153.09C104.532 152.805 104.506 152.514 104.514 152.224V152.224C104.578 151.409 104.685 150.598 104.832 149.795C104.879 149.399 104.899 149 104.893 148.601V148.458C104.883 148.338 104.88 148.223 104.877 148.109ZM104.877 148.109C104.877 147.982 104.877 147.855 104.854 147.728C104.832 147.601 104.835 147.49 104.819 147.369C104.804 147.249 104.791 147.128 104.775 147.007C104.759 146.887 104.737 146.766 104.715 146.645C104.692 146.525 104.67 146.404 104.645 146.283C104.645 146.242 104.629 146.204 104.619 146.163C104.584 146.004 104.546 145.845 104.505 145.683C104.463 145.521 104.438 145.426 104.4 145.299C104.4 145.242 104.368 145.185 104.349 145.131C104.33 145.077 104.295 144.947 104.266 144.855L104.209 144.677C104.184 144.598 104.158 144.518 104.13 144.439C104.082 144.296 104.031 144.156 103.98 144.013C103.929 143.871 103.875 143.731 103.821 143.591C103.713 143.305 103.596 143.023 103.478 142.74C103.017 141.642 102.499 140.559 102.022 139.486C101.766 138.924 101.539 138.348 101.342 137.762L101.281 137.848C101.185 137.994 101.099 138.147 101.024 138.305C101.024 140.804 98.519 143.861 98.519 143.861L95.9981 140.194L93.792 143.582C93.4741 143.75 93.1562 144.328 92.9083 145.15C92.8384 145.372 92.7716 145.614 92.708 145.871C92.6635 146.042 92.6222 146.223 92.5841 146.404C92.5618 146.496 92.5427 146.588 92.5237 146.683L92.4664 146.972V147.017C92.4283 147.214 92.3901 147.417 92.3552 147.623C92.3202 147.83 92.2789 148.068 92.2439 148.293C92.2185 148.439 92.1962 148.585 92.1772 148.731C92.1327 149.014 92.0945 149.3 92.0564 149.582C92.0341 149.747 92.0119 149.9 91.9928 150.074L91.9165 150.709C92.0786 151.23 92.2598 151.744 92.4474 152.249C92.5672 152.526 92.6371 152.821 92.654 153.122C96.5548 154.235 100.69 154.235 104.591 153.122C104.589 153.111 104.589 153.101 104.591 153.09C104.532 152.805 104.506 152.514 104.514 152.224V152.224C104.578 151.409 104.685 150.598 104.832 149.795C104.879 149.399 104.899 149 104.893 148.601V148.458C104.883 148.338 104.88 148.223 104.877 148.109ZM104.877 148.109C104.877 147.982 104.877 147.855 104.854 147.728C104.832 147.601 104.835 147.49 104.819 147.369C104.804 147.249 104.791 147.128 104.775 147.007C104.759 146.887 104.737 146.766 104.715 146.645C104.692 146.525 104.67 146.404 104.645 146.283C104.645 146.242 104.629 146.204 104.619 146.163C104.584 146.004 104.546 145.845 104.505 145.683C104.463 145.521 104.438 145.426 104.4 145.299C104.4 145.242 104.368 145.185 104.349 145.131C104.33 145.077 104.295 144.947 104.266 144.855L104.209 144.677C104.184 144.598 104.158 144.518 104.13 144.439C104.082 144.296 104.031 144.156 103.98 144.013C103.929 143.871 103.875 143.731 103.821 143.591C103.713 143.305 103.596 143.023 103.478 142.74C103.017 141.642 102.499 140.559 102.022 139.486C101.766 138.924 101.539 138.348 101.342 137.762L101.281 137.848C101.185 137.994 101.099 138.147 101.024 138.305C101.024 140.804 98.519 143.861 98.519 143.861L95.9981 140.194L93.792 143.582C93.4741 143.75 93.1562 144.328 92.9083 145.15C92.8384 145.372 92.7716 145.614 92.708 145.871C92.6635 146.042 92.6222 146.223 92.5841 146.404C92.5618 146.496 92.5427 146.588 92.5237 146.683L92.4664 146.972V147.017C92.4283 147.214 92.3901 147.417 92.3552 147.623C92.3202 147.83 92.2789 148.068 92.2439 148.293C92.2185 148.439 92.1962 148.585 92.1772 148.731C92.1327 149.014 92.0945 149.3 92.0564 149.582C92.0341 149.747 92.0119 149.9 91.9928 150.074L91.9165 150.709C92.0786 151.23 92.2598 151.744 92.4474 152.249C92.5672 152.526 92.6371 152.821 92.654 153.122C96.5548 154.235 100.69 154.235 104.591 153.122C104.589 153.111 104.589 153.101 104.591 153.09C104.532 152.805 104.506 152.514 104.514 152.224V152.224C104.578 151.409 104.685 150.598 104.832 149.795C104.879 149.399 104.899 149 104.893 148.601V148.458C104.883 148.338 104.88 148.223 104.877 148.109ZM104.877 148.109C104.877 147.982 104.877 147.855 104.854 147.728C104.832 147.601 104.835 147.49 104.819 147.369C104.804 147.249 104.791 147.128 104.775 147.007C104.759 146.887 104.737 146.766 104.715 146.645C104.692 146.525 104.67 146.404 104.645 146.283C104.645 146.242 104.629 146.204 104.619 146.163C104.584 146.004 104.546 145.845 104.505 145.683C104.463 145.521 104.438 145.426 104.4 145.299C104.4 145.242 104.368 145.185 104.349 145.131C104.33 145.077 104.295 144.947 104.266 144.855L104.209 144.677C104.184 144.598 104.158 144.518 104.13 144.439C104.082 144.296 104.031 144.156 103.98 144.013C103.929 143.871 103.875 143.731 103.821 143.591C103.713 143.305 103.596 143.023 103.478 142.74C103.017 141.642 102.499 140.559 102.022 139.486C101.766 138.924 101.539 138.348 101.342 137.762L101.281 137.848C101.185 137.994 101.099 138.147 101.024 138.305C101.024 140.804 98.519 143.861 98.519 143.861L95.9981 140.194L93.792 143.582C93.4741 143.75 93.1562 144.328 92.9083 145.15C92.8384 145.372 92.7716 145.614 92.708 145.871C92.6635 146.042 92.6222 146.223 92.5841 146.404C92.5618 146.496 92.5427 146.588 92.5237 146.683L92.4664 146.972V147.017C92.4283 147.214 92.3901 147.417 92.3552 147.623C92.3202 147.83 92.2789 148.068 92.2439 148.293C92.2185 148.439 92.1962 148.585 92.1772 148.731C92.1327 149.014 92.0945 149.3 92.0564 149.582C92.0341 149.747 92.0119 149.9 91.9928 150.074L91.9165 150.709C92.0786 151.23 92.2598 151.744 92.4474 152.249C92.5672 152.526 92.6371 152.821 92.654 153.122C96.5548 154.235 100.69 154.235 104.591 153.122C104.589 153.111 104.589 153.101 104.591 153.09C104.532 152.805 104.506 152.514 104.514 152.224V152.224C104.578 151.409 104.685 150.598 104.832 149.795C104.879 149.399 104.899 149 104.893 148.601V148.458C104.883 148.338 104.88 148.223 104.877 148.109ZM104.877 148.109C104.877 147.982 104.877 147.855 104.854 147.728C104.832 147.601 104.835 147.49 104.819 147.369C104.804 147.249 104.791 147.128 104.775 147.007C104.759 146.887 104.737 146.766 104.715 146.645C104.692 146.525 104.67 146.404 104.645 146.283C104.645 146.242 104.629 146.204 104.619 146.163C104.584 146.004 104.546 145.845 104.505 145.683C104.463 145.521 104.438 145.426 104.4 145.299C104.4 145.242 104.368 145.185 104.349 145.131C104.33 145.077 104.295 144.947 104.266 144.855L104.209 144.677C104.184 144.598 104.158 144.518 104.13 144.439C104.082 144.296 104.031 144.156 103.98 144.013C103.929 143.871 103.875 143.731 103.821 143.591C103.713 143.305 103.596 143.023 103.478 142.74C103.017 141.642 102.499 140.559 102.022 139.486C101.766 138.924 101.539 138.348 101.342 137.762L101.281 137.848C101.185 137.994 101.099 138.147 101.024 138.305C101.024 140.804 98.519 143.861 98.519 143.861L95.9981 140.194L93.792 143.582C93.4741 143.75 93.1562 144.328 92.9083 145.15C92.8384 145.372 92.7716 145.614 92.708 145.871C92.6635 146.042 92.6222 146.223 92.5841 146.404C92.5618 146.496 92.5427 146.588 92.5237 146.683L92.4664 146.972V147.017C92.4283 147.214 92.3901 147.417 92.3552 147.623C92.3202 147.83 92.2789 148.068 92.2439 148.293C92.2185 148.439 92.1962 148.585 92.1772 148.731C92.1327 149.014 92.0945 149.3 92.0564 149.582C92.0341 149.747 92.0119 149.9 91.9928 150.074L91.9165 150.709C92.0786 151.23 92.2598 151.744 92.4474 152.249C92.5672 152.526 92.6371 152.821 92.654 153.122C96.5548 154.235 100.69 154.235 104.591 153.122C104.589 153.111 104.589 153.101 104.591 153.09C104.532 152.805 104.506 152.514 104.514 152.224V152.224C104.578 151.409 104.685 150.598 104.832 149.795C104.879 149.399 104.899 149 104.893 148.601V148.458C104.883 148.338 104.88 148.223 104.877 148.109ZM104.877 148.109C104.877 147.982 104.877 147.855 104.854 147.728C104.832 147.601 104.835 147.49 104.819 147.369C104.804 147.249 104.791 147.128 104.775 147.007C104.759 146.887 104.737 146.766 104.715 146.645C104.692 146.525 104.67 146.404 104.645 146.283C104.645 146.242 104.629 146.204 104.619 146.163C104.584 146.004 104.546 145.845 104.505 145.683C104.463 145.521 104.438 145.426 104.4 145.299C104.4 145.242 104.368 145.185 104.349 145.131C104.33 145.077 104.295 144.947 104.266 144.855L104.209 144.677C104.184 144.598 104.158 144.518 104.13 144.439C104.082 144.296 104.031 144.156 103.98 144.013C103.929 143.871 103.875 143.731 103.821 143.591C103.713 143.305 103.596 143.023 103.478 142.74C103.017 141.642 102.499 140.559 102.022 139.486C101.766 138.924 101.539 138.348 101.342 137.762L101.281 137.848C101.185 137.994 101.099 138.147 101.024 138.305C101.024 140.804 98.519 143.861 98.519 143.861L95.9981 140.194L93.792 143.582C93.4741 143.75 93.1562 144.328 92.9083 145.15C92.8384 145.372 92.7716 145.614 92.708 145.871C92.6635 146.042 92.6222 146.223 92.5841 146.404C92.5618 146.496 92.5427 146.588 92.5237 146.683L92.4664 146.972V147.017C92.4283 147.214 92.3901 147.417 92.3552 147.623C92.3202 147.83 92.2789 148.068 92.2439 148.293C92.2185 148.439 92.1962 148.585 92.1772 148.731C92.1327 149.014 92.0945 149.3 92.0564 149.582C92.0341 149.747 92.0119 149.9 91.9928 150.074L91.9165 150.709C92.0786 151.23 92.2598 151.744 92.4474 152.249C92.5672 152.526 92.6371 152.821 92.654 153.122C96.5548 154.235 100.69 154.235 104.591 153.122C104.589 153.111 104.589 153.101 104.591 153.09C104.532 152.805 104.506 152.514 104.514 152.224V152.224C104.578 151.409 104.685 150.598 104.832 149.795C104.879 149.399 104.899 149 104.893 148.601V148.458C104.883 148.338 104.88 148.223 104.877 148.109ZM104.877 148.109C104.877 147.982 104.877 147.855 104.854 147.728C104.832 147.601 104.835 147.49 104.819 147.369C104.804 147.249 104.791 147.128 104.775 147.007C104.759 146.887 104.737 146.766 104.715 146.645C104.692 146.525 104.67 146.404 104.645 146.283C104.645 146.242 104.629 146.204 104.619 146.163C104.584 146.004 104.546 145.845 104.505 145.683C104.463 145.521 104.438 145.426 104.4 145.299C104.4 145.242 104.368 145.185 104.349 145.131C104.33 145.077 104.295 144.947 104.266 144.855L104.209 144.677C104.184 144.598 104.158 144.518 104.13 144.439C104.082 144.296 104.031 144.156 103.98 144.013C103.929 143.871 103.875 143.731 103.821 143.591C103.713 143.305 103.596 143.023 103.478 142.74C103.017 141.642 102.499 140.559 102.022 139.486C101.766 138.924 101.539 138.348 101.342 137.762L101.281 137.848C101.185 137.994 101.099 138.147 101.024 138.305C101.024 140.804 98.519 143.861 98.519 143.861L95.9981 140.194L93.792 143.582C93.4741 143.75 93.1562 144.328 92.9083 145.15C92.8384 145.372 92.7716 145.614 92.708 145.871C92.6635 146.042 92.6222 146.223 92.5841 146.404C92.5618 146.496 92.5427 146.588 92.5237 146.683L92.4664 146.972V147.017C92.4283 147.214 92.3901 147.417 92.3552 147.623C92.3202 147.83 92.2789 148.068 92.2439 148.293C92.2185 148.439 92.1962 148.585 92.1772 148.731C92.1327 149.014 92.0945 149.3 92.0564 149.582C92.0341 149.747 92.0119 149.9 91.9928 150.074L91.9165 150.709C92.0786 151.23 92.2598 151.744 92.4474 152.249C92.5672 152.526 92.6371 152.821 92.654 153.122C96.5548 154.235 100.69 154.235 104.591 153.122C104.589 153.111 104.589 153.101 104.591 153.09C104.532 152.805 104.506 152.514 104.514 152.224V152.224C104.578 151.409 104.685 150.598 104.832 149.795C104.879 149.399 104.899 149 104.893 148.601V148.458C104.883 148.338 104.88 148.223 104.877 148.109ZM104.877 148.109C104.877 147.982 104.877 147.855 104.854 147.728C104.832 147.601 104.835 147.49 104.819 147.369C104.804 147.249 104.791 147.128 104.775 147.007C104.759 146.887 104.737 146.766 104.715 146.645C104.692 146.525 104.67 146.404 104.645 146.283C104.645 146.242 104.629 146.204 104.619 146.163C104.584 146.004 104.546 145.845 104.505 145.683C104.463 145.521 104.438 145.426 104.4 145.299C104.4 145.242 104.368 145.185 104.349 145.131C104.33 145.077 104.295 144.947 104.266 144.855L104.209 144.677C104.184 144.598 104.158 144.518 104.13 144.439C104.082 144.296 104.031 144.156 103.98 144.013C103.929 143.871 103.875 143.731 103.821 143.591C103.713 143.305 103.596 143.023 103.478 142.74C103.017 141.642 102.499 140.559 102.022 139.486C101.766 138.924 101.539 138.348 101.342 137.762L101.281 137.848C101.185 137.994 101.099 138.147 101.024 138.305C101.024 140.804 98.519 143.861 98.519 143.861L95.9981 140.194L93.792 143.582C93.4741 143.75 93.1562 144.328 92.9083 145.15C92.8384 145.372 92.7716 145.614 92.708 145.871C92.6635 146.042 92.6222 146.223 92.5841 146.404C92.5618 146.496 92.5427 146.588 92.5237 146.683L92.4664 146.972V147.017C92.4283 147.214 92.3901 147.417 92.3552 147.623C92.3202 147.83 92.2789 148.068 92.2439 148.293C92.2185 148.439 92.1962 148.585 92.1772 148.731C92.1327 149.014 92.0945 149.3 92.0564 149.582C92.0341 149.747 92.0119 149.9 91.9928 150.074L91.9165 150.709C92.0786 151.23 92.2598 151.744 92.4474 152.249C92.5672 152.526 92.6371 152.821 92.654 153.122C96.5548 154.235 100.69 154.235 104.591 153.122C104.589 153.111 104.589 153.101 104.591 153.09C104.532 152.805 104.506 152.514 104.514 152.224V152.224C104.578 151.409 104.685 150.598 104.832 149.795C104.879 149.399 104.899 149 104.893 148.601V148.458C104.883 148.338 104.88 148.223 104.877 148.109Z" fill="white"/>
<path opacity="0.1" d="M96.0425 139.981L95.8296 139.953C95.508 139.909 95.1895 139.846 94.8759 139.762L94.7583 139.731C93.9827 139.511 93.1339 139.118 92.9432 138.426C92.8864 138.203 92.893 137.969 92.9622 137.749C93.069 137.372 93.2138 137.006 93.3946 136.657V136.638C93.4185 136.589 93.445 136.542 93.474 136.495C93.7363 135.983 94.133 135.552 94.6216 135.248L94.2401 135.308L91.0104 135.832L86.0037 136.638C86.0037 136.638 85.1137 136.46 83.9025 139.794C83.9025 139.835 83.8739 139.873 83.8612 139.918C83.5687 140.734 83.2604 141.753 82.9425 143.026C82.7231 143.909 82.5229 144.775 82.3385 145.617C82.2845 145.871 82.2304 146.121 82.1796 146.369C82.7527 147.044 83.3697 147.68 84.0265 148.274L84.1314 148.372C85.4178 149.536 86.8394 150.541 88.3656 151.366L88.426 151.398C89.3861 151.915 90.3852 152.357 91.4141 152.719L91.6843 152.814C91.7416 152.227 91.8051 151.576 91.8814 150.909C91.8814 150.842 91.8814 150.776 91.9069 150.709L91.9832 150.074C92.0022 149.912 92.0245 149.757 92.0467 149.582C92.0849 149.299 92.123 149.014 92.1675 148.731C92.1866 148.585 92.2089 148.439 92.2343 148.293C92.2693 148.068 92.3074 147.842 92.3455 147.623C92.3837 147.404 92.4187 147.214 92.4568 147.017V146.972L92.514 146.683C92.5331 146.588 92.5522 146.496 92.5744 146.404C92.6126 146.223 92.6539 146.042 92.6984 145.871C92.762 145.614 92.8287 145.372 92.8987 145.15C93.153 144.328 93.4486 143.75 93.7824 143.582L95.9885 140.194L96.0807 140.051L96.122 139.988L96.0425 139.981Z" fill="black"/>
<path opacity="0.1" d="M92.0276 117.494C91.7097 117.932 91.7352 118.535 91.5921 119.081C91.252 120.323 89.9041 121.101 89.5958 122.352C89.4146 123.082 89.6244 123.856 89.5004 124.599C89.2747 125.968 88.0223 126.895 87.3229 128.092C86.9684 128.708 86.7582 129.397 86.7081 130.106C86.658 130.816 86.7693 131.527 87.0336 132.187C87.1972 132.52 87.3323 132.866 87.4374 133.222C87.5176 133.752 87.484 134.293 87.3388 134.81C87.1004 135.94 86.8556 137.184 87.4024 138.203C87.8633 139.064 88.8202 139.569 89.7834 139.727C90.756 139.837 91.7399 139.792 92.6984 139.594C93.7506 139.432 94.8282 139.245 95.7437 138.705L92.301 130.406C91.9545 129.568 91.5985 128.701 91.6017 127.793C91.6297 127.123 91.7749 126.464 92.0308 125.844C92.6973 124.048 93.6648 122.379 94.8918 120.907C95.3908 121.485 95.3527 122.364 95.7691 123.006C96.1371 123.48 96.6271 123.845 97.1869 124.063C98.8181 124.858 100.494 125.557 102.206 126.158C102.314 126.172 102.416 126.211 102.505 126.274C102.593 126.336 102.664 126.42 102.713 126.516C102.761 126.613 102.785 126.72 102.782 126.828C102.779 126.936 102.75 127.042 102.696 127.136L101.399 132.482C101.113 133.66 100.862 135.022 101.596 135.975C102.33 136.927 103.986 137.378 103.996 138.607C103.982 138.801 103.982 138.996 103.996 139.191C104.082 139.765 104.765 140.042 105.347 140.07C106.302 140.089 107.233 139.768 107.973 139.165C108.713 138.562 109.214 137.716 109.387 136.778C109.705 134.676 108.313 132.74 107.731 130.692C106.752 127.247 108.049 123.206 106.126 120.18C104.568 117.726 101.729 117.059 99.0338 116.754C97.1424 116.532 93.3596 115.738 92.0276 117.494Z" fill="black"/>
<path opacity="0.5" d="M92.0276 117.177C91.7097 117.615 91.7352 118.218 91.5921 118.764C91.252 120.005 89.9041 120.783 89.5958 122.034C89.4146 122.764 89.6244 123.539 89.5004 124.282C89.2747 125.65 88.0223 126.577 87.3229 127.774C86.9684 128.391 86.7582 129.08 86.7081 129.789C86.658 130.498 86.7693 131.209 87.0336 131.87C87.1972 132.203 87.3323 132.549 87.4374 132.905C87.5176 133.435 87.484 133.976 87.3388 134.492C87.1004 135.622 86.8556 136.867 87.4024 137.886C87.8633 138.746 88.8202 139.251 89.7834 139.41C90.756 139.52 91.7399 139.475 92.6984 139.277C93.7506 139.115 94.8282 138.927 95.7437 138.388L92.301 130.089C91.9545 129.25 91.5985 128.384 91.6017 127.476C91.6297 126.806 91.7749 126.146 92.0308 125.526C92.6973 123.731 93.6648 122.061 94.8918 120.59C95.3908 121.167 95.3527 122.047 95.7691 122.688C96.1371 123.162 96.6271 123.528 97.1869 123.745C98.8181 124.54 100.494 125.24 102.206 125.841C102.314 125.854 102.416 125.894 102.505 125.956C102.593 126.019 102.664 126.102 102.713 126.199C102.761 126.296 102.785 126.403 102.782 126.511C102.779 126.619 102.75 126.725 102.696 126.819L101.399 132.165C101.113 133.343 100.862 134.705 101.596 135.657C102.33 136.61 103.986 137.061 103.996 138.289C103.982 138.484 103.982 138.679 103.996 138.873C104.082 139.448 104.765 139.724 105.347 139.753C106.302 139.772 107.233 139.451 107.973 138.848C108.713 138.245 109.214 137.399 109.387 136.46C109.705 134.359 108.313 132.422 107.731 130.374C106.752 126.93 108.049 122.888 106.126 119.863C104.568 117.408 101.729 116.742 99.0338 116.437C97.1424 116.215 93.3596 115.421 92.0276 117.177Z" fill="#493545"/>
</g>
<g opacity="0.5">
<path opacity="0.5" d="M90.0727 202.214C90.1013 203.278 89.3766 204.186 88.8012 205.072C88.2258 205.957 87.7998 207.167 88.3911 208.053C88.585 208.345 88.8775 208.57 89.0523 208.875C89.6658 209.939 88.6454 211.161 88.2735 212.329C87.8444 213.679 88.3434 215.187 89.2462 216.282C90.149 217.377 91.3951 218.117 92.654 218.768C95.3007 220.177 98.1416 221.187 101.084 221.765C102.623 222.048 104.263 222.175 105.706 221.559C106.708 221.1 107.526 220.318 108.029 219.34C108.532 218.361 108.692 217.241 108.481 216.161C108.116 214.491 106.892 213.148 106.256 211.571C106.108 211.261 106.036 210.92 106.046 210.577C106.1 209.977 106.561 209.507 106.921 209.021C107.821 207.699 108.189 206.085 107.951 204.503C107.7 202.922 107.093 201.417 106.177 200.103C105.849 199.558 105.417 199.084 104.905 198.706C104.212 198.239 103.354 198.106 102.527 197.989C99.0752 197.506 95.499 196.979 92.0182 196.801C90.9183 196.744 90.1109 196.96 89.5673 197.989C88.7376 199.522 90.0314 200.675 90.0727 202.214Z" fill="#3F3D56"/>
<path opacity="0.5" d="M107.852 213.012L101.3 222.317L94.9045 221.762C94.9045 221.762 94.6947 223.984 92.123 215.93C90.6861 211.425 93.6075 212.99 94.1829 211.742C94.7582 210.494 95.7723 209.393 95.8581 208.472C96.0616 206.497 95.4608 205.373 95.4608 205.373L102.413 204.542C102.099 205.477 102.06 206.483 102.298 207.44C103.169 211.053 107.852 213.012 107.852 213.012Z" fill="#C77485"/>
<path opacity="0.5" d="M97.9976 205.078C102.562 205.078 106.263 202.164 106.263 198.57C106.263 194.975 102.562 192.061 97.9976 192.061C93.4329 192.061 89.7325 194.975 89.7325 198.57C89.7325 202.164 93.4329 205.078 97.9976 205.078Z" fill="#3F3D56"/>
<path opacity="0.1" d="M102.295 207.437C101.389 208.123 100.327 208.576 99.2043 208.756C98.0814 208.937 96.9313 208.839 95.855 208.472C96.0584 206.497 95.4576 205.373 95.4576 205.373L102.41 204.542C102.097 205.476 102.057 206.481 102.295 207.437V207.437Z" fill="black"/>
<path opacity="0.5" d="M98.1024 208.567C101.942 208.567 105.055 205.459 105.055 201.624C105.055 197.789 101.942 194.681 98.1024 194.681C94.2629 194.681 91.1503 197.789 91.1503 201.624C91.1503 205.459 94.2629 208.567 98.1024 208.567Z" fill="#C77485"/>
<path opacity="0.1" d="M107.165 214.066L107.003 213.431L106.863 212.872L106.657 212.047L106.619 211.894L106.587 211.767C106.587 211.767 106.752 211.269 105.662 211.431L105.458 211.466C105.287 211.501 105.086 211.548 104.857 211.612L104.651 211.675L104.377 211.761C103.512 212.043 102.722 212.518 102.07 213.152C101.777 213.432 101.517 213.745 101.297 214.085C101.275 214.117 101.259 214.145 101.24 214.171C101.165 214.289 101.098 214.412 101.04 214.539C101.04 217.041 98.5347 220.095 98.5347 220.095L96.0902 216.568L96.0425 216.498L95.4608 215.653L95.2542 215.38L95.1842 215.285L93.9127 213.58L93.5948 213.155L93.4899 213.012L93.3341 212.806L92.9686 212.32L91.5381 213.155L89.6308 214.266L88.5182 221.489V221.689L88.5531 222.286L88.7852 226.21V226.264L88.3783 227.889L88.4387 227.921C89.3988 228.438 90.3979 228.88 91.4268 229.242L91.697 229.337C92.0149 229.442 92.3137 229.537 92.6252 229.629C92.6368 229.676 92.6453 229.724 92.6507 229.772C92.6507 229.727 92.6507 229.68 92.6507 229.635C96.5515 230.749 100.686 230.749 104.587 229.635L104.66 229.613C104.842 229.562 105.026 229.508 105.204 229.448L105.493 229.356C106.278 229.094 107.046 228.787 107.795 228.435L108.062 222.752L108.252 218.654V218.419L107.165 214.066Z" fill="black"/>
<path opacity="0.5" d="M104.877 224.622C104.877 224.495 104.877 224.368 104.854 224.241C104.832 224.114 104.835 224.003 104.819 223.883C104.803 223.762 104.791 223.641 104.775 223.521C104.759 223.4 104.737 223.279 104.714 223.159C104.692 223.038 104.67 222.917 104.644 222.797C104.644 222.755 104.629 222.717 104.619 222.676C104.584 222.517 104.546 222.359 104.505 222.197C104.463 222.035 104.438 221.94 104.4 221.813C104.4 221.755 104.368 221.698 104.349 221.644C104.33 221.59 104.295 221.46 104.266 221.368L104.209 221.19C104.184 221.111 104.158 221.032 104.13 220.952C104.082 220.809 104.031 220.67 103.98 220.527C103.929 220.384 103.875 220.244 103.821 220.105C103.713 219.819 103.595 219.536 103.478 219.254C103.017 218.155 102.499 217.073 102.022 215.999C101.766 215.437 101.539 214.861 101.342 214.276L101.281 214.361C101.185 214.507 101.099 214.66 101.024 214.818C101.024 217.317 98.5188 220.374 98.5188 220.374L95.998 216.707L93.7919 220.095C93.474 220.263 93.1561 220.841 92.9082 221.663C92.8382 221.886 92.7715 222.127 92.7079 222.384C92.6634 222.555 92.6221 222.736 92.5839 222.917C92.5617 223.009 92.5426 223.102 92.5235 223.197L92.4663 223.486V223.53C92.4282 223.727 92.39 223.93 92.3551 224.137C92.3201 224.343 92.2788 224.581 92.2438 224.806C92.2184 224.952 92.1961 225.099 92.177 225.245C92.1325 225.527 92.0944 225.813 92.0562 226.095C92.034 226.261 92.0117 226.413 91.9927 226.588L91.9164 227.222C92.0785 227.743 92.2597 228.257 92.4472 228.762C92.567 229.039 92.637 229.334 92.6539 229.635C96.5547 230.749 100.69 230.749 104.59 229.635C104.589 229.625 104.589 229.614 104.59 229.604C104.532 229.319 104.506 229.028 104.514 228.737V228.737C104.578 227.922 104.684 227.112 104.832 226.308C104.879 225.912 104.899 225.513 104.892 225.114V224.972C104.883 224.851 104.88 224.737 104.877 224.622ZM104.877 224.622C104.877 224.495 104.877 224.368 104.854 224.241C104.832 224.114 104.835 224.003 104.819 223.883C104.803 223.762 104.791 223.641 104.775 223.521C104.759 223.4 104.737 223.279 104.714 223.159C104.692 223.038 104.67 222.917 104.644 222.797C104.644 222.755 104.629 222.717 104.619 222.676C104.584 222.517 104.546 222.359 104.505 222.197C104.463 222.035 104.438 221.94 104.4 221.813C104.4 221.755 104.368 221.698 104.349 221.644C104.33 221.59 104.295 221.46 104.266 221.368L104.209 221.19C104.184 221.111 104.158 221.032 104.13 220.952C104.082 220.809 104.031 220.67 103.98 220.527C103.929 220.384 103.875 220.244 103.821 220.105C103.713 219.819 103.595 219.536 103.478 219.254C103.017 218.155 102.499 217.073 102.022 215.999C101.766 215.437 101.539 214.861 101.342 214.276L101.281 214.361C101.185 214.507 101.099 214.66 101.024 214.818C101.024 217.317 98.5188 220.374 98.5188 220.374L95.998 216.707L93.7919 220.095C93.474 220.263 93.1561 220.841 92.9082 221.663C92.8382 221.886 92.7715 222.127 92.7079 222.384C92.6634 222.555 92.6221 222.736 92.5839 222.917C92.5617 223.009 92.5426 223.102 92.5235 223.197L92.4663 223.486V223.53C92.4282 223.727 92.39 223.93 92.3551 224.137C92.3201 224.343 92.2788 224.581 92.2438 224.806C92.2184 224.952 92.1961 225.099 92.177 225.245C92.1325 225.527 92.0944 225.813 92.0562 226.095C92.034 226.261 92.0117 226.413 91.9927 226.588L91.9164 227.222C92.0785 227.743 92.2597 228.257 92.4472 228.762C92.567 229.039 92.637 229.334 92.6539 229.635C96.5547 230.749 100.69 230.749 104.59 229.635C104.589 229.625 104.589 229.614 104.59 229.604C104.532 229.319 104.506 229.028 104.514 228.737V228.737C104.578 227.922 104.684 227.112 104.832 226.308C104.879 225.912 104.899 225.513 104.892 225.114V224.972C104.883 224.851 104.88 224.737 104.877 224.622ZM104.877 224.622C104.877 224.495 104.877 224.368 104.854 224.241C104.832 224.114 104.835 224.003 104.819 223.883C104.803 223.762 104.791 223.641 104.775 223.521C104.759 223.4 104.737 223.279 104.714 223.159C104.692 223.038 104.67 222.917 104.644 222.797C104.644 222.755 104.629 222.717 104.619 222.676C104.584 222.517 104.546 222.359 104.505 222.197C104.463 222.035 104.438 221.94 104.4 221.813C104.4 221.755 104.368 221.698 104.349 221.644C104.33 221.59 104.295 221.46 104.266 221.368L104.209 221.19C104.184 221.111 104.158 221.032 104.13 220.952C104.082 220.809 104.031 220.67 103.98 220.527C103.929 220.384 103.875 220.244 103.821 220.105C103.713 219.819 103.595 219.536 103.478 219.254C103.017 218.155 102.499 217.073 102.022 215.999C101.766 215.437 101.539 214.861 101.342 214.276L101.281 214.361C101.185 214.507 101.099 214.66 101.024 214.818C101.024 217.317 98.5188 220.374 98.5188 220.374L95.998 216.707L93.7919 220.095C93.474 220.263 93.1561 220.841 92.9082 221.663C92.8382 221.886 92.7715 222.127 92.7079 222.384C92.6634 222.555 92.6221 222.736 92.5839 222.917C92.5617 223.009 92.5426 223.102 92.5235 223.197L92.4663 223.486V223.53C92.4282 223.727 92.39 223.93 92.3551 224.137C92.3201 224.343 92.2788 224.581 92.2438 224.806C92.2184 224.952 92.1961 225.099 92.177 225.245C92.1325 225.527 92.0944 225.813 92.0562 226.095C92.034 226.261 92.0117 226.413 91.9927 226.588L91.9164 227.222C92.0785 227.743 92.2597 228.257 92.4472 228.762C92.567 229.039 92.637 229.334 92.6539 229.635C96.5547 230.749 100.69 230.749 104.59 229.635C104.589 229.625 104.589 229.614 104.59 229.604C104.532 229.319 104.506 229.028 104.514 228.737V228.737C104.578 227.922 104.684 227.112 104.832 226.308C104.879 225.912 104.899 225.513 104.892 225.114V224.972C104.883 224.851 104.88 224.737 104.877 224.622ZM108.246 218.663L107.111 214.139L106.917 213.364L106.863 213.152L106.587 212.047C106.587 212.037 106.587 212.028 106.587 212.018V212.018C106.593 211.969 106.586 211.92 106.565 211.875C106.523 211.793 106.418 211.707 106.174 211.685C106.08 211.678 105.987 211.678 105.894 211.685V211.685C105.618 211.712 105.344 211.763 105.077 211.837C104.946 211.872 104.807 211.91 104.657 211.958L104.384 212.044H104.358C103.626 212.284 102.947 212.661 102.356 213.155C101.965 213.48 101.623 213.858 101.338 214.279L101.278 214.364C101.181 214.51 101.095 214.663 101.021 214.822C101.021 217.32 98.5157 220.378 98.5157 220.378L95.9948 216.711L95.8518 216.504L95.8264 216.469L95.4608 215.933L95.1842 215.565L95.1111 215.469L93.8078 213.733L93.3945 213.171V213.152L93.2515 212.958L92.9781 212.596L92.0244 213.152L89.6403 214.539L88.5404 221.686V221.762L88.5722 222.282L88.8075 226.261V226.486L88.4482 227.918C89.4084 228.435 90.4074 228.877 91.4364 229.238L91.7066 229.334C92.0244 229.439 92.3233 229.534 92.6348 229.626C92.6463 229.673 92.6548 229.721 92.6602 229.769C92.6602 229.724 92.6602 229.677 92.6602 229.632C96.561 230.745 100.696 230.745 104.597 229.632L104.67 229.61C104.851 229.559 105.035 229.505 105.213 229.445L105.503 229.353C106.287 229.091 107.056 228.783 107.804 228.432L108.068 222.755L108.259 218.701L108.246 218.663ZM92.6125 229.626C92.6241 229.673 92.6326 229.721 92.638 229.769C92.638 229.724 92.638 229.677 92.638 229.632L92.6125 229.626ZM104.877 224.622C104.877 224.495 104.877 224.368 104.854 224.241C104.832 224.114 104.835 224.003 104.819 223.883C104.803 223.762 104.791 223.641 104.775 223.521C104.759 223.4 104.737 223.279 104.714 223.159C104.692 223.038 104.67 222.917 104.644 222.797C104.644 222.755 104.629 222.717 104.619 222.676C104.584 222.517 104.546 222.359 104.505 222.197C104.463 222.035 104.438 221.94 104.4 221.813C104.4 221.755 104.368 221.698 104.349 221.644C104.33 221.59 104.295 221.46 104.266 221.368L104.209 221.19C104.184 221.111 104.158 221.032 104.13 220.952C104.082 220.809 104.031 220.67 103.98 220.527C103.929 220.384 103.875 220.244 103.821 220.105C103.713 219.819 103.595 219.536 103.478 219.254C103.017 218.155 102.499 217.073 102.022 215.999C101.766 215.437 101.539 214.861 101.342 214.276L101.281 214.361C101.185 214.507 101.099 214.66 101.024 214.818C101.024 217.317 98.5188 220.374 98.5188 220.374L95.998 216.707L93.7919 220.095C93.474 220.263 93.1561 220.841 92.9082 221.663C92.8382 221.886 92.7715 222.127 92.7079 222.384C92.6634 222.555 92.6221 222.736 92.5839 222.917C92.5617 223.009 92.5426 223.102 92.5235 223.197L92.4663 223.486V223.53C92.4282 223.727 92.39 223.93 92.3551 224.137C92.3201 224.343 92.2788 224.581 92.2438 224.806C92.2184 224.952 92.1961 225.099 92.177 225.245C92.1325 225.527 92.0944 225.813 92.0562 226.095C92.034 226.261 92.0117 226.413 91.9927 226.588L91.9164 227.222C92.0785 227.743 92.2597 228.257 92.4472 228.762C92.567 229.039 92.637 229.334 92.6539 229.635C96.5547 230.749 100.69 230.749 104.59 229.635C104.589 229.625 104.589 229.614 104.59 229.604C104.532 229.319 104.506 229.028 104.514 228.737V228.737C104.578 227.922 104.684 227.112 104.832 226.308C104.879 225.912 104.899 225.513 104.892 225.114V224.972C104.883 224.851 104.88 224.737 104.877 224.622ZM104.877 224.622C104.877 224.495 104.877 224.368 104.854 224.241C104.832 224.114 104.835 224.003 104.819 223.883C104.803 223.762 104.791 223.641 104.775 223.521C104.759 223.4 104.737 223.279 104.714 223.159C104.692 223.038 104.67 222.917 104.644 222.797C104.644 222.755 104.629 222.717 104.619 222.676C104.584 222.517 104.546 222.359 104.505 222.197C104.463 222.035 104.438 221.94 104.4 221.813C104.4 221.755 104.368 221.698 104.349 221.644C104.33 221.59 104.295 221.46 104.266 221.368L104.209 221.19C104.184 221.111 104.158 221.032 104.13 220.952C104.082 220.809 104.031 220.67 103.98 220.527C103.929 220.384 103.875 220.244 103.821 220.105C103.713 219.819 103.595 219.536 103.478 219.254C103.017 218.155 102.499 217.073 102.022 215.999C101.766 215.437 101.539 214.861 101.342 214.276L101.281 214.361C101.185 214.507 101.099 214.66 101.024 214.818C101.024 217.317 98.5188 220.374 98.5188 220.374L95.998 216.707L93.7919 220.095C93.474 220.263 93.1561 220.841 92.9082 221.663C92.8382 221.886 92.7715 222.127 92.7079 222.384C92.6634 222.555 92.6221 222.736 92.5839 222.917C92.5617 223.009 92.5426 223.102 92.5235 223.197L92.4663 223.486V223.53C92.4282 223.727 92.39 223.93 92.3551 224.137C92.3201 224.343 92.2788 224.581 92.2438 224.806C92.2184 224.952 92.1961 225.099 92.177 225.245C92.1325 225.527 92.0944 225.813 92.0562 226.095C92.034 226.261 92.0117 226.413 91.9927 226.588L91.9164 227.222C92.0785 227.743 92.2597 228.257 92.4472 228.762C92.567 229.039 92.637 229.334 92.6539 229.635C96.5547 230.749 100.69 230.749 104.59 229.635C104.589 229.625 104.589 229.614 104.59 229.604C104.532 229.319 104.506 229.028 104.514 228.737V228.737C104.578 227.922 104.684 227.112 104.832 226.308C104.879 225.912 104.899 225.513 104.892 225.114V224.972C104.883 224.851 104.88 224.737 104.877 224.622ZM104.877 224.622C104.877 224.495 104.877 224.368 104.854 224.241C104.832 224.114 104.835 224.003 104.819 223.883C104.803 223.762 104.791 223.641 104.775 223.521C104.759 223.4 104.737 223.279 104.714 223.159C104.692 223.038 104.67 222.917 104.644 222.797C104.644 222.755 104.629 222.717 104.619 222.676C104.584 222.517 104.546 222.359 104.505 222.197C104.463 222.035 104.438 221.94 104.4 221.813C104.4 221.755 104.368 221.698 104.349 221.644C104.33 221.59 104.295 221.46 104.266 221.368L104.209 221.19C104.184 221.111 104.158 221.032 104.13 220.952C104.082 220.809 104.031 220.67 103.98 220.527C103.929 220.384 103.875 220.244 103.821 220.105C103.713 219.819 103.595 219.536 103.478 219.254C103.017 218.155 102.499 217.073 102.022 215.999C101.766 215.437 101.539 214.861 101.342 214.276L101.281 214.361C101.185 214.507 101.099 214.66 101.024 214.818C101.024 217.317 98.5188 220.374 98.5188 220.374L95.998 216.707L93.7919 220.095C93.474 220.263 93.1561 220.841 92.9082 221.663C92.8382 221.886 92.7715 222.127 92.7079 222.384C92.6634 222.555 92.6221 222.736 92.5839 222.917C92.5617 223.009 92.5426 223.102 92.5235 223.197L92.4663 223.486V223.53C92.4282 223.727 92.39 223.93 92.3551 224.137C92.3201 224.343 92.2788 224.581 92.2438 224.806C92.2184 224.952 92.1961 225.099 92.177 225.245C92.1325 225.527 92.0944 225.813 92.0562 226.095C92.034 226.261 92.0117 226.413 91.9927 226.588L91.9164 227.222C92.0785 227.743 92.2597 228.257 92.4472 228.762C92.567 229.039 92.637 229.334 92.6539 229.635C96.5547 230.749 100.69 230.749 104.59 229.635C104.589 229.625 104.589 229.614 104.59 229.604C104.532 229.319 104.506 229.028 104.514 228.737V228.737C104.578 227.922 104.684 227.112 104.832 226.308C104.879 225.912 104.899 225.513 104.892 225.114V224.972C104.883 224.851 104.88 224.737 104.877 224.622ZM104.877 224.622C104.877 224.495 104.877 224.368 104.854 224.241C104.832 224.114 104.835 224.003 104.819 223.883C104.803 223.762 104.791 223.641 104.775 223.521C104.759 223.4 104.737 223.279 104.714 223.159C104.692 223.038 104.67 222.917 104.644 222.797C104.644 222.755 104.629 222.717 104.619 222.676C104.584 222.517 104.546 222.359 104.505 222.197C104.463 222.035 104.438 221.94 104.4 221.813C104.4 221.755 104.368 221.698 104.349 221.644C104.33 221.59 104.295 221.46 104.266 221.368L104.209 221.19C104.184 221.111 104.158 221.032 104.13 220.952C104.082 220.809 104.031 220.67 103.98 220.527C103.929 220.384 103.875 220.244 103.821 220.105C103.713 219.819 103.595 219.536 103.478 219.254C103.017 218.155 102.499 217.073 102.022 215.999C101.766 215.437 101.539 214.861 101.342 214.276L101.281 214.361C101.185 214.507 101.099 214.66 101.024 214.818C101.024 217.317 98.5188 220.374 98.5188 220.374L95.998 216.707L93.7919 220.095C93.474 220.263 93.1561 220.841 92.9082 221.663C92.8382 221.886 92.7715 222.127 92.7079 222.384C92.6634 222.555 92.6221 222.736 92.5839 222.917C92.5617 223.009 92.5426 223.102 92.5235 223.197L92.4663 223.486V223.53C92.4282 223.727 92.39 223.93 92.3551 224.137C92.3201 224.343 92.2788 224.581 92.2438 224.806C92.2184 224.952 92.1961 225.099 92.177 225.245C92.1325 225.527 92.0944 225.813 92.0562 226.095C92.034 226.261 92.0117 226.413 91.9927 226.588L91.9164 227.222C92.0785 227.743 92.2597 228.257 92.4472 228.762C92.567 229.039 92.637 229.334 92.6539 229.635C96.5547 230.749 100.69 230.749 104.59 229.635C104.589 229.625 104.589 229.614 104.59 229.604C104.532 229.319 104.506 229.028 104.514 228.737V228.737C104.578 227.922 104.684 227.112 104.832 226.308C104.879 225.912 104.899 225.513 104.892 225.114V224.972C104.883 224.851 104.88 224.737 104.877 224.622ZM104.877 224.622C104.877 224.495 104.877 224.368 104.854 224.241C104.832 224.114 104.835 224.003 104.819 223.883C104.803 223.762 104.791 223.641 104.775 223.521C104.759 223.4 104.737 223.279 104.714 223.159C104.692 223.038 104.67 222.917 104.644 222.797C104.644 222.755 104.629 222.717 104.619 222.676C104.584 222.517 104.546 222.359 104.505 222.197C104.463 222.035 104.438 221.94 104.4 221.813C104.4 221.755 104.368 221.698 104.349 221.644C104.33 221.59 104.295 221.46 104.266 221.368L104.209 221.19C104.184 221.111 104.158 221.032 104.13 220.952C104.082 220.809 104.031 220.67 103.98 220.527C103.929 220.384 103.875 220.244 103.821 220.105C103.713 219.819 103.595 219.536 103.478 219.254C103.017 218.155 102.499 217.073 102.022 215.999C101.766 215.437 101.539 214.861 101.342 214.276L101.281 214.361C101.185 214.507 101.099 214.66 101.024 214.818C101.024 217.317 98.5188 220.374 98.5188 220.374L95.998 216.707L93.7919 220.095C93.474 220.263 93.1561 220.841 92.9082 221.663C92.8382 221.886 92.7715 222.127 92.7079 222.384C92.6634 222.555 92.6221 222.736 92.5839 222.917C92.5617 223.009 92.5426 223.102 92.5235 223.197L92.4663 223.486V223.53C92.4282 223.727 92.39 223.93 92.3551 224.137C92.3201 224.343 92.2788 224.581 92.2438 224.806C92.2184 224.952 92.1961 225.099 92.177 225.245C92.1325 225.527 92.0944 225.813 92.0562 226.095C92.034 226.261 92.0117 226.413 91.9927 226.588L91.9164 227.222C92.0785 227.743 92.2597 228.257 92.4472 228.762C92.567 229.039 92.637 229.334 92.6539 229.635C96.5547 230.749 100.69 230.749 104.59 229.635C104.589 229.625 104.589 229.614 104.59 229.604C104.532 229.319 104.506 229.028 104.514 228.737V228.737C104.578 227.922 104.684 227.112 104.832 226.308C104.879 225.912 104.899 225.513 104.892 225.114V224.972C104.883 224.851 104.88 224.737 104.877 224.622ZM104.877 224.622C104.877 224.495 104.877 224.368 104.854 224.241C104.832 224.114 104.835 224.003 104.819 223.883C104.803 223.762 104.791 223.641 104.775 223.521C104.759 223.4 104.737 223.279 104.714 223.159C104.692 223.038 104.67 222.917 104.644 222.797C104.644 222.755 104.629 222.717 104.619 222.676C104.584 222.517 104.546 222.359 104.505 222.197C104.463 222.035 104.438 221.94 104.4 221.813C104.4 221.755 104.368 221.698 104.349 221.644C104.33 221.59 104.295 221.46 104.266 221.368L104.209 221.19C104.184 221.111 104.158 221.032 104.13 220.952C104.082 220.809 104.031 220.67 103.98 220.527C103.929 220.384 103.875 220.244 103.821 220.105C103.713 219.819 103.595 219.536 103.478 219.254C103.017 218.155 102.499 217.073 102.022 215.999C101.766 215.437 101.539 214.861 101.342 214.276L101.281 214.361C101.185 214.507 101.099 214.66 101.024 214.818C101.024 217.317 98.5188 220.374 98.5188 220.374L95.998 216.707L93.7919 220.095C93.474 220.263 93.1561 220.841 92.9082 221.663C92.8382 221.886 92.7715 222.127 92.7079 222.384C92.6634 222.555 92.6221 222.736 92.5839 222.917C92.5617 223.009 92.5426 223.102 92.5235 223.197L92.4663 223.486V223.53C92.4282 223.727 92.39 223.93 92.3551 224.137C92.3201 224.343 92.2788 224.581 92.2438 224.806C92.2184 224.952 92.1961 225.099 92.177 225.245C92.1325 225.527 92.0944 225.813 92.0562 226.095C92.034 226.261 92.0117 226.413 91.9927 226.588L91.9164 227.222C92.0785 227.743 92.2597 228.257 92.4472 228.762C92.567 229.039 92.637 229.334 92.6539 229.635C96.5547 230.749 100.69 230.749 104.59 229.635C104.589 229.625 104.589 229.614 104.59 229.604C104.532 229.319 104.506 229.028 104.514 228.737V228.737C104.578 227.922 104.684 227.112 104.832 226.308C104.879 225.912 104.899 225.513 104.892 225.114V224.972C104.883 224.851 104.88 224.737 104.877 224.622ZM104.877 224.622C104.877 224.495 104.877 224.368 104.854 224.241C104.832 224.114 104.835 224.003 104.819 223.883C104.803 223.762 104.791 223.641 104.775 223.521C104.759 223.4 104.737 223.279 104.714 223.159C104.692 223.038 104.67 222.917 104.644 222.797C104.644 222.755 104.629 222.717 104.619 222.676C104.584 222.517 104.546 222.359 104.505 222.197C104.463 222.035 104.438 221.94 104.4 221.813C104.4 221.755 104.368 221.698 104.349 221.644C104.33 221.59 104.295 221.46 104.266 221.368L104.209 221.19C104.184 221.111 104.158 221.032 104.13 220.952C104.082 220.809 104.031 220.67 103.98 220.527C103.929 220.384 103.875 220.244 103.821 220.105C103.713 219.819 103.595 219.536 103.478 219.254C103.017 218.155 102.499 217.073 102.022 215.999C101.766 215.437 101.539 214.861 101.342 214.276L101.281 214.361C101.185 214.507 101.099 214.66 101.024 214.818C101.024 217.317 98.5188 220.374 98.5188 220.374L95.998 216.707L93.7919 220.095C93.474 220.263 93.1561 220.841 92.9082 221.663C92.8382 221.886 92.7715 222.127 92.7079 222.384C92.6634 222.555 92.6221 222.736 92.5839 222.917C92.5617 223.009 92.5426 223.102 92.5235 223.197L92.4663 223.486V223.53C92.4282 223.727 92.39 223.93 92.3551 224.137C92.3201 224.343 92.2788 224.581 92.2438 224.806C92.2184 224.952 92.1961 225.099 92.177 225.245C92.1325 225.527 92.0944 225.813 92.0562 226.095C92.034 226.261 92.0117 226.413 91.9927 226.588L91.9164 227.222C92.0785 227.743 92.2597 228.257 92.4472 228.762C92.567 229.039 92.637 229.334 92.6539 229.635C96.5547 230.749 100.69 230.749 104.59 229.635C104.589 229.625 104.589 229.614 104.59 229.604C104.532 229.319 104.506 229.028 104.514 228.737V228.737C104.578 227.922 104.684 227.112 104.832 226.308C104.879 225.912 104.899 225.513 104.892 225.114V224.972C104.883 224.851 104.88 224.737 104.877 224.622ZM104.877 224.622C104.877 224.495 104.877 224.368 104.854 224.241C104.832 224.114 104.835 224.003 104.819 223.883C104.803 223.762 104.791 223.641 104.775 223.521C104.759 223.4 104.737 223.279 104.714 223.159C104.692 223.038 104.67 222.917 104.644 222.797C104.644 222.755 104.629 222.717 104.619 222.676C104.584 222.517 104.546 222.359 104.505 222.197C104.463 222.035 104.438 221.94 104.4 221.813C104.4 221.755 104.368 221.698 104.349 221.644C104.33 221.59 104.295 221.46 104.266 221.368L104.209 221.19C104.184 221.111 104.158 221.032 104.13 220.952C104.082 220.809 104.031 220.67 103.98 220.527C103.929 220.384 103.875 220.244 103.821 220.105C103.713 219.819 103.595 219.536 103.478 219.254C103.017 218.155 102.499 217.073 102.022 215.999C101.766 215.437 101.539 214.861 101.342 214.276L101.281 214.361C101.185 214.507 101.099 214.66 101.024 214.818C101.024 217.317 98.5188 220.374 98.5188 220.374L95.998 216.707L93.7919 220.095C93.474 220.263 93.1561 220.841 92.9082 221.663C92.8382 221.886 92.7715 222.127 92.7079 222.384C92.6634 222.555 92.6221 222.736 92.5839 222.917C92.5617 223.009 92.5426 223.102 92.5235 223.197L92.4663 223.486V223.53C92.4282 223.727 92.39 223.93 92.3551 224.137C92.3201 224.343 92.2788 224.581 92.2438 224.806C92.2184 224.952 92.1961 225.099 92.177 225.245C92.1325 225.527 92.0944 225.813 92.0562 226.095C92.034 226.261 92.0117 226.413 91.9927 226.588L91.9164 227.222C92.0785 227.743 92.2597 228.257 92.4472 228.762C92.567 229.039 92.637 229.334 92.6539 229.635C96.5547 230.749 100.69 230.749 104.59 229.635C104.589 229.625 104.589 229.614 104.59 229.604C104.532 229.319 104.506 229.028 104.514 228.737V228.737C104.578 227.922 104.684 227.112 104.832 226.308C104.879 225.912 104.899 225.513 104.892 225.114V224.972C104.883 224.851 104.88 224.737 104.877 224.622Z" fill="#3F3D56"/>
<path opacity="0.1" d="M96.0425 216.495L95.8296 216.466C95.508 216.423 95.1895 216.359 94.8759 216.276L94.7583 216.244C93.9827 216.025 93.1339 215.631 92.9432 214.939C92.8864 214.716 92.893 214.482 92.9622 214.263C93.069 213.885 93.2138 213.519 93.3946 213.171V213.152C93.4185 213.103 93.445 213.055 93.474 213.009C93.7363 212.497 94.133 212.066 94.6216 211.761L94.2401 211.821L91.0104 212.345L86.0037 213.152C86.0037 213.152 85.1137 212.974 83.9025 216.307C83.9025 216.349 83.8739 216.387 83.8612 216.431C83.5687 217.247 83.2604 218.266 82.9425 219.539C82.7231 220.422 82.5229 221.289 82.3385 222.13C82.2845 222.384 82.2304 222.635 82.1796 222.883C82.7527 223.557 83.3697 224.194 84.0265 224.787L84.1314 224.886C85.4178 226.049 86.8394 227.054 88.3656 227.88L88.426 227.911C89.3861 228.429 90.3852 228.87 91.4141 229.232L91.6843 229.327C91.7416 228.74 91.8051 228.089 91.8814 227.423C91.8814 227.356 91.8814 227.289 91.9069 227.223L91.9832 226.588C92.0022 226.426 92.0245 226.27 92.0467 226.095C92.0849 225.813 92.123 225.527 92.1675 225.245C92.1866 225.099 92.2089 224.953 92.2343 224.806C92.2693 224.581 92.3074 224.356 92.3455 224.137C92.3837 223.918 92.4187 223.727 92.4568 223.53V223.486L92.514 223.197C92.5331 223.102 92.5522 223.01 92.5744 222.917C92.6126 222.736 92.6539 222.556 92.6984 222.384C92.762 222.127 92.8287 221.886 92.8987 221.663C93.153 220.841 93.4486 220.263 93.7824 220.095L95.9885 216.707L96.0807 216.565L96.122 216.501L96.0425 216.495Z" fill="black"/>
<path opacity="0.1" d="M96.5733 199.592C97.5651 199.424 98.5633 199.062 99.5487 199.274C100.375 199.446 101.065 199.995 101.822 200.376C102.552 200.743 103.351 200.954 104.168 200.995C104.465 201.034 104.768 200.975 105.029 200.827C105.423 200.554 105.48 199.995 105.414 199.519C105.223 198.166 104.377 197.004 103.506 195.95C103.159 195.5 102.757 195.094 102.311 194.741C101.17 193.899 99.66 193.757 98.2454 193.82C96.6306 193.893 94.9903 194.204 93.5884 195.014C92.6347 195.56 90.4477 197.281 91.2074 198.525C92.0053 199.827 95.324 199.805 96.5733 199.592Z" fill="black"/>
<path opacity="0.5" d="M96.5733 199.275C97.5651 199.106 98.5633 198.744 99.5487 198.957C100.375 199.128 101.065 199.678 101.822 200.059C102.552 200.426 103.351 200.636 104.168 200.678C104.465 200.717 104.768 200.658 105.029 200.51C105.423 200.236 105.48 199.678 105.414 199.201C105.223 197.849 104.377 196.687 103.506 195.633C103.159 195.183 102.757 194.776 102.311 194.423C101.17 193.582 99.66 193.439 98.2454 193.503C96.6306 193.576 94.9903 193.887 93.5884 194.696C92.6347 195.242 90.4477 196.963 91.2074 198.208C92.0053 199.509 95.324 199.487 96.5733 199.275Z" fill="#3F3D56"/>
</g>
<path d="M183.868 183.727H183.916C183.986 185.854 184.288 187.778 184.869 188.312C186.255 189.582 192.003 187.042 191.608 185.505C191.529 185.188 191.395 184.667 191.227 184.01C192.778 183.816 194.104 183.375 194.632 182.467L195.63 185.54L195.7 185.759H195.719H195.776C196.434 191.988 197.925 204.922 199.117 206.656C200.706 208.951 202.534 218.898 202.534 218.898L205.951 239.303C205.951 239.303 207.267 251.05 208.056 252.319C208.285 252.562 208.59 252.72 208.92 252.767C208.46 254.145 207.798 255.755 207.013 256.653C205.424 258.437 203.332 262.009 201.491 261.755C199.651 261.501 199.126 265.327 202.544 265.835C204.435 266.117 207.452 265.774 209.769 265.412C209.769 266.435 210.481 267.609 212.271 267.876C215.688 268.387 222.787 266.857 222.787 266.857C222.787 266.857 228.826 264.317 229.097 262.52C229.287 261.219 228.362 255.993 227.847 253.253C228.801 251.726 227.784 238.547 227.784 238.547L225.943 213.298C225.943 213.298 226.995 199.271 225.943 196.719C225.285 195.131 225.04 187.829 224.948 182.607L226.22 182.689C226.292 182.602 226.358 182.51 226.417 182.413L226.735 182.435C226.735 182.435 228.324 180.651 226.999 177.844C226.023 175.759 226.207 166.342 226.363 161.653L226.55 159.43C226.62 159.363 226.673 159.28 226.706 159.189C229.172 158.857 231.568 158.132 233.805 157.043C234.479 156.763 235.107 156.382 235.667 155.913C236.983 154.643 236.192 146.985 233.563 135.508C230.934 124.031 228.569 125.05 228.569 125.05C228.569 125.05 222.259 124.539 219.366 120.713C216.473 116.888 214.531 116.938 214.531 116.938C214.458 116.437 214.407 115.964 214.372 115.522C214.372 115.357 214.347 115.205 214.337 115.04C215.321 114.126 216.071 112.991 216.524 111.729C217.116 111.411 217.844 111.306 218.409 110.906C218.554 110.802 218.685 110.68 218.8 110.544C219.367 110.022 219.727 109.313 219.814 108.547C219.905 107.711 219.865 106.866 219.697 106.042C219.497 104.823 219.201 103.576 218.489 102.617C217.777 101.658 216.712 101.08 215.685 100.544C212.905 99.0853 210.117 97.6419 207.322 96.2132C206.775 95.8799 206.166 95.6637 205.532 95.5782C204.413 95.5147 203.408 96.2799 202.506 97.0069C202.145 97.29 201.8 97.592 201.472 97.9117C201.194 98.1587 200.939 98.4319 200.713 98.7276C199.657 100.14 199.209 102.801 199.673 104.566C199.819 105.125 200.134 105.287 200.522 105.28C199.946 106.423 199.647 107.684 199.648 108.963C199.654 110.364 200.013 111.74 200.691 112.965C201.369 114.191 202.345 115.226 203.529 115.976C203.529 116.154 203.529 116.329 203.545 116.497C203.558 117.149 203.537 117.8 203.481 118.45C203.481 118.45 196.488 122.225 195.703 124.009C194.918 125.793 192.022 127.069 192.022 127.069C192.022 127.069 186.5 129.876 186.5 139.823L183.607 153.849L183.083 180.629C183.083 180.629 183.445 180.311 184.036 179.86C184.017 180.038 184.001 180.222 183.986 180.41C183.907 181.433 183.88 182.46 183.906 183.486L183.868 183.727ZM219.185 253.037C219.077 253.447 218.918 253.989 218.718 254.624C218.629 254.097 218.54 253.577 218.451 253.081C218.68 253.059 218.924 253.047 219.185 253.037V253.037Z" fill="url(#paint2_linear)"/>
<path d="M209.636 249.748C209.636 249.748 208.622 254.301 207.093 256.069C205.564 257.837 203.561 261.381 201.793 261.127C200.026 260.873 199.514 264.666 202.807 265.171C206.101 265.676 212.919 264.162 212.919 264.162C212.919 264.162 218.743 261.622 218.994 259.863C219.245 258.104 217.475 248.989 217.475 248.989L209.636 249.748Z" fill="#53526B"/>
<path opacity="0.05" d="M209.636 249.748C209.636 249.748 208.622 254.301 207.093 256.069C205.564 257.837 203.561 261.381 201.793 261.127C200.026 260.873 199.514 264.666 202.807 265.171C206.101 265.676 212.919 264.162 212.919 264.162C212.919 264.162 218.743 261.622 218.994 259.863C219.245 258.104 217.475 248.989 217.475 248.989L209.636 249.748Z" fill="black"/>
<path d="M219.004 251.77C219.004 251.77 217.99 256.323 216.461 258.091C214.932 259.86 212.919 263.403 211.155 263.149C209.391 262.895 208.876 266.689 212.169 267.194C215.463 267.698 222.297 266.181 222.297 266.181C222.297 266.181 228.121 263.641 228.372 261.882C228.623 260.123 226.852 251.008 226.852 251.008L219.004 251.77Z" fill="#53526B"/>
<path d="M195.963 182.492C195.963 182.492 197.988 204.237 199.508 206.513C201.027 208.789 202.798 218.65 202.798 218.65L206.088 238.877C206.088 238.877 207.36 250.51 208.113 251.773C208.866 253.037 218.263 252.494 218.263 252.494L212.42 185.524L195.963 182.492Z" fill="#5F5D7E"/>
<path opacity="0.05" d="M195.963 182.492C195.963 182.492 197.988 204.237 199.508 206.513C201.027 208.789 202.798 218.65 202.798 218.65L206.088 238.877C206.088 238.877 207.36 250.51 208.113 251.773C208.866 253.037 218.263 252.494 218.263 252.494L212.42 185.524L195.963 182.492Z" fill="black"/>
<path d="M191.914 172.12L192.575 174.219L196.151 185.556L196.221 185.772H196.24C196.72 185.88 206.854 188.207 209.041 188.921C209.159 188.958 209.275 189.001 209.388 189.052C210.402 189.556 211.667 207.761 211.667 207.761C211.667 207.761 212.427 224.956 212.939 226.219C213.45 227.483 215.482 253.523 216.737 252.767C217.993 252.012 227.116 252.767 227.116 252.767C228.13 251.754 227.116 238.103 227.116 238.103L225.317 213.075C225.317 213.075 226.331 199.17 225.317 196.639C224.303 194.109 224.303 177.171 224.303 177.171L203.58 173.936L201.577 173.619L191.914 172.12Z" fill="#5F5D7E"/>
<path opacity="0.02" d="M192.575 174.222L196.151 185.559L196.237 185.781C196.717 185.889 206.851 188.217 209.038 188.931H209.257L203.596 173.939L203.434 173.508L201.593 173.625L192.575 174.222Z" fill="black"/>
<path opacity="0.1" d="M216.219 121.555C216.219 121.555 206.851 131.67 201.027 123.323L195.458 127.117L196.472 132.933L193.179 176.927C193.179 176.927 201.787 176.673 207.862 178.695C209.554 179.295 211.382 179.399 213.131 178.996C214.88 178.592 216.478 177.698 217.735 176.419L216.734 137.737L219.013 125.853L216.219 121.555Z" fill="black"/>
<path d="M216.219 120.796C216.219 120.796 206.851 130.911 201.027 122.564L195.458 126.358L196.472 132.174L193.179 176.168C193.179 176.168 201.787 175.914 207.862 177.936C209.554 178.536 211.382 178.64 213.131 178.237C214.88 177.834 216.478 176.94 217.735 175.66L216.734 136.978L219.013 125.095L216.219 120.796Z" fill="#53526B"/>
<path d="M197.518 165.84V167.434H197.009V166.374H195.15V167.434H194.638V165.844L197.518 165.84Z" fill="#E82127"/>
<path d="M197.063 165.326H195.099C194.97 165.295 194.852 165.23 194.758 165.137C194.664 165.044 194.597 164.927 194.565 164.799H197.594C197.561 164.927 197.494 165.044 197.4 165.137C197.306 165.229 197.189 165.295 197.06 165.326" fill="#E82127"/>
<path d="M214.827 164.818C214.793 164.945 214.726 165.06 214.633 165.152C214.54 165.244 214.423 165.31 214.296 165.342H213.469L213.428 165.358V167.44H212.919V165.358L212.872 165.342H212.045C211.918 165.309 211.803 165.243 211.709 165.151C211.616 165.059 211.549 164.944 211.514 164.818V164.818H214.827Z" fill="#E82127"/>
<path d="M196.723 173.136C196.723 173.136 196.723 179.711 195.204 182.492C193.684 185.273 184.825 183.762 184.825 183.762L186.595 174.406L196.723 173.136Z" fill="#3F3D56"/>
<path d="M185.788 188.312C187.123 189.582 192.657 187.042 192.276 185.531C192.009 184.461 191.074 180.632 190.544 178.46L190.175 176.933C190.175 176.933 186.932 175.92 185.788 176.933C185.372 177.301 185.079 178.752 184.942 180.505C184.707 183.55 184.946 187.505 185.788 188.312Z" fill="#FDC2CC"/>
<path d="M197.979 125.345L206.838 132.171C206.838 132.171 220.002 131.413 216.712 125.091C215.279 122.311 214.415 119.274 214.169 116.157C214.062 115.008 214.062 113.85 214.169 112.7C214.169 112.7 202.016 101.588 203.535 114.218C203.655 115.187 203.725 116.162 203.745 117.139C203.926 126.619 197.979 125.345 197.979 125.345Z" fill="#FDC2CC"/>
<path opacity="0.1" d="M203.561 114.221C203.681 115.19 203.751 116.165 203.771 117.142C205.134 118.044 206.735 118.523 208.371 118.52C210.637 118.52 212.306 116.316 213.813 114.853C213.644 112.754 214.191 112.703 214.191 112.703C214.191 112.703 202.041 101.579 203.561 114.221Z" fill="black"/>
<path d="M208.371 118.015C212.984 118.015 216.725 114.279 216.725 109.671C216.725 105.063 212.984 101.328 208.371 101.328C203.757 101.328 200.017 105.063 200.017 109.671C200.017 114.279 203.757 118.015 208.371 118.015Z" fill="#FDC2CC"/>
<path opacity="0.1" d="M214.318 117.634C214.318 117.634 215.71 117.761 218.495 121.551C221.28 125.342 227.355 125.85 227.355 125.85C227.355 125.85 229.634 124.837 232.164 136.216C234.695 147.595 235.454 155.179 234.189 156.443C232.924 157.706 227.86 159.481 225.317 159.481C225.317 159.481 224.557 175.409 225.822 178.19C227.088 180.972 225.568 182.743 225.568 182.743L214.442 181.984C214.442 181.984 210.643 177.181 209.884 168.837C209.124 160.494 206.594 136.724 207.859 133.943C209.124 131.162 214.693 124.082 214.442 123.323C214.191 122.564 214.318 117.634 214.318 117.634Z" fill="black"/>
<path d="M214.347 117.558C214.347 117.558 216.219 117.507 219.004 121.301C221.788 125.095 227.86 125.599 227.86 125.599C227.86 125.599 230.139 124.587 232.67 135.965C235.2 147.344 235.96 154.928 234.695 156.192C233.429 157.456 228.365 159.227 225.835 159.227C225.835 159.227 225.075 175.155 226.341 177.936C227.606 180.718 226.086 182.489 226.086 182.489L214.96 181.73C214.96 181.73 211.162 176.927 210.402 168.583C209.642 160.24 207.105 136.473 208.371 133.705C209.636 130.936 215.205 123.844 214.954 123.085C214.703 122.326 214.347 117.558 214.347 117.558Z" fill="#3F3D56"/>
<path opacity="0.1" d="M184.946 180.502C186.157 179.578 188.442 178.14 190.547 178.457L190.178 176.93C190.178 176.93 186.936 175.917 185.791 176.93C185.368 177.298 185.079 178.746 184.946 180.502Z" fill="black"/>
<path opacity="0.1" d="M203.701 119.151C203.701 119.151 197.244 123.323 196.485 125.095C195.725 126.866 192.94 128.13 192.94 128.13C192.94 128.13 187.625 130.911 187.625 140.772L184.841 154.678L197.499 172.377C197.499 172.377 199.018 154.678 199.778 150.379C200.538 146.08 201.549 137.997 201.549 137.997C201.549 137.997 205.347 133.194 204.839 131.93C204.33 130.666 203.701 119.151 203.701 119.151Z" fill="black"/>
<path d="M203.701 119.075C203.701 119.075 196.968 122.818 196.211 124.587C195.455 126.355 192.667 127.622 192.667 127.622C192.667 127.622 187.352 130.403 187.352 140.264L184.567 154.17L184.062 180.718C184.062 180.718 188.62 176.419 191.91 178.441C195.2 180.464 197.225 171.866 197.225 171.866C197.225 171.866 198.745 154.167 199.505 149.868C200.264 145.569 201.275 137.486 201.275 137.486C201.275 137.486 205.074 132.682 204.565 131.419C204.057 130.155 203.701 119.075 203.701 119.075Z" fill="#3F3D56"/>
<path opacity="0.1" d="M201.037 99.5214C201.465 98.9768 201.961 98.4883 202.512 98.0673C203.383 97.3434 204.346 96.5878 205.427 96.6513C206.038 96.7326 206.625 96.9426 207.15 97.2672C209.841 98.6832 212.525 100.114 215.202 101.56C216.19 102.093 217.211 102.658 217.901 103.617C218.59 104.576 218.87 105.808 219.064 107.014C219.226 107.831 219.265 108.668 219.178 109.497C219.1 110.309 218.705 111.058 218.079 111.583C217.357 112.106 216.368 112.11 215.764 112.795C215.415 113.192 215.262 113.748 215.014 114.23C214.766 114.713 214.337 115.183 213.848 115.097C213.358 115.011 213.062 114.494 212.992 113.97C212.961 113.439 212.992 112.906 213.085 112.383C213.18 111.43 213.059 110.421 212.506 109.713C212.125 109.23 211.578 108.938 211.209 108.443C210.325 107.249 210.729 105.268 209.76 104.147C209.478 103.854 209.124 103.641 208.733 103.529C208.342 103.418 207.928 103.412 207.534 103.512C206.749 103.677 206.031 104.103 205.309 104.465C204.334 104.956 203.313 105.349 202.261 105.639C201.377 105.881 200.353 106.458 200.051 105.284C199.59 103.56 200.02 100.921 201.037 99.5214Z" fill="black"/>
<path d="M201.291 99.2705C201.72 98.7259 202.215 98.2374 202.766 97.8164C203.637 97.0926 204.6 96.337 205.681 96.4005C206.293 96.4818 206.88 96.6917 207.404 97.0164C210.093 98.4324 212.328 97.0926 215.456 101.309C216.124 102.21 217.465 102.407 218.155 103.366C218.845 104.325 219.124 105.557 219.318 106.763C219.481 107.58 219.519 108.417 219.433 109.246C219.354 110.058 218.959 110.807 218.333 111.332C217.611 111.856 216.623 111.859 216.019 112.544C215.669 112.941 215.516 113.497 215.268 113.98C215.021 114.462 214.591 114.932 214.102 114.846C213.612 114.761 213.317 114.243 213.247 113.719C213.216 113.188 213.247 112.656 213.339 112.132C213.434 111.179 213.314 110.17 212.76 109.462C212.379 108.979 211.832 108.687 211.463 108.192C210.58 106.998 210.983 105.017 210.014 103.896C209.732 103.603 209.378 103.39 208.987 103.279C208.596 103.167 208.183 103.161 207.789 103.261C207.003 103.426 206.285 103.852 205.563 104.214C204.589 104.705 203.567 105.098 202.515 105.388C201.631 105.63 200.608 106.208 200.306 105.033C199.842 103.309 200.274 100.667 201.291 99.2705Z" fill="#192534"/>
<path opacity="0.1" d="M224.109 137.861C224.109 137.861 227.485 146.458 224.951 149.998L219.382 148.728C219.382 148.728 224.446 150.246 223.686 147.21C222.926 144.175 224.109 137.861 224.109 137.861Z" fill="black"/>
<path opacity="0.1" d="M225.953 159.103C225.953 159.103 218.61 159.608 216.585 158.091C219.251 160.123 222.4 161.431 225.724 161.884L225.953 159.103Z" fill="black"/>
<path opacity="0.1" d="M194.32 142.912C194.32 142.912 190.521 154.544 190.775 156.313C191.03 158.081 191.535 177.552 191.535 177.552L192.295 177.298L192.041 156.059L194.32 142.912Z" fill="black"/>
<path d="M226.846 157.129L140.063 87.2824C139.558 86.7781 138.958 86.3784 138.298 86.106C137.638 85.8336 136.931 85.6939 136.217 85.695H132.529C139.898 76.2637 143.388 64.3805 142.287 52.4683C141.185 40.5561 135.576 29.5119 126.603 21.5877C117.629 13.6635 105.968 9.45596 93.9952 9.82305C82.0228 10.1901 70.6414 15.1042 62.1716 23.5632C53.7019 32.0223 48.7816 43.3893 48.414 55.3466C48.0465 67.3038 52.2593 78.9509 60.1936 87.9129C68.1278 96.8749 79.186 102.477 91.1133 103.577C103.041 104.677 114.939 101.192 124.382 93.8321V97.5117C124.381 98.2249 124.521 98.9314 124.794 99.5906C125.066 100.25 125.467 100.849 125.971 101.353L212.754 171.199C213.256 171.705 213.854 172.107 214.513 172.381C215.171 172.655 215.878 172.796 216.591 172.796C217.304 172.796 218.011 172.655 218.669 172.381C219.328 172.107 219.925 171.705 220.428 171.199L226.824 164.818C227.844 163.8 228.419 162.419 228.424 160.978C228.428 159.537 227.861 158.153 226.846 157.129V157.129ZM95.41 85.695C89.6799 85.695 84.0784 83.9979 79.314 80.8185C74.5496 77.639 70.8362 73.1199 68.6433 67.8327C66.4505 62.5454 65.8768 56.7275 66.9946 51.1146C68.1125 45.5016 70.8719 40.3459 74.9237 36.2992C78.9755 32.2525 84.1378 29.4966 89.7578 28.3802C95.3779 27.2637 101.203 27.8367 106.497 30.0268C111.791 32.2168 116.316 35.9255 119.499 40.6839C122.683 45.4423 124.382 51.0367 124.382 56.7596C124.385 60.5605 123.638 64.3248 122.183 67.8371C120.728 71.3494 118.594 74.5408 115.903 77.2288C113.212 79.9167 110.017 82.0486 106.501 83.5024C102.985 84.9562 99.2158 85.7034 95.41 85.7013V85.695Z" fill="url(#paint3_linear)"/>
<path d="M227.482 156.494L140.699 86.6474C140.194 86.1432 139.594 85.7434 138.934 85.471C138.274 85.1986 137.567 85.059 136.853 85.06H133.165C140.534 75.6288 144.024 63.7456 142.922 51.8333C141.821 39.9211 136.212 28.877 127.239 20.9527C118.265 13.0285 106.603 8.82101 94.6309 9.1881C82.6585 9.55519 71.2771 14.4692 62.8074 22.9283C54.3376 31.3873 49.4173 42.7543 49.0498 54.7116C48.6822 66.6689 52.8951 78.3159 60.8293 87.2779C68.7636 96.2399 79.8217 101.842 91.749 102.942C103.676 104.042 115.575 100.557 125.018 93.1971V96.8767C125.017 97.59 125.157 98.2964 125.429 98.9556C125.702 99.6148 126.102 100.214 126.607 100.718L213.39 170.564C213.892 171.07 214.49 171.472 215.148 171.746C215.807 172.02 216.513 172.161 217.227 172.161C217.94 172.161 218.646 172.02 219.305 171.746C219.964 171.472 220.561 171.07 221.064 170.564L227.459 164.183C228.48 163.165 229.055 161.784 229.059 160.343C229.064 158.902 228.496 157.518 227.482 156.494V156.494ZM96.0457 85.06C90.3156 85.06 84.7142 83.363 79.9497 80.1835C75.1853 77.0041 71.4719 72.485 69.2791 67.1977C67.0862 61.9105 66.5125 56.0925 67.6304 50.4796C68.7483 44.8667 71.5076 39.7109 75.5594 35.6642C79.6112 31.6175 84.7736 28.8617 90.3936 27.7452C96.0136 26.6287 101.839 27.2018 107.133 29.3918C112.427 31.5819 116.952 35.2906 120.135 40.049C123.319 44.8074 125.018 50.4017 125.018 56.1246C125.021 59.9256 124.273 63.6899 122.819 67.2021C121.364 70.7144 119.23 73.9058 116.539 76.5938C113.848 79.2818 110.653 81.4136 107.137 82.8674C103.62 84.3212 99.8515 85.0684 96.0457 85.0664V85.06Z" fill="#F59B66"/>
<path d="M221.029 150.125C221.029 150.125 208.361 135.616 210.141 145.572C211.413 152.652 216.216 156.446 218.495 157.205C220.774 157.964 221.029 150.125 221.029 150.125Z" fill="#FDC2CC"/>
<path d="M224.068 136.724C224.068 136.724 224.322 146.08 225.587 147.344C226.852 148.607 224.827 150.125 224.827 150.125L219.763 148.855C219.763 148.855 221.035 157.198 215.714 156.189C215.714 156.189 219.258 159.475 222.802 159.983C226.347 160.491 226.093 159.224 226.093 159.224L231.408 152.903L224.068 136.724Z" fill="#3F3D56"/>
<path d="M225.47 159.361L230.607 158.233L229.92 155.868L226.741 154.598L222.609 156.503L225.47 159.361Z" fill="#3F3D56"/>
<path d="M99.2151 68.1159L106.053 62.8489C106.053 62.8489 101.472 63.8299 101.602 56.5183C101.601 56.494 101.601 56.4696 101.602 56.4452C101.602 55.7849 101.666 55.061 101.761 54.2641C102.934 44.5079 93.5568 53.0926 93.5568 53.0926C93.6375 53.9564 93.6375 54.8259 93.5568 55.6896C93.5568 55.7119 93.5568 55.7373 93.5568 55.7595C93.3713 58.1637 92.7078 60.5069 91.605 62.652C89.0587 67.5286 99.2151 68.1159 99.2151 68.1159Z" fill="#FDC2CC"/>
<path opacity="0.1" d="M94.4308 54.334C95.5911 55.4611 96.3 57.5088 98.0452 57.5088C99.3079 57.5116 100.543 57.1416 101.596 56.4453C101.596 55.7849 101.66 55.061 101.755 54.2641C102.928 44.5079 93.5503 53.0926 93.5503 53.0926C93.5503 53.0926 94.5548 52.7466 94.4308 54.334Z" fill="black"/>
<path d="M98.0453 57.1914C101.606 57.1914 104.492 54.3087 104.492 50.7528C104.492 47.1969 101.606 44.3143 98.0453 44.3143C94.4849 44.3143 91.5986 47.1969 91.5986 50.7528C91.5986 54.3087 94.4849 57.1914 98.0453 57.1914Z" fill="#FDC2CC"/>
<path opacity="0.1" d="M104.228 42.5078C103.858 42.0411 103.431 41.623 102.957 41.2633C102.213 40.6442 101.386 39.9934 100.461 40.0505C99.9378 40.1201 99.4351 40.2997 98.9862 40.5775C96.6816 41.7903 94.7711 40.6442 92.0913 44.2508C91.5191 45.0223 90.3715 45.2033 89.7803 46.0128C89.189 46.8224 88.9506 47.886 88.7821 48.921C88.6429 49.6211 88.6096 50.3381 88.6836 51.0481C88.7542 51.745 89.0968 52.386 89.6372 52.8324C90.2539 53.28 91.1027 53.2832 91.6208 53.8705C91.8814 54.2531 92.0948 54.6656 92.2566 55.0992C92.4664 55.5119 92.8352 55.9024 93.2548 55.8421C93.6744 55.7818 93.9255 55.3278 93.9859 54.8897C94.0121 54.4362 93.9855 53.9813 93.9064 53.534C93.827 52.7308 93.9287 51.8545 94.4023 51.2481C94.7202 50.8322 95.197 50.5846 95.5117 50.1623C96.2683 49.1432 95.925 47.432 96.7547 46.4859C96.9973 46.2371 97.3017 46.0569 97.6367 45.9638C97.9717 45.8706 98.3255 45.8678 98.662 45.9557C99.3302 46.1462 99.9712 46.4215 100.569 46.7748C101.404 47.1955 102.278 47.5327 103.179 47.7812C103.936 47.9876 104.813 48.4829 105.071 47.4637C105.474 45.9652 105.096 43.7047 104.228 42.5078Z" fill="black"/>
<path d="M104.228 42.1903C103.858 41.7236 103.431 41.3055 102.957 40.9458C102.213 40.3267 101.386 39.6759 100.461 39.733C99.9378 39.8026 99.4351 39.9822 98.9862 40.26C96.6816 41.4728 94.7711 40.3267 92.0913 43.9333C91.5191 44.7048 90.3715 44.8858 89.7803 45.6953C89.189 46.5049 88.9506 47.5685 88.7821 48.6035C88.6429 49.3036 88.6096 50.0206 88.6836 50.7306C88.7542 51.4275 89.0968 52.0685 89.6372 52.5149C90.2539 52.9625 91.1027 52.9657 91.6208 53.553C91.8814 53.9356 92.0948 54.3481 92.2566 54.7817C92.4664 55.1944 92.8352 55.5849 93.2548 55.5246C93.6744 55.4643 93.9255 55.0103 93.9859 54.5722C94.0121 54.1187 93.9855 53.6638 93.9064 53.2165C93.827 52.4133 93.9287 51.537 94.4023 50.9306C94.7202 50.5147 95.197 50.2671 95.5117 49.8448C96.2683 48.8257 95.925 47.1145 96.7547 46.1684C96.9973 45.9196 97.3017 45.7394 97.6367 45.6463C97.9717 45.5531 98.3255 45.5503 98.662 45.6382C99.3302 45.8287 99.9712 46.104 100.569 46.4573C101.404 46.878 102.278 47.2152 103.179 47.4637C103.936 47.6701 104.813 48.1654 105.071 47.1462C105.474 45.6477 105.096 43.3872 104.228 42.1903Z" fill="#865A61"/>
<path opacity="0.1" d="M91.5986 71.5035L91.4714 76.3769C93.3188 76.8783 95.2249 77.1313 97.1393 77.1293C97.4572 77.1293 97.791 77.1293 98.1152 77.1071C99.8129 77.034 101.496 76.7591 103.128 76.288H103.16C103.462 76.1991 103.761 76.107 104.057 76.0054H104.088L104.358 75.9102C105.387 75.5483 106.387 75.1067 107.347 74.5894L107.407 74.5577C107.512 74.5006 107.617 74.4434 107.725 74.3831L107.232 67.8144L108.017 63.3093L103.72 60.3853C103.478 60.7332 103.208 61.0603 102.912 61.3631C102.488 61.8057 101.991 62.1728 101.443 62.4489C98.36 63.9665 94.8505 61.5536 93.1054 60.0614L92.708 59.709C92.2566 59.2995 91.9991 59.0201 91.9991 59.0201L89.8502 62.3346L91.5986 71.5035Z" fill="black"/>
<path d="M91.5986 71.8209L91.4714 76.6943C93.3188 77.1957 95.2249 77.4488 97.1393 77.4467C97.4572 77.4467 97.791 77.4467 98.1152 77.4245C99.8129 77.3515 101.496 77.0765 103.128 76.6054H103.16C103.462 76.5165 103.761 76.4245 104.057 76.3229H104.088L104.358 76.2276C105.387 75.8657 106.387 75.4241 107.347 74.9069L107.407 74.8751C107.512 74.818 107.617 74.7608 107.725 74.7005L107.232 68.1318L108.017 63.6267L103.72 60.7027C103.478 61.0507 103.208 61.3777 102.912 61.6805C102.488 62.1231 101.991 62.4903 101.443 62.7663C98.36 64.2839 94.8505 61.871 93.1054 60.3789L92.708 60.0265C92.2566 59.6169 91.9991 59.3375 91.9991 59.3375L89.8502 62.652L91.5986 71.8209Z" fill="#53526B"/>
<path d="M103.513 72.2114C103.513 72.2114 103.748 74.0814 104.056 76.3165H104.088L104.358 76.2213C105.387 75.8593 106.387 75.4178 107.347 74.9005L107.407 74.8688C107.512 74.8116 107.617 74.7545 107.725 74.6942C109.134 73.9042 110.45 72.9585 111.648 71.8749L111.753 71.7765C112.409 71.1827 113.026 70.5463 113.599 69.8716L113.666 69.7922C112.531 65.8586 110.169 64.6204 110.169 64.6204C110.169 64.6204 108.021 63.6426 107.432 62.2774C106.844 60.9122 101.653 58.0263 101.653 58.0263V58.0485C101.653 58.293 101.571 60.5312 101.447 62.7822C101.367 64.2458 101.269 65.7157 101.154 66.6491C101.129 66.9524 101.074 67.2523 100.989 67.5444C100.585 68.5064 103.513 72.2114 103.513 72.2114Z" fill="#555388"/>
</g>
<defs>
<linearGradient id="paint0_linear" x1="163.482" y1="252.272" x2="163.482" y2="12.4739" gradientUnits="userSpaceOnUse">
<stop stop-color="#808080" stop-opacity="0.25"/>
<stop offset="0.54" stop-color="#808080" stop-opacity="0.12"/>
<stop offset="1" stop-color="#808080" stop-opacity="0.1"/>
</linearGradient>
<linearGradient id="paint1_linear" x1="11890" y1="19668.1" x2="11890" y2="15018.2" gradientUnits="userSpaceOnUse">
<stop stop-color="#808080" stop-opacity="0.25"/>
<stop offset="0.54" stop-color="#808080" stop-opacity="0.12"/>
<stop offset="1" stop-color="#808080" stop-opacity="0.1"/>
</linearGradient>
<linearGradient id="paint2_linear" x1="-55585.1" y1="149744" x2="-55585.1" y2="56127.6" gradientUnits="userSpaceOnUse">
<stop stop-color="#808080" stop-opacity="0.25"/>
<stop offset="0.54" stop-color="#808080" stop-opacity="0.12"/>
<stop offset="1" stop-color="#808080" stop-opacity="0.1"/>
</linearGradient>
<linearGradient id="paint3_linear" x1="86195.4" y1="92615.4" x2="86195.4" y2="8904.44" gradientUnits="userSpaceOnUse">
<stop stop-color="#808080" stop-opacity="0.25"/>
<stop offset="0.54" stop-color="#808080" stop-opacity="0.12"/>
<stop offset="1" stop-color="#808080" stop-opacity="0.1"/>
</linearGradient>
<clipPath id="clip0">
<rect width="354" height="268" fill="white"/>
</clipPath>
</defs>
</svg>
