<svg width="69" height="86" viewBox="0 0 69 86" fill="none" xmlns="http://www.w3.org/2000/svg">
<path d="M59.8104 20.2755C65.6052 28.3964 68.7386 36.4926 68.9804 44.1665C69.2517 51.8415 66.6382 59.1179 63.1876 66.6183C59.736 74.0939 55.4217 81.7926 49.6289 82.8106C43.836 83.8041 36.5636 78.1415 28.6264 74.9384C20.6607 71.7589 12.0361 71.0634 6.65844 66.271C1.28763 61.4529 -0.807823 52.537 0.27711 43.8439C1.38652 35.1519 5.72528 26.6789 12.3808 18.7356C19.0617 10.7637 28.1084 3.31265 36.8349 3.6599C45.5858 4.00814 54.041 12.1537 59.8104 20.2755Z" fill="#F8F8F8"/>
<path d="M45.0061 54.2466C46.7814 59.2452 47.5099 82.1191 47.5099 86H38.3232L34.4995 77.3188L41.1364 53.0125L45.0061 54.2466Z" fill="#BB6AB9"/>
<path d="M41.7543 54.8829C41.253 58.2251 36.7908 83.3483 35.795 86H22.5212C21.9572 84.1059 19.8265 61.8229 22.5212 53.6172C25.2159 45.4115 41.7543 54.8829 41.7543 54.8829Z" fill="#B661B4"/>
<path d="M44.0563 41.6006C44.9014 41.4329 56.4009 36.1483 59.0055 33.8991C61.6101 31.6498 58.4983 29.9126 57.5172 30.4917C56.536 31.0708 46.3222 35.5011 44.2248 36.1483C42.1274 36.7954 44.0563 41.6006 44.0563 41.6006Z" fill="#FEC8AF"/>
<path d="M61.6649 17.6342L53.3016 18.2914L54.562 34.5705L62.9252 33.9133L61.6649 17.6342Z" fill="#DEDEDE"/>
<path d="M49.714 21.3794L54.088 30.3398" stroke="black" stroke-width="8" stroke-linecap="round" stroke-linejoin="round"/>
<path d="M32.4856 17.6737C34.8671 17.4113 36.4914 14.3764 36.1136 10.895C35.7357 7.41363 33.4989 4.80406 31.1174 5.0664C28.7359 5.32874 27.1116 8.36365 27.4894 11.8451C27.8673 15.3265 30.1041 17.936 32.4856 17.6737Z" fill="#FEC8AF"/>
<path d="M30.9422 18.6783C45.4341 18.6783 46.1097 54.2416 45.4732 54.8828C44.8368 55.5241 30.1001 58.5329 22.0708 55.1788C20.1115 46.5963 21.4441 18.6783 30.9422 18.6783Z" fill="#F59B66"/>
<path d="M53.8736 26.0593C53.8736 25.2267 52.9923 23.4944 51.6988 23.8022C50.8087 24.0133 49.5848 25.8117 49.055 26.5753C47.2621 27.8193 35.9173 37.2729 35.0449 38.1883C35.0087 37.4248 34.2811 35.8967 33.4077 34.483L26.0198 39.2962C26.7845 41.4359 31.5512 47.0895 33.4077 47.0895C38.2811 47.0895 48.1346 33.7491 50.6315 30.1711C51.7987 29.3533 53.8746 27.7206 53.8736 26.0593Z" fill="#FEC8AF"/>
<path d="M24.3582 8.28659C24.3582 6.43493 25.8494 5.35176 26.3341 4.84568C27.3133 3.81972 27.9008 1.08416 29.9698 1.08416C30.5574 1.08416 31.47 1.42845 32.0438 1.42845C32.7615 1.42549 34.1901 0 35.6305 0C38.0432 0 38.5798 2.23738 38.5798 2.92497C38.5798 5.44251 35.468 7.34251 35.0547 7.5694C34.8795 7.28036 34.0756 6.19916 33.8082 6.0354C33.488 6.70819 31.327 7.82787 29.6937 8.83114C28.7792 9.39344 28.2034 13.7577 28.2171 14.102C26.6915 14.1069 24.3582 11.7748 24.3582 8.28659Z" fill="#5E2C21"/>
<path d="M27.9772 13.6827C28.6558 13.6827 29.206 13.1285 29.206 12.4447C29.206 11.7609 28.6558 11.2066 27.9772 11.2066C27.2985 11.2066 26.7483 11.7609 26.7483 12.4447C26.7483 13.1285 27.2985 13.6827 27.9772 13.6827Z" fill="#FEC8AF"/>
<path d="M32.9985 21.0371C33.0964 21.6556 29.2472 21.4988 29.2022 20.8398L28.7782 14.6406L32.2641 14.2569C32.2641 14.2569 32.9064 20.4205 32.9985 21.0371Z" fill="#FEC8AF"/>
<path d="M23.2732 24.0055C18.9462 26.38 22.815 38.7122 25.5479 39.9749C28.6352 39.9749 34.8657 35.4716 34.8657 33.9514C34.8657 32.4312 28.8859 20.9276 23.2732 24.0055Z" fill="#F59B66"/>
<path d="M59.4236 24.917C59.4236 26.964 61.8392 28.0442 62.1908 28.0442C62.9271 28.0442 62.9271 25.8038 62.9271 25.2238C62.9271 23.9019 61.6473 22.9341 60.675 22.9341C59.7027 22.9341 59.4236 23.7569 59.4236 24.917Z" fill="#FEC8AF"/>
</svg>
