<svg width="79" height="79" viewBox="0 0 79 79" fill="none" xmlns="http://www.w3.org/2000/svg">
<path d="M48.2183 29.4989L53.973 30.1072L75.9352 32.4395L75.9857 32.445L76.0582 32.457C77.5795 32.6988 78.6142 34.3452 78.4154 36.205L74.3644 74.0378C74.2839 74.8863 73.9271 75.6853 73.3483 76.3132C72.7991 76.8919 72.1049 77.2103 71.3953 77.2103H71.2668H71.2152L71.1427 77.2026L49.1817 74.8648L43.427 74.2544L48.2183 29.4989ZM48.0525 29.2943L43.2194 74.4196L49.1608 75.0497L71.1218 77.382L71.2547 77.3962H71.3931C72.9606 77.3962 74.3446 75.962 74.5478 74.0574L78.5989 36.2268C78.8087 34.2664 77.6916 32.5303 76.0857 32.2754L75.9527 32.2612L53.9928 29.9245L48.0525 29.2943Z" fill="black"/>
<path d="M29.3526 72.0154C28.832 72.0139 28.3296 71.8247 27.9383 71.4828C27.5469 71.1409 27.2931 70.6695 27.2238 70.1556L18.6989 6.25894C18.6234 5.69594 18.7754 5.12611 19.1217 4.67478C19.468 4.22344 19.9801 3.92756 20.5454 3.85221L48.8773 0.11192C48.9709 0.0997377 49.0652 0.0935259 49.1596 0.0933228C49.6803 0.0947577 50.1829 0.283896 50.5744 0.62577C50.9659 0.967644 51.2199 1.43913 51.2895 1.95307L59.8133 65.8475C59.8883 66.4103 59.7361 66.9797 59.3902 67.4308C59.0443 67.882 58.5328 68.1781 57.968 68.2543L29.6349 71.9968C29.5413 72.009 29.447 72.0152 29.3526 72.0154Z" fill="white"/>
<path d="M49.1597 0.185975C49.6574 0.187295 50.1377 0.367916 50.512 0.694474C50.8864 1.02103 51.1294 1.47147 51.1962 1.96258L59.7212 65.8582C59.7908 66.3957 59.6442 66.9389 59.3134 67.3693C58.9825 67.7997 58.4942 68.0823 57.9549 68.1555L29.623 71.9045C29.5334 71.9164 29.4431 71.9222 29.3527 71.922C28.8553 71.9207 28.3751 71.7403 28.0008 71.4139C27.6265 71.0876 27.3833 70.6374 27.3162 70.1465L18.7924 6.25095C18.7218 5.71339 18.8679 5.16987 19.1987 4.73933C19.5296 4.30879 20.0181 4.02628 20.5576 3.95361L48.8895 0.204572C48.9791 0.19243 49.0693 0.186218 49.1597 0.185975ZM49.1597 0C49.0613 9.35812e-05 48.9629 0.00667159 48.8654 0.0196913L20.5334 3.76873C19.9449 3.84821 19.412 4.15643 19.051 4.62605C18.6899 5.09567 18.5302 5.6885 18.6067 6.27502L27.1317 70.1706C27.2046 70.7062 27.4697 71.1974 27.878 71.5535C28.2862 71.9096 28.81 72.1066 29.3527 72.108C29.4512 72.1079 29.5495 72.1014 29.6471 72.0883L57.9802 68.3393C58.5684 68.2595 59.1011 67.9512 59.4619 67.4816C59.8227 67.012 59.9822 66.4193 59.9057 65.833L51.3819 1.93742C51.3085 1.40184 51.0431 0.910746 50.6347 0.554691C50.2263 0.198637 49.7025 0.00163172 49.1597 0Z" fill="#B661B4"/>
<path d="M55.4097 68.6795L57.9801 68.3393C58.5684 68.2595 59.101 67.9512 59.4618 67.4816C59.8226 67.012 59.9822 66.4193 59.9056 65.833L51.3818 1.93742C51.3009 1.35214 50.991 0.822434 50.5196 0.463805C50.0482 0.105176 49.4535 -0.0532845 48.8653 0.0229751L46.2949 0.3632L55.4097 68.6795Z" fill="#B661B4"/>
<path d="M51.2279 23.213L21.3933 27.1612" stroke="#B661B4" stroke-width="2" stroke-miterlimit="10"/>
<path d="M34.2802 21.3609C38.5268 21.3609 41.9693 17.9324 41.9693 13.7031C41.9693 9.4738 38.5268 6.04529 34.2802 6.04529C30.0337 6.04529 26.5912 9.4738 26.5912 13.7031C26.5912 17.9324 30.0337 21.3609 34.2802 21.3609Z" fill="#FED892"/>
<path d="M38.3406 16.0841L32.09 11.3194L31.399 12.2185L37.6496 16.9832L38.3406 16.0841Z" fill="#F59B66"/>
<path d="M38.7848 17.1371L38.3488 16.0923L37.6578 16.9905L38.7848 17.1371Z" fill="#F59B66"/>
<path d="M36.3562 14.5728L36.4298 10.0941L35.6411 9.4924L34.4021 13.0839L36.3562 14.5728Z" fill="#F59B66"/>
<path d="M32.2954 12.1902L32.3261 10.3665L32.0043 10.1215L31.5001 11.5841L32.2954 12.1902Z" fill="#F59B66"/>
<path d="M35.6653 15.472L31.343 16.7125L30.5543 16.1109L33.7112 13.982L35.6653 15.472Z" fill="#F59B66"/>
<path d="M32.2953 12.1901L30.5356 12.6955L30.2148 12.4505L31.5 11.584L32.2953 12.1901Z" fill="#F59B66"/>
<path d="M49.7473 61.7641L45.2322 27.5197L43.0997 27.7986L47.6148 62.043L49.7473 61.7641Z" fill="#F59B66"/>
<path d="M43.3888 49.8227L40.5122 28.2652L38.3769 28.5478L41.2535 50.1053L43.3888 49.8227Z" fill="#F59B66"/>
<path d="M33.2982 27.6381L38.8069 68.9245" stroke="#B661B4" stroke-width="2" stroke-miterlimit="10" stroke-linecap="round"/>
<path d="M29.9424 30.3142L29.8572 29.6754L26.1224 30.1698L26.2076 30.8085L29.9424 30.3142Z" fill="black"/>
<path d="M30.8374 37.0233L30.7522 36.3846L27.0174 36.8789L27.1026 37.5176L30.8374 37.0233Z" fill="black"/>
<path d="M31.3371 40.7692L31.2518 40.1304L27.517 40.6248L27.6023 41.2635L31.3371 40.7692Z" fill="black"/>
<path d="M32.0843 46.3738L31.999 45.735L28.2642 46.2294L28.3495 46.8681L32.0843 46.3738Z" fill="black"/>
<path d="M30.3667 33.4934L30.1171 31.6227L26.3823 32.1171L26.6319 33.9877L30.3667 33.4934Z" fill="black"/>
<path d="M31.1183 39.1316L30.8687 37.2609L27.1339 37.7552L27.3835 39.6259L31.1183 39.1316Z" fill="black"/>
<path d="M31.9352 45.2542L31.6855 43.3835L27.9508 43.8779L28.2004 45.7485L31.9352 45.2542Z" fill="black"/>
<path d="M32.4502 49.1143L32.3254 48.1795L28.5906 48.6738L28.7154 49.6086L32.4502 49.1143Z" fill="black"/>
<path d="M30.0561 31.1646L30.0229 30.9164L26.2879 31.4108L26.321 31.659L30.0561 31.1646Z" fill="black"/>
<path d="M32.8848 52.373L32.7996 51.7343L29.0648 52.2286L29.15 52.8673L32.8848 52.373Z" fill="black"/>
<path d="M33.2803 55.3357L33.0306 53.4651L29.2958 53.9594L29.5455 55.8301L33.2803 55.3357Z" fill="black"/>
<path d="M32.9706 53.0068L32.9375 52.7587L29.2025 53.253L29.2356 53.5012L32.9706 53.0068Z" fill="black"/>
<path d="M32.1525 46.8804L32.1194 46.6322L28.3843 47.1266L28.4175 47.3747L32.1525 46.8804Z" fill="black"/>
<path d="M32.2948 47.7974L32.2621 47.5495L28.5319 48.0373L28.5646 48.2852L32.2948 47.7974Z" fill="black"/>
<path d="M12.3247 78.906C11.7589 78.9048 11.2092 78.719 10.7596 78.377C10.3101 78.035 9.9855 77.5556 9.8356 77.0123L0.184744 41.8959C0.00437935 41.2383 0.0936419 40.5362 0.432902 39.9442C0.772163 39.3521 1.33364 38.9185 1.99387 38.7387L6.27777 37.5714C6.69739 38.9881 7.65816 40.1844 8.95372 40.9034C10.2493 41.6223 11.7763 41.8066 13.2067 41.4165C14.6372 41.0265 15.857 40.0933 16.6042 38.8174C17.3514 37.5414 17.5663 36.0245 17.2028 34.5925L21.4867 33.4252C21.8138 33.3357 22.1554 33.3112 22.492 33.3533C22.8286 33.3955 23.1535 33.5033 23.4482 33.6707C23.7429 33.838 24.0015 34.0616 24.2093 34.3287C24.417 34.5958 24.5699 34.901 24.659 35.227L34.3098 70.3435C34.49 71.0013 34.4006 71.7035 34.0614 72.2958C33.7223 72.8882 33.1609 73.3223 32.5007 73.5029L28.2168 74.6701C27.8036 73.2459 26.8442 72.0409 25.5459 71.3156C24.2476 70.5904 22.7149 70.4033 21.2791 70.7947C19.8434 71.1862 18.6201 72.1247 17.8737 73.4074C17.1273 74.69 16.9179 76.2138 17.2907 77.649L13.0068 78.8163C12.7845 78.8764 12.555 78.9066 12.3247 78.906Z" fill="white"/>
<path d="M22.1678 33.4263C22.7127 33.4275 23.2422 33.6063 23.6754 33.9354C24.1086 34.2645 24.4217 34.7259 24.5668 35.2489L34.2177 70.3654C34.304 70.6793 34.3274 71.007 34.2865 71.3299C34.2456 71.6528 34.1412 71.9645 33.9793 72.2473C33.8175 72.53 33.6012 72.7782 33.343 72.9777C33.0848 73.1772 32.7897 73.324 32.4745 73.4099L28.2795 74.5553C27.8423 73.1277 26.8634 71.9262 25.5508 71.2059C24.2383 70.4857 22.6955 70.3035 21.2502 70.698C19.8049 71.0925 18.5709 72.0326 17.8105 73.3187C17.0501 74.6048 16.823 76.1354 17.1777 77.5856L12.9838 78.7288C12.6686 78.815 12.3393 78.8386 12.0149 78.798C11.6905 78.7574 11.3774 78.6535 11.0933 78.4923C10.8093 78.331 10.56 78.1155 10.3596 77.8582C10.1593 77.6009 10.0119 77.3068 9.92578 76.9926L0.274925 41.8762C0.101518 41.2422 0.187664 40.5657 0.514464 39.9949C0.841264 39.4242 1.38203 39.0058 2.01814 38.8316L6.21087 37.6884C6.63823 39.1274 7.61492 40.3423 8.93137 41.0723C10.2478 41.8023 11.7991 41.9893 13.2524 41.5931C14.7057 41.197 15.9452 40.2493 16.7049 38.9534C17.4646 37.6575 17.684 36.1166 17.3161 34.6614L21.5088 33.5182C21.7235 33.4594 21.9452 33.4296 22.1678 33.4296V33.4263ZM22.1678 33.2436C21.9285 33.2437 21.6902 33.2757 21.4594 33.3388L17.0865 34.5269C17.092 34.5455 17.0986 34.5641 17.103 34.5816C17.2962 35.2844 17.3485 36.0182 17.257 36.7411C17.1655 37.4641 16.9318 38.162 16.5695 38.795C16.2071 39.428 15.7231 39.9838 15.1451 40.4305C14.5671 40.8772 13.9064 41.2062 13.2008 41.3986C12.4951 41.5911 11.7583 41.6432 11.0324 41.552C10.3065 41.4609 9.60575 41.2282 8.97015 40.8673C8.33454 40.5065 7.77653 40.0244 7.32797 39.4488C6.87941 38.8731 6.54909 38.2151 6.35587 37.5123C6.35587 37.4937 6.34708 37.4751 6.34159 37.4565L1.96871 38.6489C1.28449 38.8357 0.702723 39.2853 0.351318 39.8991C-8.63705e-05 40.5129 -0.0923611 41.2406 0.0947819 41.9221L9.74564 77.0386C9.83808 77.3762 9.99648 77.6924 10.2118 77.969C10.427 78.2456 10.695 78.4772 11.0002 78.6506C11.3055 78.8239 11.6421 78.9356 11.9908 78.9793C12.3394 79.0229 12.6933 78.9976 13.0322 78.9049L17.4039 77.7136C17.0139 76.2941 17.2059 74.7784 17.938 73.4999C18.67 72.2215 19.8819 71.285 21.3072 70.8965C22.7325 70.508 24.2544 70.6993 25.5381 71.4283C26.8217 72.1574 27.762 73.3644 28.1521 74.7839L32.5239 73.5915C33.2081 73.4048 33.7899 72.9551 34.1413 72.3413C34.4927 71.7275 34.585 70.9999 34.3978 70.3183L24.747 35.2018C24.5921 34.6387 24.2558 34.1418 23.7899 33.7875C23.3239 33.4331 22.7541 33.2409 22.1678 33.2404V33.2436Z" fill="#D37C59"/>
<path d="M10.6897 57.3703L10.2871 57.48L13.2214 68.155L13.624 68.0452L10.6897 57.3703Z" fill="black"/>
<path d="M14.7831 56.2545L14.3805 56.3643L17.3148 67.0392L17.7173 66.9294L14.7831 56.2545Z" fill="black"/>
<path d="M16.3347 55.5689L15.934 55.677L18.8233 66.302L19.224 66.1939L16.3347 55.5689Z" fill="black"/>
<path d="M20.0631 54.8142L19.6605 54.924L22.5948 65.5989L22.9974 65.4892L20.0631 54.8142Z" fill="black"/>
<path d="M12.5581 56.8611L11.3789 57.1826L14.3132 67.8575L15.4923 67.536L12.5581 56.8611Z" fill="black"/>
<path d="M16.1128 55.8918L14.9336 56.2133L17.8679 66.8882L19.047 66.5667L16.1128 55.8918Z" fill="black"/>
<path d="M19.4933 54.9708L18.3141 55.2923L21.2483 65.9672L22.4275 65.6457L19.4933 54.9708Z" fill="black"/>
<path d="M21.4484 54.4375L20.8594 54.5981L23.7936 65.273L24.3827 65.1124L21.4484 54.4375Z" fill="black"/>
<path d="M10.7772 57.0597L10.6222 57.1015L13.5115 67.7265L13.6665 67.6847L10.7772 57.0597Z" fill="black"/>
<path d="M23.1492 53.7405L22.7485 53.8486L25.6379 64.4736L26.0386 64.3655L23.1492 53.7405Z" fill="black"/>
<path d="M25.3723 53.3669L24.1931 53.6884L27.1274 64.3633L28.3065 64.0418L25.3723 53.3669Z" fill="black"/>
<path d="M23.9035 53.7674L23.7478 53.8098L26.6821 64.4847L26.8378 64.4423L23.9035 53.7674Z" fill="black"/>
<path d="M20.3827 54.7282L20.2269 54.7707L23.1612 65.4456L23.3169 65.4032L20.3827 54.7282Z" fill="black"/>
<path d="M20.354 54.4913L20.199 54.5331L23.0883 65.1581L23.2433 65.1163L20.354 54.4913Z" fill="black"/>
<path d="M14.6423 46.9125L4.92603 49.5615L5.49681 51.6381L15.2131 48.989L14.6423 46.9125Z" fill="#B661B4"/>
<path d="M10.5621 51.0649L5.70349 52.3896L5.98888 53.4279L10.8475 52.1032L10.5621 51.0649Z" fill="#B661B4"/>
<path d="M22.3019 49.4027C23.8264 49.4027 25.0622 48.1718 25.0622 46.6535C25.0622 45.1352 23.8264 43.9044 22.3019 43.9044C20.7774 43.9044 19.5415 45.1352 19.5415 46.6535C19.5415 48.1718 20.7774 49.4027 22.3019 49.4027Z" fill="#F59B66"/>
<path d="M79 27.924L57.1906 24.3164L52.6621 51.471L74.4716 55.0785L79 27.924Z" fill="#F59B66"/>
<path d="M69.3994 77.091C69.3544 77.091 69.3104 77.091 69.2654 77.091H69.1885L41.3278 74.1373L46.1433 29.1839L74.0436 32.1474L74.0831 32.1551C75.6528 32.4045 76.7194 34.0958 76.5184 36.0059L72.4673 73.8354C72.2718 75.6612 70.9295 77.091 69.406 77.091H69.3994Z" fill="white"/>
<path d="M46.2225 29.2867L51.9772 29.8972L73.9338 32.2306H73.9844L74.0579 32.2426C75.5782 32.4844 76.614 34.1308 76.4152 35.9917L72.3642 73.8212C72.2832 74.6696 71.9264 75.4685 71.3481 76.0967C70.7989 76.6754 70.1047 76.9937 69.3951 76.9937C69.3522 76.9937 69.3083 76.9937 69.2666 76.9937H69.2149L69.1425 76.986L47.1847 74.6526L41.43 74.0422L46.2225 29.2867ZM46.0566 29.0822L41.2235 74.2074L47.1639 74.8386L69.126 77.1709L69.2589 77.1852H69.3984C70.9659 77.1852 72.3488 75.751 72.5531 73.8464L76.6052 36.0146C76.815 34.0532 75.6979 32.3181 74.0909 32.0621L73.9569 32.0479L51.997 29.7123L46.0566 29.0822Z" fill="black"/>
<path d="M60.021 44.1122L49.3486 58.6948L67.3663 60.6082L60.021 44.1122Z" fill="#F59B66"/>
<path d="M69.3187 39.7688L51.9882 37.9272L51.6607 40.984L68.9912 42.8255L69.3187 39.7688Z" fill="#B661B4"/>
<path d="M58.9665 62.7775C63.4855 62.7775 67.1488 59.1291 67.1488 54.6285C67.1488 50.128 63.4855 46.4796 58.9665 46.4796C54.4476 46.4796 50.7843 50.128 50.7843 54.6285C50.7843 59.1291 54.4476 62.7775 58.9665 62.7775Z" fill="#FED892"/>
</svg>
