<svg width="569" height="423" viewBox="0 0 569 423" fill="none" xmlns="http://www.w3.org/2000/svg">
<g clip-path="url(#clip0)">
<g clip-path="url(#clip1)">
<rect y="53.6041" width="563.799" height="349.555" rx="50.1154" fill="#B661B4"/>
<path d="M207.874 70.1189C266.05 -8.43145 298.369 -9.30788 355.715 70.1189" stroke="#B661B4" stroke-width="13.1553"/>
<path d="M408.497 228.42C489.088 227.224 522.556 211.898 568.331 151.676" stroke="white" stroke-width="13.1553" stroke-linecap="round"/>
</g>
<path fill-rule="evenodd" clip-rule="evenodd" d="M212.594 263.174C221.794 263.174 230.618 259.52 237.123 253.014C243.629 246.509 247.283 237.685 247.283 228.485C247.283 219.285 243.629 210.462 237.123 203.956C230.618 197.451 221.794 193.796 212.594 193.796C203.394 193.796 194.571 197.451 188.065 203.956C181.56 210.462 177.905 219.285 177.905 228.485C177.905 237.685 181.56 246.509 188.065 253.014C194.571 259.52 203.394 263.174 212.594 263.174V263.174ZM212.594 280.519C226.394 280.519 239.629 275.037 249.388 265.279C259.146 255.52 264.628 242.285 264.628 228.485C264.628 214.685 259.146 201.45 249.388 191.692C239.629 181.933 226.394 176.451 212.594 176.451C198.794 176.451 185.559 181.933 175.801 191.692C166.042 201.45 160.56 214.685 160.56 228.485C160.56 242.285 166.042 255.52 175.801 265.279C185.559 275.037 198.794 280.519 212.594 280.519V280.519ZM351.351 263.174C360.551 263.174 369.375 259.52 375.88 253.014C382.386 246.509 386.04 237.685 386.04 228.485C386.04 219.285 382.386 210.462 375.88 203.956C369.375 197.451 360.551 193.796 351.351 193.796C342.151 193.796 333.328 197.451 326.822 203.956C320.317 210.462 316.662 219.285 316.662 228.485C316.662 237.685 320.317 246.509 326.822 253.014C333.328 259.52 342.151 263.174 351.351 263.174ZM351.351 280.519C365.151 280.519 378.386 275.037 388.145 265.279C397.903 255.52 403.385 242.285 403.385 228.485C403.385 214.685 397.903 201.45 388.145 191.692C378.386 181.933 365.151 176.451 351.351 176.451C337.551 176.451 324.316 181.933 314.558 191.692C304.799 201.45 299.317 214.685 299.317 228.485C299.317 242.285 304.799 255.52 314.558 265.279C324.316 275.037 337.551 280.519 351.351 280.519V280.519Z" fill="white"/>
<path fill-rule="evenodd" clip-rule="evenodd" d="M281.973 211.14C277.373 211.14 272.961 212.968 269.708 216.221C266.456 219.473 264.628 223.885 264.628 228.485H247.284C247.284 219.285 250.938 210.462 257.444 203.956C263.949 197.451 272.773 193.796 281.973 193.796C291.173 193.796 299.996 197.451 306.502 203.956C313.007 210.462 316.662 219.285 316.662 228.485H299.318C299.318 223.885 297.49 219.473 294.237 216.221C290.985 212.968 286.573 211.14 281.973 211.14V211.14ZM143.216 228.485C143.216 226.185 144.13 223.979 145.756 222.353C147.382 220.726 149.588 219.813 151.888 219.813H169.233V237.157H151.888C149.588 237.157 147.382 236.244 145.756 234.617C144.13 232.991 143.216 230.785 143.216 228.485ZM412.058 237.157H394.713V219.813H412.058C414.358 219.813 416.564 220.726 418.19 222.353C419.816 223.979 420.73 226.185 420.73 228.485C420.73 230.785 419.816 232.991 418.19 234.617C416.564 236.244 414.358 237.157 412.058 237.157Z" fill="white"/>
<path d="M154.697 229.628C75.3049 228.526 39.6562 213.84 -5.43823 158.323" stroke="white" stroke-width="13.1553" stroke-linecap="round"/>
<circle cx="211.562" cy="228.182" r="21.4521" fill="black"/>
<circle cx="211.562" cy="228.182" r="21.4521" fill="black"/>
<circle cx="219.054" cy="222.075" r="9.97072" fill="white"/>
<circle cx="350.788" cy="228.118" r="21.4521" fill="black"/>
<circle cx="358.279" cy="222.01" r="9.97072" fill="white"/>
</g>
<defs>
<clipPath id="clip0">
<rect width="568.029" height="423" fill="white"/>
</clipPath>
<clipPath id="clip1">
<rect width="563.799" height="403.159" fill="white"/>
</clipPath>
</defs>
</svg>
