<svg width="26" height="26" viewBox="0 0 26 26" fill="none" xmlns="http://www.w3.org/2000/svg">
<path d="M13 17.3334C15.3933 17.3334 17.3334 15.3933 17.3334 13C17.3334 10.6068 15.3933 8.66669 13 8.66669C10.6068 8.66669 8.66669 10.6068 8.66669 13C8.66669 15.3933 10.6068 17.3334 13 17.3334Z" fill="#fff"/>
<path d="M14.0834 4.4081V2.16669H11.9167V4.4081C10.0103 4.65151 8.23874 5.52087 6.8798 6.8798C5.52087 8.23874 4.65151 10.0103 4.4081 11.9167H2.16669V14.0834H4.4081C4.65115 15.9898 5.5204 17.7616 6.8794 19.1206C8.2384 20.4796 10.0102 21.3489 11.9167 21.5919V23.8334H14.0834V21.5919C15.9899 21.3491 17.7618 20.4799 19.1208 19.1208C20.4799 17.7618 21.3491 15.9899 21.5919 14.0834H23.8334V11.9167H21.5919C21.3489 10.0102 20.4796 8.2384 19.1206 6.8794C17.7616 5.5204 15.9898 4.65115 14.0834 4.4081ZM13 19.5C9.41527 19.5 6.50002 16.5848 6.50002 13C6.50002 9.41527 9.41527 6.50002 13 6.50002C16.5848 6.50002 19.5 9.41527 19.5 13C19.5 16.5848 16.5848 19.5 13 19.5Z" fill="#fff"/>
</svg>
