<svg width="64" height="64" viewBox="0 0 64 64" fill="none" xmlns="http://www.w3.org/2000/svg">
<path d="M32 62C48.5685 62 62 48.5685 62 32C62 15.4315 48.5685 2 32 2C15.4315 2 2 15.4315 2 32C2 48.5685 15.4315 62 32 62Z" fill="#FFE8A6"/>
<path d="M50 42.2001C53.866 42.2001 57 39.0661 57 35.2001C57 31.3341 53.866 28.2001 50 28.2001C46.134 28.2001 43 31.3341 43 35.2001C43 39.0661 46.134 42.2001 50 42.2001Z" fill="#F4DC9F"/>
<path d="M18.1 45C21.4137 45 24.1 42.3137 24.1 39C24.1 35.6863 21.4137 33 18.1 33C14.7863 33 12.1 35.6863 12.1 39C12.1 42.3137 14.7863 45 18.1 45Z" fill="#F4DC9F"/>
<path d="M24.2 59C29.1705 59 33.2 54.9706 33.2 50C33.2 45.0294 29.1705 41 24.2 41C19.2294 41 15.2 45.0294 15.2 50C15.2 54.9706 19.2294 59 24.2 59Z" fill="#F4DC9F"/>
<path d="M24 21.2001C26.2091 21.2001 28 19.4092 28 17.2001C28 14.9909 26.2091 13.2001 24 13.2001C21.7909 13.2001 20 14.9909 20 17.2001C20 19.4092 21.7909 21.2001 24 21.2001Z" fill="#F4DC9F"/>
<path d="M37 22.2001C39.2091 22.2001 41 20.4092 41 18.2001C41 15.9909 39.2091 14.2001 37 14.2001C34.7909 14.2001 33 15.9909 33 18.2001C33 20.4092 34.7909 22.2001 37 22.2001Z" fill="#F4DC9F"/>
<path d="M12.1 29.9C14.3091 29.9 16.1 28.1092 16.1 25.9C16.1 23.6909 14.3091 21.9 12.1 21.9C9.89084 21.9 8.09998 23.6909 8.09998 25.9C8.09998 28.1092 9.89084 29.9 12.1 29.9Z" fill="#F4DC9F"/>
<path d="M39 11.2001C40.1046 11.2001 41 10.3046 41 9.20007C41 8.0955 40.1046 7.20007 39 7.20007C37.8954 7.20007 37 8.0955 37 9.20007C37 10.3046 37.8954 11.2001 39 11.2001Z" fill="#F4DC9F"/>
<path d="M8.09998 41C9.20455 41 10.1 40.1046 10.1 39C10.1 37.8954 9.20455 37 8.09998 37C6.99541 37 6.09998 37.8954 6.09998 39C6.09998 40.1046 6.99541 41 8.09998 41Z" fill="#F4DC9F"/>
<path d="M52 52C53.1046 52 54 51.1046 54 50C54 48.8954 53.1046 48 52 48C50.8954 48 50 48.8954 50 50C50 51.1046 50.8954 52 52 52Z" fill="#F4DC9F"/>
<path d="M25 32.9C26.6569 32.9 28 31.5569 28 29.9C28 28.2432 26.6569 26.9 25 26.9C23.3431 26.9 22 28.2432 22 29.9C22 31.5569 23.3431 32.9 25 32.9Z" fill="#F4DC9F"/>
<path d="M15 17.7001C16.1046 17.7001 17 16.8046 17 15.7001C17 14.5955 16.1046 13.7001 15 13.7001C13.8954 13.7001 13 14.5955 13 15.7001C13 16.8046 13.8954 17.7001 15 17.7001Z" fill="#F4DC9F"/>
<path d="M46 56.6C48.2091 56.6 50 54.8091 50 52.6C50 50.3908 48.2091 48.6 46 48.6C43.7909 48.6 42 50.3908 42 52.6C42 54.8091 43.7909 56.6 46 56.6Z" fill="#F4DC9F"/>
<path d="M24.2 10.8C24.2 13.6 26.4 15.8 29.2 15.8C32 15.8 34.2 13.6 34.2 10.8C34.2 8.00002 32 5.80002 29.2 5.80002C26.4 5.70002 24.2 8.00002 24.2 10.8" fill="#F4DC9F"/>
</svg>
