<svg width="21" height="15" viewBox="0 0 21 15" fill="none" xmlns="http://www.w3.org/2000/svg">
<g clip-path="url(#clip0)">
<g clip-path="url(#clip1)">
<rect x="5.72205e-06" y="1.90082" width="19.9929" height="12.3956" rx="1.77714" fill="#B661B4"/>
<path d="M7.37143 2.48646C9.43441 -0.299016 10.5805 -0.330095 12.614 2.48646" stroke="#B661B4" stroke-width="0.4665"/>
<path d="M14.4857 8.1C17.3436 8.05759 18.5303 7.51411 20.1536 5.37857" stroke="white" stroke-width="0.4665" stroke-linecap="round"/>
</g>
<g clip-path="url(#clip2)">
<rect x="5.72205e-06" y="1.90082" width="19.9929" height="12.3956" rx="1.77714" fill="#B661B4"/>
<path d="M7.37143 2.48646C9.43441 -0.299016 10.5805 -0.330095 12.614 2.48646" stroke="#B661B4" stroke-width="0.4665"/>
<path d="M14.4857 8.1C17.3436 8.05759 18.5303 7.51411 20.1536 5.37857" stroke="white" stroke-width="0.4665" stroke-linecap="round"/>
</g>
<path fill-rule="evenodd" clip-rule="evenodd" d="M7.53974 9.3324C7.86599 9.3324 8.17888 9.2028 8.40957 8.97211C8.64026 8.74142 8.76986 8.42853 8.76986 8.10228C8.76986 7.77604 8.64026 7.46315 8.40957 7.23246C8.17888 7.00177 7.86599 6.87217 7.53974 6.87217C7.2135 6.87217 6.90061 7.00177 6.66992 7.23246C6.43923 7.46315 6.30963 7.77604 6.30963 8.10228C6.30963 8.42853 6.43923 8.74142 6.66992 8.97211C6.90061 9.2028 7.2135 9.3324 7.53974 9.3324ZM7.53974 9.94746C8.02912 9.94746 8.49844 9.75306 8.84448 9.40702C9.19052 9.06098 9.38492 8.59166 9.38492 8.10228C9.38492 7.61291 9.19052 7.14359 8.84448 6.79755C8.49844 6.45151 8.02912 6.25711 7.53974 6.25711C7.05037 6.25711 6.58105 6.45151 6.23501 6.79755C5.88897 7.14359 5.69457 7.61291 5.69457 8.10228C5.69457 8.59166 5.88897 9.06098 6.23501 9.40702C6.58105 9.75306 7.05037 9.94746 7.53974 9.94746ZM12.4602 9.3324C12.7865 9.3324 13.0993 9.2028 13.33 8.97211C13.5607 8.74142 13.6903 8.42853 13.6903 8.10228C13.6903 7.77604 13.5607 7.46315 13.33 7.23246C13.0993 7.00177 12.7865 6.87217 12.4602 6.87217C12.134 6.87217 11.8211 7.00177 11.5904 7.23246C11.3597 7.46315 11.2301 7.77604 11.2301 8.10228C11.2301 8.42853 11.3597 8.74142 11.5904 8.97211C11.8211 9.2028 12.134 9.3324 12.4602 9.3324ZM12.4602 9.94746C12.9496 9.94746 13.4189 9.75306 13.7649 9.40702C14.111 9.06098 14.3054 8.59166 14.3054 8.10228C14.3054 7.61291 14.111 7.14359 13.7649 6.79755C13.4189 6.45151 12.9496 6.25711 12.4602 6.25711C11.9708 6.25711 11.5015 6.45151 11.1555 6.79755C10.8094 7.14359 10.615 7.61291 10.615 8.10228C10.615 8.59166 10.8094 9.06098 11.1555 9.40702C11.5015 9.75306 11.9708 9.94746 12.4602 9.94746Z" fill="white"/>
<path fill-rule="evenodd" clip-rule="evenodd" d="M9.99904 7.4882C9.83592 7.4882 9.67948 7.553 9.56413 7.66834C9.44879 7.78369 9.38399 7.94013 9.38399 8.10325H8.76893C8.76893 7.77701 8.89853 7.46412 9.12922 7.23343C9.35991 7.00274 9.6728 6.87314 9.99904 6.87314C10.3253 6.87314 10.6382 7.00274 10.8689 7.23343C11.0996 7.46412 11.2292 7.77701 11.2292 8.10325H10.6141C10.6141 7.94013 10.5493 7.78369 10.434 7.66834C10.3186 7.553 10.1622 7.4882 9.99904 7.4882ZM5.07858 8.10325C5.07858 8.02169 5.11098 7.94347 5.16865 7.8858C5.22633 7.82813 5.30455 7.79573 5.38611 7.79573H6.00117V8.41078H5.38611C5.30455 8.41078 5.22633 8.37838 5.16865 8.32071C5.11098 8.26304 5.07858 8.18482 5.07858 8.10325ZM14.612 8.41078H13.9969V7.79573H14.612C14.6935 7.79573 14.7718 7.82813 14.8294 7.8858C14.8871 7.94347 14.9195 8.02169 14.9195 8.10325C14.9195 8.18482 14.8871 8.26304 14.8294 8.32071C14.7718 8.37838 14.6935 8.41078 14.612 8.41078Z" fill="white"/>
<path d="M5.48572 8.14289C2.67038 8.1038 1.40625 7.58302 -0.192848 5.61432" stroke="white" stroke-width="0.4665" stroke-linecap="round"/>
<circle cx="7.50222" cy="8.09159" r="0.760714" fill="black"/>
<circle cx="7.50222" cy="8.09159" r="0.760714" fill="black"/>
<circle cx="7.76787" cy="7.87499" r="0.353571" fill="white"/>
<circle cx="12.4393" cy="8.08924" r="0.760714" fill="black"/>
<circle cx="12.7049" cy="7.87268" r="0.353571" fill="white"/>
</g>
<defs>
<clipPath id="clip0">
<rect width="20.1429" height="15" fill="white"/>
</clipPath>
<clipPath id="clip1">
<rect width="19.9929" height="14.2964" fill="white"/>
</clipPath>
<clipPath id="clip2">
<rect width="19.9929" height="14.2964" fill="white"/>
</clipPath>
</defs>
</svg>
