<svg width="96" height="88" viewBox="0 0 96 88" fill="none" xmlns="http://www.w3.org/2000/svg">
<g clip-path="url(#clip0)">
<path d="M67.7145 2.13893C78.9299 3.72074 93.0012 9.72946 95.5563 18.5806C98.1127 27.4547 89.1584 39.1495 80.6342 48.5062C72.1127 57.8846 64.0296 64.9262 54.1264 69.6703C44.2246 74.394 32.5246 76.8542 24.6497 72.3988C16.7966 67.9746 12.7959 56.6471 8.13632 46.671C3.46176 36.6731 -1.88118 28.005 0.649401 21.9285C3.18542 15.8751 13.595 12.4119 21.4249 10.2337C29.2549 8.05547 34.4821 7.13783 41.2993 5.28086C48.0933 3.3995 56.4759 0.557114 67.7145 2.13893Z" fill="#F2F2F2"/>
<path d="M32.0238 4.81323C30.2255 4.81323 29.6633 7.61089 29.6633 8.72913C29.6633 10.6268 31.6862 18.464 33.596 18.464C35.5058 18.464 37.53 10.7379 37.53 9.84874C37.53 8.95956 35.1696 4.81323 32.0238 4.81323Z" fill="#FEC8AF"/>
<path d="M67.3401 5.34331L40.309 0.0626423C38.4388 -0.302705 36.6253 0.910725 36.2584 2.77291L25.9435 55.1241C25.5766 56.9863 26.7952 58.7921 28.6654 59.1574L55.6965 64.4381C57.5666 64.8035 59.3801 63.59 59.747 61.7278L70.0619 9.37662C70.4288 7.51443 69.2102 5.70866 67.3401 5.34331Z" fill="#B661B4"/>
<path d="M61.1464 4.14632L60.8047 5.87995C60.7202 6.30407 60.4703 6.67756 60.1098 6.91864C59.7493 7.15973 59.3075 7.24877 58.8813 7.16627L47.2262 4.88911C46.8004 4.80458 46.4256 4.55569 46.1835 4.19682C45.9414 3.83795 45.8519 3.39828 45.9343 2.97386L46.2828 1.24023" fill="#F59B66"/>
<path d="M23.8344 52.3964L60.6754 59.5952" stroke="#F59B66" stroke-width="3" stroke-miterlimit="10"/>
<path d="M42.2903 60.2472C43.0443 60.2472 43.6556 59.6385 43.6556 58.8877C43.6556 58.1368 43.0443 57.5281 42.2903 57.5281C41.5362 57.5281 40.9249 58.1368 40.9249 58.8877C40.9249 59.6385 41.5362 60.2472 42.2903 60.2472Z" fill="#F59B66"/>
<path d="M29.8892 19.9251C27.5288 19.9251 25.9552 21.7143 25.9552 23.6174C25.9552 29.8823 29.5516 35.0289 31.128 35.0289C34.4984 35.0289 35.7345 33.2384 35.7345 32.0076C35.7317 31.1062 35.2825 19.9251 29.8892 19.9251Z" fill="#FEC8AF"/>
<path d="M28.6533 36.3654C29.3271 37.0364 34.4958 42.5192 34.4958 46.3226C34.4958 48.8979 33.9336 50.9094 29.2141 50.9094C26.9667 50.9094 20.6749 42.0705 20.6749 38.4908C20.6749 36.4766 21.9109 31.7772 25.3944 31.7772C26.4058 31.7772 28.6533 33.5678 28.9895 34.0151C29.3358 34.3722 29.703 34.7085 30.0894 35.0222C29.9478 35.7501 29.1665 39.5792 29.1665 39.5792" fill="#FEC8AF"/>
<path d="M30.3085 38.2075C30.3085 38.2075 28.709 36.1973 27.6976 35.3027" stroke="#F59B66" stroke-width="3" stroke-miterlimit="10" stroke-linecap="round"/>
<path d="M27.8133 58.874C27.4771 59.77 27.2484 68.4205 28.2598 73.231C27.5791 76.6996 24.8879 88.0054 24.8879 88.0054H49.2776L51.7496 78.1594C51.7496 78.1594 66.7997 65.0617 68.2603 62.714C69.721 60.3664 73.1486 46.6587 73.0996 45.3724C73.0601 44.4778 56.6937 30.7145 56.2445 30.1547C55.7953 29.5949 47.8918 37.4741 61.0389 46.5421C60.9259 47.6604 60.9327 52.5996 60.9327 52.5996C60.9327 52.5996 51.7878 55.7294 50.8594 56.4044C49.931 57.0794 48.1546 61.8357 47.8333 62.9024C46.5905 62.6612 27.8133 58.874 27.8133 58.874Z" fill="#FEC8AF"/>
<path d="M45.9166 68.5086C46.2229 67.3429 47.708 63.1559 48.0769 62.157" stroke="#F59B66" stroke-width="3" stroke-miterlimit="10" stroke-linecap="round"/>
</g>
<defs>
<clipPath id="clip0">
<rect width="96" height="88" fill="white"/>
</clipPath>
</defs>
</svg>
