<svg width="66" height="66" viewBox="0 0 66 66" fill="none" xmlns="http://www.w3.org/2000/svg">
<path d="M24.7542 9.89403C24.7542 8.39621 25.1983 6.93203 26.0305 5.68665C26.8626 4.44127 28.0454 3.47063 29.4293 2.89748C30.8131 2.32433 32.3358 2.17441 33.8048 2.46669C35.2738 2.75896 36.6232 3.4803 37.6823 4.53948C38.7413 5.59866 39.4625 6.94811 39.7546 8.41717C40.0467 9.88624 39.8966 11.4089 39.3233 12.7927C38.75 14.1764 37.7792 15.3591 36.5337 16.1911C35.2882 17.0231 33.824 17.4671 32.3262 17.467C31.3317 17.467 30.347 17.2711 29.4283 16.8905C28.5095 16.5099 27.6748 15.9521 26.9716 15.2488C26.2685 14.5456 25.7108 13.7108 25.3303 12.792C24.9498 11.8732 24.754 10.8885 24.7542 9.89403Z" fill="#DFDFDF"/>
<path d="M7.75095 64.0815L5.54675 65.3807V65.7008H9.85172V64.0815H7.75095Z" fill="black"/>
<path d="M19.0519 64.1707H21.1651V65.625H19.0519V64.1707Z" fill="black"/>
<path d="M2.31089 41.0748L10.1691 43.4083L8.83165 47.9183L0.973389 45.5848L2.31089 41.0748Z" fill="#DFDFDF"/>
<path d="M9.06526 34.1884L7.64929 64.2233L10.0354 64.2429L14.9253 44.5879L14.8085 34.809L9.06526 34.1884Z" fill="#B661B4"/>
<path d="M21.4434 34.1296C21.405 34.9838 21.3069 64.2849 21.3069 64.2849L18.9797 64.3018L11.7429 34.867C11.7429 34.867 21.4835 33.2763 21.4434 34.1296Z" fill="#B661B4"/>
<path d="M6.92346 25.8834C6.44017 26.6984 5.28279 32.8473 5.29349 34.2856C4.92077 35.5741 5.22305 39.4483 5.23286 39.9619C5.24266 40.4755 5.14369 42.3971 5.25336 42.8697C4.96089 43.6151 6.44017 45.1648 6.89314 45.2049C7.34611 45.2451 7.87932 44.4506 7.87932 44.0672C7.87932 43.0917 7.24356 42.2669 7.25516 41.8639C7.31579 39.8514 8.19141 34.719 8.30197 34.3739C8.41254 34.0288 8.78526 33.3574 9.09734 33.0854C9.40943 32.8135 9.56012 26.8268 9.56012 26.8268C9.56012 26.8268 7.18115 25.4492 6.92346 25.8834Z" fill="#FEC8AF"/>
<path d="M13.2579 15.5125C13.2579 15.7657 13.413 18.0894 13.117 18.611C12.821 19.1326 16.0399 18.9561 16.0399 18.5611C16.0399 18.1661 15.9338 16.3319 16.1942 15.6676C16.4545 15.0033 13.2579 15.2583 13.2579 15.5125Z" fill="#FEC8AF"/>
<path d="M24.212 22.3952L24.6828 22.7385C24.6828 22.7385 28.7274 14.9079 28.7765 14.6243C28.8255 14.3408 28.509 13.6435 28.5571 13.3109C28.6053 12.9783 30.2325 11.3653 30.7426 11.3403C31.2526 11.3154 31.2927 11.5677 31.1679 11.8165C31.0431 12.0653 30.0667 13.0568 30.0667 13.0568C30.0667 13.0568 30.7426 12.8704 30.9789 13.0568C31.2152 13.2432 32.1113 14.438 31.7751 14.9605C31.439 15.483 30.7943 15.7443 30.6677 16.0555C30.5411 16.3667 26.698 27.1737 26.2263 27.3868C25.43 27.7434 22.8549 26.4951 22.4688 25.8816C22.0827 25.2682 24.212 22.3952 24.212 22.3952Z" fill="#FEC8AF"/>
<path d="M11.7136 19.0211C14.3573 19.9761 12.6364 27.0033 11.7974 27.492C11.1331 27.8772 6.27797 26.3471 6.11212 25.6132C5.86602 24.5263 9.41574 18.1919 11.7136 19.0211Z" fill="#F59B66"/>
<path d="M15.0385 17.7532C21.8268 17.7309 22.4866 33.212 21.347 34.2713C19.2962 36.1804 9.42991 35.3253 9.00013 34.3123C8.29482 32.6521 8.62652 17.7737 15.0385 17.7532Z" fill="#F59B66"/>
<path d="M16.0283 20.4924C17.199 17.9378 24.0595 20.2374 24.4733 21.1166C24.8023 21.8112 22.8683 26.5219 22.1273 26.6262C21.0261 26.7778 15.01 22.7127 16.0283 20.4924Z" fill="#FFA976"/>
<path d="M12.0809 12.2079C12.0809 9.98947 13.4532 8.19098 15.1465 8.19098C16.8398 8.19098 18.212 9.98947 18.212 12.2079C18.212 14.4264 16.8398 16.2258 15.1465 16.2258C13.4532 16.2258 12.0809 14.4264 12.0809 12.2079Z" fill="#FEC8AF"/>
<path d="M11.0715 11.6908C10.9592 10.0145 11.9284 8.45672 12.2735 7.47767C12.5713 6.53607 13.1651 5.837 13.932 5.80044C14.6988 5.76388 14.9128 5.95827 15.4237 5.93954C15.9347 5.92082 16.8219 5.34302 17.3997 5.34302C17.9775 5.34302 18.3225 5.75586 18.6792 6.01444C19.0359 6.27303 19.7724 6.75988 19.7697 7.18877C19.7546 9.76747 17.3979 9.52315 16.7122 10.2641C16.2467 10.6556 16.2182 11.5695 15.9855 11.7184C15.7528 11.8673 15.249 11.7791 15.2401 12.5111C15.2347 12.9418 15.3515 13.294 15.6591 13.3217C15.9668 13.3493 16.0755 13.4616 16.0693 13.6855C16.0042 15.8451 14.4795 16.2508 13.858 16.1884C12.9868 16.1063 12.7398 15.0426 12.5249 14.6788C11.701 13.7595 11.1411 12.7447 11.0715 11.6908Z" fill="#5E2C21"/>
<path d="M31.9587 10.2231L33.0938 5.39293L34.2298 0.56189L36.4233 1.71036L38.6141 2.85882L35.2882 6.5414L31.9587 10.2231Z" fill="#949494"/>
<path d="M43.6191 2.73932H65.3918V16.1286H43.6191V2.73932Z" fill="#DFDFDF"/>
<path d="M44.9325 3.8147H46.8647V15.0497H44.9325V3.8147Z" fill="#949494"/>
<path d="M47.801 5.44379H49.7333V15.0533H47.801V5.44379Z" fill="#949494"/>
<path d="M50.6704 7.91547H52.6026V15.0488H50.6704V7.91547Z" fill="#949494"/>
<path d="M53.5433 11.269H55.4747V15.0533H53.5433V11.269Z" fill="#949494"/>
<path d="M56.4083 8.02069H58.3406V15.0533H56.4083V8.02069Z" fill="#949494"/>
<path d="M59.2777 5.56952H61.2118V15.0533H59.2777V5.56952Z" fill="#949494"/>
<path d="M62.1471 3.8147H64.0785V15.0497H62.1471V3.8147Z" fill="#949494"/>
<path d="M33.3293 29.0533L37.4221 24.9597" stroke="black" stroke-linecap="round" stroke-linejoin="round"/>
<path d="M39.7297 27.1362L44.123 22.7439" stroke="black" stroke-linecap="round" stroke-linejoin="round"/>
<path d="M46.41 24.8616L47.365 23.9066" stroke="black" stroke-linecap="round" stroke-linejoin="round"/>
<path d="M51.0975 27.583L56.8042 21.8763" stroke="black" stroke-linecap="round" stroke-linejoin="round"/>
<path d="M37.4354 24.8919L39.628 27.0854" stroke="black" stroke-linecap="round" stroke-linejoin="round"/>
<path d="M44.1292 22.7867L46.303 24.9606" stroke="black" stroke-linecap="round" stroke-linejoin="round"/>
<path d="M47.4211 23.8567L51.1011 27.5366" stroke="black" stroke-linecap="round" stroke-linejoin="round"/>
<path d="M56.9496 21.7354L58.3691 23.1541" stroke="black" stroke-linecap="round" stroke-linejoin="round"/>
<path d="M37.2018 24.9641C37.2018 24.9156 37.2162 24.8682 37.2431 24.8279C37.2701 24.7875 37.3083 24.7561 37.3531 24.7375C37.398 24.719 37.4473 24.7141 37.4948 24.7236C37.5424 24.733 37.5861 24.7564 37.6204 24.7907C37.6547 24.825 37.678 24.8687 37.6875 24.9162C37.6969 24.9638 37.6921 25.0131 37.6735 25.0579C37.655 25.1027 37.6235 25.141 37.5832 25.168C37.5429 25.1949 37.4955 25.2093 37.447 25.2093C37.382 25.2093 37.3196 25.1835 37.2736 25.1375C37.2276 25.0915 37.2018 25.0291 37.2018 24.9641Z" fill="black"/>
<path d="M39.4453 27.0516C39.4453 27.0031 39.4597 26.9556 39.4866 26.9153C39.5136 26.875 39.5519 26.8436 39.5967 26.825C39.6415 26.8064 39.6908 26.8016 39.7384 26.811C39.7859 26.8205 39.8296 26.8439 39.8639 26.8782C39.8982 26.9125 39.9216 26.9561 39.931 27.0037C39.9405 27.0513 39.9356 27.1006 39.9171 27.1454C39.8985 27.1902 39.8671 27.2285 39.8268 27.2554C39.7864 27.2824 39.739 27.2968 39.6905 27.2968C39.6255 27.2968 39.5631 27.2709 39.5171 27.2249C39.4711 27.179 39.4453 27.1166 39.4453 27.0516Z" fill="black"/>
<path d="M43.859 22.8615C43.859 22.813 43.8734 22.7656 43.9004 22.7252C43.9274 22.6849 43.9657 22.6534 44.0106 22.6349C44.0554 22.6164 44.1048 22.6116 44.1524 22.6211C44.2 22.6306 44.2437 22.6541 44.2779 22.6885C44.3122 22.7229 44.3355 22.7666 44.3448 22.8142C44.3542 22.8619 44.3492 22.9112 44.3305 22.956C44.3118 23.0008 44.2802 23.039 44.2398 23.0658C44.1994 23.0927 44.1519 23.1069 44.1033 23.1067C44.0384 23.1065 43.9763 23.0806 43.9305 23.0346C43.8847 22.9886 43.859 22.9264 43.859 22.8615Z" fill="black"/>
<path d="M46.1078 24.9044C46.1078 24.8559 46.1222 24.8085 46.1491 24.7682C46.1761 24.7278 46.2144 24.6964 46.2592 24.6778C46.304 24.6593 46.3533 24.6544 46.4008 24.6639C46.4484 24.6734 46.4921 24.6967 46.5264 24.731C46.5607 24.7653 46.584 24.809 46.5935 24.8566C46.603 24.9041 46.5981 24.9534 46.5795 24.9982C46.561 25.043 46.5296 25.0813 46.4892 25.1083C46.4489 25.1352 46.4015 25.1496 46.353 25.1496C46.288 25.1496 46.2256 25.1238 46.1796 25.0778C46.1336 25.0318 46.1078 24.9694 46.1078 24.9044Z" fill="black"/>
<path d="M47.1707 23.8736C47.1707 23.8251 47.185 23.7777 47.212 23.7374C47.2389 23.6971 47.2772 23.6656 47.322 23.6471C47.3668 23.6285 47.4161 23.6237 47.4637 23.6331C47.5113 23.6426 47.555 23.6659 47.5892 23.7002C47.6235 23.7345 47.6469 23.7782 47.6564 23.8258C47.6658 23.8733 47.661 23.9226 47.6424 23.9674C47.6238 24.0122 47.5924 24.0505 47.5521 24.0775C47.5118 24.1044 47.4644 24.1188 47.4159 24.1188C47.3508 24.1188 47.2885 24.093 47.2425 24.047C47.1965 24.001 47.1707 23.9386 47.1707 23.8736Z" fill="black"/>
<path d="M50.8728 27.4778C50.8728 27.4293 50.8872 27.3818 50.9141 27.3415C50.9411 27.3012 50.9794 27.2698 51.0242 27.2512C51.069 27.2327 51.1183 27.2278 51.1658 27.2373C51.2134 27.2467 51.2571 27.2701 51.2914 27.3044C51.3257 27.3387 51.349 27.3824 51.3585 27.4299C51.368 27.4775 51.3631 27.5268 51.3445 27.5716C51.326 27.6164 51.2946 27.6547 51.2542 27.6816C51.2139 27.7086 51.1665 27.723 51.118 27.723C51.053 27.723 50.9906 27.6971 50.9446 27.6512C50.8986 27.6052 50.8728 27.5428 50.8728 27.4778Z" fill="black"/>
<path d="M56.7008 21.8059C56.7008 21.7574 56.7152 21.71 56.7421 21.6696C56.7691 21.6293 56.8074 21.5979 56.8522 21.5793C56.897 21.5608 56.9463 21.5559 56.9939 21.5654C57.0414 21.5748 57.0851 21.5982 57.1194 21.6325C57.1537 21.6668 57.1771 21.7105 57.1865 21.758C57.196 21.8056 57.1911 21.8549 57.1726 21.8997C57.154 21.9445 57.1226 21.9828 57.0822 22.0098C57.0419 22.0367 56.9945 22.0511 56.946 22.0511C56.881 22.0511 56.8186 22.0253 56.7726 21.9793C56.7266 21.9333 56.7008 21.8709 56.7008 21.8059Z" fill="black"/>
</svg>
