<svg width="24" height="24" viewBox="0 0 24 24" fill="none" xmlns="http://www.w3.org/2000/svg">
<path d="M6.343 4.938C6.43598 5.03087 6.50974 5.14116 6.56006 5.26256C6.61039 5.38396 6.63629 5.51409 6.63629 5.6455C6.63629 5.77692 6.61039 5.90704 6.56006 6.02844C6.50974 6.14984 6.43598 6.26013 6.343 6.353C4.84244 7.85382 3.99946 9.88921 3.99946 12.0115C3.99946 14.1338 4.84244 16.1692 6.343 17.67C6.43585 17.7629 6.50948 17.8732 6.55971 17.9946C6.60993 18.1159 6.63575 18.246 6.63571 18.3774C6.63566 18.5087 6.60974 18.6388 6.55944 18.7601C6.50913 18.8814 6.43542 18.9917 6.3425 19.0845C6.24959 19.1773 6.13931 19.251 6.01794 19.3012C5.89657 19.3514 5.7665 19.3773 5.63515 19.3772C5.5038 19.3772 5.37375 19.3512 5.25242 19.3009C5.13108 19.2506 5.02085 19.1769 4.928 19.084C1.022 15.178 1.022 8.844 4.928 4.938C5.02088 4.84502 5.13117 4.77127 5.25256 4.72094C5.37396 4.67062 5.50409 4.64471 5.6355 4.64471C5.76692 4.64471 5.89705 4.67062 6.01845 4.72094C6.13984 4.77127 6.25013 4.84502 6.343 4.938V4.938ZM19.074 4.938C22.98 8.845 22.98 15.178 19.074 19.084C18.8854 19.2662 18.6328 19.367 18.3706 19.3647C18.1084 19.3624 17.8576 19.2572 17.6722 19.0718C17.4868 18.8864 17.3816 18.6356 17.3793 18.3734C17.3771 18.1112 17.4778 17.8586 17.66 17.67C19.1606 16.1692 20.0036 14.1338 20.0036 12.0115C20.0036 9.88921 19.1606 7.85382 17.66 6.353C17.4724 6.16549 17.3669 5.91112 17.3668 5.64585C17.3667 5.38058 17.472 5.12614 17.6595 4.9385C17.847 4.75086 18.1014 4.64539 18.3666 4.6453C18.6319 4.6452 18.8864 4.75049 19.074 4.938V4.938ZM9.31001 7.812C9.49748 7.99953 9.60279 8.25384 9.60279 8.519C9.60279 8.78417 9.49748 9.03847 9.31001 9.226C8.94596 9.59001 8.65718 10.0222 8.46015 10.4978C8.26313 10.9734 8.16172 11.4832 8.16172 11.998C8.16172 12.5128 8.26313 13.0226 8.46015 13.4982C8.65718 13.9738 8.94596 14.406 9.31001 14.77C9.40552 14.8622 9.4817 14.9726 9.53411 15.0946C9.58652 15.2166 9.6141 15.3478 9.61526 15.4806C9.61641 15.6134 9.59111 15.7451 9.54083 15.868C9.49055 15.9909 9.41629 16.1025 9.3224 16.1964C9.22851 16.2903 9.11685 16.3645 8.99396 16.4148C8.87106 16.4651 8.73938 16.4904 8.6066 16.4893C8.47382 16.4881 8.3426 16.4605 8.2206 16.4081C8.0986 16.3557 7.98825 16.2795 7.896 16.184C6.78583 15.0738 6.16215 13.568 6.16215 11.998C6.16215 10.428 6.78583 8.92221 7.896 7.812C8.08353 7.62453 8.33784 7.51921 8.603 7.51921C8.86817 7.51921 9.12248 7.62453 9.31001 7.812V7.812ZM16.269 7.812C17.3792 8.92221 18.0029 10.428 18.0029 11.998C18.0029 13.568 17.3792 15.0738 16.269 16.184C16.1762 16.2769 16.0659 16.3506 15.9446 16.4009C15.8233 16.4512 15.6932 16.4772 15.5619 16.4772C15.4305 16.4773 15.3004 16.4514 15.1791 16.4012C15.0577 16.351 14.9474 16.2773 14.8545 16.1845C14.7616 16.0917 14.6879 15.9814 14.6376 15.8601C14.5873 15.7388 14.5613 15.6087 14.5613 15.4774C14.5613 15.346 14.5871 15.2159 14.6373 15.0946C14.6875 14.9732 14.7612 14.8629 14.854 14.77C15.2181 14.406 15.5068 13.9738 15.7039 13.4982C15.9009 13.0226 16.0023 12.5128 16.0023 11.998C16.0023 11.4832 15.9009 10.9734 15.7039 10.4978C15.5068 10.0222 15.2181 9.59001 14.854 9.226C14.6665 9.03836 14.5612 8.78392 14.5613 8.51865C14.5614 8.25338 14.6669 7.99901 14.8545 7.8115C15.0421 7.62399 15.2966 7.5187 15.5619 7.5188C15.8271 7.51889 16.0815 7.62436 16.269 7.812V7.812ZM12.082 10.582C12.279 10.582 12.474 10.6208 12.656 10.6962C12.838 10.7716 13.0034 10.8821 13.1427 11.0213C13.282 11.1606 13.3924 11.326 13.4678 11.508C13.5432 11.69 13.582 11.885 13.582 12.082C13.582 12.279 13.5432 12.474 13.4678 12.656C13.3924 12.838 13.282 13.0034 13.1427 13.1427C13.0034 13.2819 12.838 13.3924 12.656 13.4678C12.474 13.5432 12.279 13.582 12.082 13.582C11.6842 13.582 11.3026 13.424 11.0213 13.1427C10.74 12.8614 10.582 12.4798 10.582 12.082C10.582 11.6842 10.74 11.3026 11.0213 11.0213C11.3026 10.74 11.6842 10.582 12.082 10.582V10.582Z" fill="#B661B4"/>
</svg>
