<svg width="20" height="21" viewBox="0 0 20 21" fill="none" xmlns="http://www.w3.org/2000/svg">
<path d="M19.15 1.85999C18.768 1.47056 18.2835 1.19721 17.7526 1.07157C17.2217 0.945926 16.6661 0.973116 16.15 1.14999L2.00005 5.87999C1.42936 6.0668 0.930738 6.42614 0.573002 6.90843C0.215267 7.39072 0.0160652 7.97216 0.00289517 8.5725C-0.0102749 9.17283 0.163236 9.76245 0.499477 10.26C0.835717 10.7575 1.31811 11.1383 1.88005 11.35L7.12005 13.35C7.23937 13.3956 7.34801 13.4653 7.43919 13.5548C7.53038 13.6443 7.60216 13.7516 7.65005 13.87L9.65005 19.12C9.85363 19.674 10.2231 20.1517 10.708 20.4882C11.193 20.8246 11.7698 21.0033 12.36 21H12.43C13.0311 20.9891 13.6136 20.7903 14.096 20.4317C14.5784 20.073 14.9365 19.5724 15.1201 19L19.85 4.82999C20.0221 4.31893 20.0477 3.76994 19.924 3.24508C19.8003 2.72022 19.5322 2.24045 19.15 1.85999V1.85999ZM18 4.19999L13.22 18.38C13.1645 18.5595 13.0531 18.7165 12.9019 18.828C12.7508 18.9396 12.5679 18.9998 12.38 19C12.1933 19.0031 12.01 18.9492 11.8546 18.8456C11.6992 18.742 11.579 18.5936 11.51 18.42L9.51005 13.17C9.36505 12.7885 9.14144 12.4418 8.85373 12.1524C8.56602 11.8629 8.22065 11.6373 7.84005 11.49L2.59005 9.48999C2.41294 9.4251 2.2607 9.30619 2.15483 9.15008C2.04896 8.99397 1.99482 8.80855 2.00005 8.61999C2.0002 8.43214 2.06047 8.24926 2.17202 8.09812C2.28358 7.94698 2.44058 7.8355 2.62005 7.77999L16.8 3.04999C16.9629 2.98364 17.1414 2.96587 17.3141 2.99882C17.4868 3.03177 17.6462 3.11404 17.7731 3.23568C17.9001 3.35732 17.989 3.51312 18.0293 3.68426C18.0696 3.85539 18.0594 4.03452 18 4.19999V4.19999Z" fill="black"/>
</svg>
