<svg width="26" height="26" viewBox="0 0 27 27" fill="none" xmlns="http://www.w3.org/2000/svg">
<path d="M13.5 13.5C16.6066 13.5 19.125 10.9816 19.125 7.875C19.125 4.7684 16.6066 2.25 13.5 2.25C10.3934 2.25 7.875 4.7684 7.875 7.875C7.875 10.9816 10.3934 13.5 13.5 13.5Z" stroke="black" stroke-width="2"/>
<path d="M19.125 15.75H19.521C20.3435 15.7502 21.1375 16.0508 21.754 16.5952C22.3705 17.1396 22.767 17.8904 22.869 18.7065L23.3089 22.221C23.3484 22.5376 23.3202 22.859 23.2261 23.1639C23.1319 23.4687 22.974 23.7501 22.7628 23.9893C22.5516 24.2284 22.292 24.42 22.0011 24.5511C21.7103 24.6823 21.3948 24.7501 21.0758 24.75H5.92426C5.60519 24.7501 5.28975 24.6823 4.99888 24.5511C4.70802 24.42 4.44837 24.2284 4.23718 23.9893C4.02599 23.7501 3.86808 23.4687 3.77394 23.1639C3.67979 22.859 3.65157 22.5376 3.69113 22.221L4.12988 18.7065C4.23192 17.89 4.62872 17.1389 5.24569 16.5944C5.86266 16.05 6.65728 15.7497 7.48013 15.75H7.87501" stroke="black" stroke-width="2" stroke-linecap="round" stroke-linejoin="round"/>
</svg>
